<svg xmlns="http://www.w3.org/2000/svg" xmlns:xlink="http://www.w3.org/1999/xlink" width="144.566" height="136.063" viewBox="0 0 144.566 136.063"><defs><path id="a" d="M138.7 31.917c-38.902 0-46.752 11.783-64.628 25.532 0 0 .414-4.844-4.226-5.721-4.65-.879-5.787 3.419-5.787 3.419s-1.586-2.541-2.196-4.909c-2.808-10.802-15.698-22.458-29.563-36.313-13.854-13.857-27.886-12.805-27.886-12.805l-1.23 4.91c-3.332 9.825 0 12.279 0 15.264 0 2.982.788 5.699 3.244 10.261 2.458 4.56 3.684 19.389 4.563 26.747.878 7.372 6.538 12.06 7.457 12.981.917.928-6.754 4.566-6.754 5.525v4.301c0 .617-2.68 2.85-3.423 3.598-.746.746-.874 3.768 0 15.707.877 11.92 21.051 24.117 26.579 25.346 5.525 1.221 10.169-9.566 13.51-10.789 3.324-1.223 11.663-10.1 11.663-10.1s2.451 22.988 2.451 14.396c0-8.594 5.266-10.791 5.266-10.791l.617-6.055s5.659 18.461 12.28 25.094c6.617 6.617 19.207 7.623 20.434 7.623 1.225 0 9.559.438 16.925-17.973 7.368-18.418-4.296-22.898-1.839-22.898 2.453 0 11.312-7.107 10.089-13.242-1.228-6.141 4.643-18.776 10.435-24.561 5.787-5.787 6.754-20.962 6.754-21.486 0-.53-1.395-3.061-4.735-3.061z"/></defs><clipPath id="b"><use xlink:href="#a" overflow="visible"/></clipPath><linearGradient id="c" gradientUnits="userSpaceOnUse" x1="67.309" y1="138.897" x2="67.309" y2="-3.849"><stop offset="0" stop-color="#2269A9"/><stop offset="1" stop-color="#009DE2"/></linearGradient><path clip-path="url(#b)" fill="url(#c)" d="M-13.248-3.849h161.112v142.746h-161.112z"/></svg>