<svg xmlns="http://www.w3.org/2000/svg" xmlns:xlink="http://www.w3.org/1999/xlink" width="62" height="64" viewBox="0 0 62 64"><image overflow="visible" opacity=".4" width="269" height="132" xlink:href="66A10DF0.png" transform="matrix(.24 0 0 .24 -1 -1)"/><linearGradient id="a" gradientUnits="userSpaceOnUse" x1="31.267" y1="6.381" x2="31.267" y2="27.33"><stop offset="0" stop-color="#8CC7F1"/><stop offset=".571" stop-color="#4B75B8"/><stop offset=".653" stop-color="#4E78BA"/><stop offset=".731" stop-color="#5680C0"/><stop offset=".807" stop-color="#648FC9"/><stop offset=".882" stop-color="#78A3D6"/><stop offset=".955" stop-color="#94BFE6"/><stop offset="1" stop-color="#A9D4F1"/></linearGradient><path fill-rule="evenodd" clip-rule="evenodd" fill="url(#a)" d="M58.5 11.9l-2.923 2.97c-5.305-7.771-14.133-12.87-24.309-12.87-15.05 0-27.178 11.126-29.268 25.596h9.882c1.967-8.9 9.891-15.561 19.385-15.561 7.388 0 13.812 4.043 17.232 10.028l-3.402 3.456.141 2.093h15.297v-15.642l-2.035-.07z"/><image overflow="visible" opacity=".4" width="269" height="132" xlink:href="66A10DF1.png" transform="matrix(.24 0 0 .24 -1 33.307)"/><linearGradient id="b" gradientUnits="userSpaceOnUse" x1="2" y1="49.111" x2="60.535" y2="49.111"><stop offset=".011" stop-color="#EAEAEA"/><stop offset=".571" stop-color="#CDCDCD"/><stop offset=".709" stop-color="#D0D0D0"/><stop offset=".839" stop-color="#D9D9D9"/><stop offset=".966" stop-color="#E7E7E7"/><stop offset="1" stop-color="#ECECEC"/></linearGradient><path fill-rule="evenodd" clip-rule="evenodd" fill="url(#b)" d="M4.036 52.018l2.923-2.97c5.305 7.771 14.133 12.869 24.309 12.869 15.05 0 27.177-11.125 29.268-25.596h-9.882c-1.968 8.9-9.892 15.563-19.386 15.563-7.387 0-13.812-4.044-17.231-10.028l3.402-3.457-.141-2.092h-15.298v15.642l2.036.069z"/><path fill-rule="evenodd" clip-rule="evenodd" fill="#fff" d="M45.098 25.518l.07 1.071 3.332-3.383c-.138-.24-.288-.471-.434-.704l-2.968 3.016zm13.402-13.618l-2.923 2.97c-5.305-7.771-14.133-12.87-24.309-12.87-15.05 0-27.178 11.126-29.268 25.596h.217c2.553-13.903 14.404-24.453 29.051-24.453 10.177 0 19.005 5.099 24.31 12.87l2.923-2.969 2.035.07v-1.144l-2.036-.07zm-7.847 24.301c-1.968 8.902-9.892 15.565-19.386 15.565-7.106 0-13.311-3.746-16.818-9.357l-.435.433c3.415 6.007 9.849 10.067 17.253 10.067 9.494 0 17.418-6.662 19.386-15.563h9.663c.071-.383.162-.756.219-1.145h-9.882zm-33.287 2.163l.072-.071-.141-2.092h-15.297v1.143h15.297l.069 1.02z"/><path opacity=".2" fill-rule="evenodd" clip-rule="evenodd" fill="#78BEE8" d="M48.5 20.919c-3.421-5.985-9.845-10.028-17.232-10.028-9.494 0-17.418 6.661-19.385 15.561h-9.666c-.07.382-.161.757-.217 1.144h9.882c1.967-8.9 9.891-15.561 19.385-15.561 7.092 0 13.289 3.731 16.799 9.324l.434-.44zm-3.262 5.549l-.07-1.022-.07.072.141 2.093h15.297v-1.143h-15.298z"/><linearGradient id="c" gradientUnits="userSpaceOnUse" x1="2.082" y1="49.202" x2="60.617" y2="49.202"><stop offset=".238" stop-color="#D4D4D4"/><stop offset=".47" stop-color="#A8A8A8"/><stop offset=".697" stop-color="#848484"/><stop offset=".881" stop-color="#6E6E6E"/><stop offset="1" stop-color="#666"/></linearGradient><path opacity=".3" fill-rule="evenodd" clip-rule="evenodd" fill="url(#c)" d="M17.52 38.495l-.072-1.07-3.351 3.334c.138.24.288.476.435.71l2.988-2.974zm42.878-2.091c-2.551 13.905-14.404 24.454-29.048 24.454-10.232 0-19.104-5.151-24.399-12.991l-3.119 3.104-1.749-.071v1.145l1.749.071 3.118-3.106c5.296 7.841 14.167 12.99 24.4 12.99 15.047 0 27.176-11.125 29.268-25.596h-.22z"/></svg>