<?xml version="1.0" encoding="utf-8"?>
<!-- Generator: Adobe Illustrator 17.1.0, SVG Export Plug-In . SVG Version: 6.00 Build 0)  -->
<!DOCTYPE svg PUBLIC "-//W3C//DTD SVG 1.1//EN" "http://www.w3.org/Graphics/SVG/1.1/DTD/svg11.dtd">
<svg version="1.1" id="Слой_1" xmlns="http://www.w3.org/2000/svg" xmlns:xlink="http://www.w3.org/1999/xlink" x="0px" y="0px"
	 viewBox="0 0 175 175" enable-background="new 0 0 175 175" xml:space="preserve">
<linearGradient id="SVGID_1_" gradientUnits="userSpaceOnUse" x1="-63.795" y1="141.8007" x2="-63.795" y2="-23.3106" gradientTransform="matrix(1 0 0 1 145.668 0)">
	<stop  offset="0.1245" style="stop-color:#2E4048"/>
	<stop  offset="0.2872" style="stop-color:#44555D"/>
	<stop  offset="0.5069" style="stop-color:#5B6B74"/>
	<stop  offset="0.7134" style="stop-color:#697881"/>
	<stop  offset="0.8918" style="stop-color:#6E7D86"/>
</linearGradient>
<path fill="url(#SVGID_1_)" stroke="#F9F9FA" stroke-width="2" d="M144.1,33.3l-72.9,14c0,0-6.9-10.9-12.4-9.9
	c-8.3,1.5-39.1,7-39.1,7c-3,0-5.4,2.4-5.4,5.4v87.5c0,3,2.4,5.4,5.4,5.4l124.4-52c3,0,5.4-2.4,5.4-5.4V38.7
	C149.5,35.7,147,33.3,144.1,33.3z"/>
<linearGradient id="SVGID_2_" gradientUnits="userSpaceOnUse" x1="605.3613" y1="103.1131" x2="605.3613" y2="63.2081" gradientTransform="matrix(-1 0 0 1 688.1289 0)">
	<stop  offset="0.1245" style="stop-color:#979B9D"/>
	<stop  offset="0.1454" style="stop-color:#A5AAAC"/>
	<stop  offset="0.1987" style="stop-color:#C5C9CC"/>
	<stop  offset="0.2501" style="stop-color:#DCE0E3"/>
	<stop  offset="0.2983" style="stop-color:#E9EEF1"/>
	<stop  offset="0.3399" style="stop-color:#EEF3F6"/>
	<stop  offset="0.4126" style="stop-color:#EFF4F7"/>
	<stop  offset="1" style="stop-color:#F7FBFF"/>
</linearGradient>
<path fill="url(#SVGID_2_)" stroke="#656F75" stroke-miterlimit="10" d="M23.3,51.5l119-21c0.8,0,1.4,0.6,1.4,1.4v79.9
	c0,0.8-0.6,1.4-1.4,1.4l-119,21c-0.8,0-1.4-0.6-1.4-1.4V52.9C21.9,52.1,22.5,51.5,23.3,51.5z"/>
<linearGradient id="SVGID_3_" gradientUnits="userSpaceOnUse" x1="601.4453" y1="105.7037" x2="601.4453" y2="65.7985" gradientTransform="matrix(-1 0 0 1 688.1289 0)">
	<stop  offset="0.1245" style="stop-color:#979B9D"/>
	<stop  offset="0.1454" style="stop-color:#A5AAAC"/>
	<stop  offset="0.1987" style="stop-color:#C5C9CC"/>
	<stop  offset="0.2501" style="stop-color:#DCE0E3"/>
	<stop  offset="0.2983" style="stop-color:#E9EEF1"/>
	<stop  offset="0.3399" style="stop-color:#EEF3F6"/>
	<stop  offset="0.4126" style="stop-color:#EFF4F7"/>
	<stop  offset="1" style="stop-color:#F7FBFF"/>
</linearGradient>
<path fill="url(#SVGID_3_)" stroke="#656F75" stroke-miterlimit="10" d="M27.2,54.1l119-21c0.8,0,1.4,0.6,1.4,1.4v79.9
	c0,0.8-0.6,1.4-1.4,1.4l-119,21c-0.8,0-1.4-0.6-1.4-1.4V55.5C25.8,54.7,26.4,54.1,27.2,54.1z"/>
<linearGradient id="SVGID_4_" gradientUnits="userSpaceOnUse" x1="596.6406" y1="108.9927" x2="596.6406" y2="69.0873" gradientTransform="matrix(-1 0 0 1 688.1289 0)">
	<stop  offset="0.1245" style="stop-color:#979B9D"/>
	<stop  offset="0.1454" style="stop-color:#A5AAAC"/>
	<stop  offset="0.1987" style="stop-color:#C5C9CC"/>
	<stop  offset="0.2501" style="stop-color:#DCE0E3"/>
	<stop  offset="0.2983" style="stop-color:#E9EEF1"/>
	<stop  offset="0.3399" style="stop-color:#EEF3F6"/>
	<stop  offset="0.4126" style="stop-color:#EFF4F7"/>
	<stop  offset="1" style="stop-color:#F7FBFF"/>
</linearGradient>
<path fill="url(#SVGID_4_)" stroke="#656F75" stroke-miterlimit="10" d="M32,57.4l119-21c0.8,0,1.4,0.6,1.4,1.4l-4,77.9
	c0,0.8-0.6,1.4-1.4,1.4l-115,23c-0.8,0-1.4-0.6-1.4-1.4V58.8C30.6,58,31.2,57.4,32,57.4z"/>
<g>
	
		<linearGradient id="SVGID_5_" gradientUnits="userSpaceOnUse" x1="581.4585" y1="142.4811" x2="581.4585" y2="-4.9265" gradientTransform="matrix(-1 0 -0.1763 1 689.4836 0)">
		<stop  offset="0.1245" style="stop-color:#67747C"/>
		<stop  offset="0.2401" style="stop-color:#6D787F"/>
		<stop  offset="0.5948" style="stop-color:#7B8286"/>
		<stop  offset="0.9017" style="stop-color:#808589"/>
	</linearGradient>
	<path fill="url(#SVGID_5_)" d="M22.1,143.3c-1.3,0-2.5-0.5-3.2-1.4c-0.7-0.8-0.9-1.8-0.7-2.9l10.8-59.9c0.4-2.5,3-4.5,5.8-4.5
		l76.2-13l0.1-0.2c0-0.1,4.6-7.5,10.7-8.8l39-7c1.3,0,2.5,0.5,3.2,1.4c0.7,0.8,0.9,1.8,0.7,2.9l-12.4,62.9c-0.4,2.5-3,4.5-5.8,4.5
		h-0.1L22.1,143.3z"/>
	<path fill="#F5FAFC" d="M160.7,46.1c1.2,0,2.2,0.5,2.8,1.2c0.6,0.7,0.8,1.6,0.6,2.5l-12.4,62.9c-0.4,2.2-2.8,4.1-5.3,4.1h-0.1
		l-0.1,0L22,142.8c-1.2,0-2.2-0.5-2.8-1.2c-0.6-0.7-0.8-1.6-0.6-2.5l10.8-59.9c0.4-2.2,2.8-4.1,5.3-4.1h0.1l0.1,0l75.9-13l0.5-0.1
		l0.2-0.4c0-0.1,4.5-7.3,10.3-8.5L160.7,46.1 M160.6,45.1l-39.1,7c-6.4,1.3-11,9-11,9l-75.9,13c-3,0-5.8,2.2-6.2,4.9l-10.8,59.9
		c-0.5,2.7,1.5,4.9,4.5,4.9l124.4-26c3,0,5.8-2.2,6.2-4.9L165.1,50C165.6,47.3,163.6,45.1,160.6,45.1L160.6,45.1z"/>
</g>
<linearGradient id="SVGID_6_" gradientUnits="userSpaceOnUse" x1="94.111" y1="48.8911" x2="94.111" y2="106.1104">
	<stop  offset="0.1245" style="stop-color:#67747C;stop-opacity:0"/>
	<stop  offset="0.2543" style="stop-color:#77838A;stop-opacity:0.1671"/>
	<stop  offset="0.4895" style="stop-color:#8E989E;stop-opacity:0.4697"/>
	<stop  offset="0.7107" style="stop-color:#9CA5AB;stop-opacity:0.7542"/>
	<stop  offset="0.9017" style="stop-color:#A1A9AF"/>
</linearGradient>
<path fill="url(#SVGID_6_)" d="M101.8,97.9c-26.8,0-54.6,3.1-76,8.3l4.8-23.7c0.3-2,2.1-2.5,5.3-3.5l75.9-14c0.5,0,1.8-1.2,2.6-2
	c0.8-0.8,1-1.8,2.2-3c2-1.8,3.9-4.1,6.2-4.1l37.3-7c2.1,0,2.5,1.7,2.2,3.6l-9.9,51.2C135.1,100.1,123.5,97.9,101.8,97.9z"/>
</svg>
