<svg xmlns="http://www.w3.org/2000/svg" width="306" height="94" viewBox="0 0 306 94"><g><linearGradient gradientUnits="userSpaceOnUse" x1="46.369" y1="-6.043" x2="46.369" y2="99.14"><stop offset="0" stop-color="#fff" stop-opacity=".6"/><stop offset="1" stop-color="#68A7DD" stop-opacity=".6"/></linearGradient><g opacity=".4" fill-rule="evenodd" clip-rule="evenodd"><path d="M133.16 64.832c0 3.041-.827 5.371-2.477 6.993-1.651 1.627-4.004 2.441-7.057 2.441-3.203 0-5.631-.811-7.28-2.428-1.652-1.616-2.477-3.935-2.477-6.956v-23.615h-4.209v23.318c0 4.159 1.193 7.428 3.579 9.807 2.386 2.373 5.757 3.563 10.115 3.563 4.358 0 7.783-1.182 10.276-3.542 2.493-2.357 3.739-5.6 3.739-9.728v-23.418h-4.209v23.565zM162.417 71.123h-.198l-11.464-29.856h-6.339v36.19h3.889v-23.019c0-3.5-.117-6.519-.348-9.062h.198l12.282 32.081h3.392l12.38-32.03h.197c-.23 3.139-.345 6.039-.345 8.714v23.316h4.209v-36.19h-6.288l-11.565 29.856zM187.664 41.267h4.21v36.19h-4.21zM200.975 71.469c-.938 0-1.663.285-2.165.854-.503.569-.757 1.407-.757 2.511 0 1.19.276 2.042.831 2.563.551.518 1.25.782 2.091.782.941 0 1.687-.29 2.23-.865.546-.578.818-1.409.818-2.48 0-1.104-.269-1.941-.807-2.511-.536-.569-1.284-.854-2.241-.854zM225.726 44.51c2.741 0 5.481.645 8.221 1.931l1.784-3.614c-2.839-1.386-6.156-2.08-9.956-2.08-3.565 0-6.663.761-9.297 2.278-2.632 1.519-4.646 3.681-6.041 6.485-1.396 2.806-2.094 6.074-2.094 9.803 0 5.96 1.449 10.554 4.347 13.787 2.899 3.237 7.012 4.854 12.343 4.854 3.684 0 6.776-.47 9.286-1.413v-3.687c-3.234.908-6.116 1.361-8.643 1.361-4.11 0-7.276-1.291-9.492-3.877-2.224-2.581-3.334-6.238-3.334-10.976 0-4.604 1.154-8.232 3.454-10.878 2.303-2.65 5.445-3.974 9.422-3.974zM257.684 71.123h-.196l-11.466-29.856h-6.341v36.19h3.888v-23.019c0-3.5-.116-6.519-.346-9.062h.199l12.281 32.081h3.39l12.383-32.03h.197c-.23 3.139-.348 6.039-.348 8.714v23.316h4.212v-36.19h-6.291l-11.562 29.856zM301.215 61.79c-1.427-1.554-4.04-3.002-7.836-4.358-2.262-.81-3.941-1.548-5.04-2.216-1.097-.669-1.876-1.401-2.338-2.202-.462-.8-.692-1.828-.692-3.082 0-1.699.623-3.027 1.88-3.986 1.253-.955 2.996-1.435 5.224-1.435 2.827 0 5.729.627 8.719 1.88l1.311-3.663c-3.021-1.32-6.33-1.98-9.929-1.98-3.449 0-6.226.826-8.321 2.476-2.096 1.651-3.144 3.869-3.144 6.658 0 2.658.723 4.811 2.167 6.461 1.445 1.653 3.852 3.08 7.219 4.285 2.41.857 4.205 1.625 5.386 2.301s2.022 1.416 2.523 2.214c.505.803.755 1.83.755 3.084 0 1.899-.708 3.378-2.129 4.439-1.419 1.068-3.533 1.602-6.338 1.602-1.72 0-3.452-.181-5.2-.545-1.751-.365-3.366-.859-4.853-1.485v4.06c2.311 1.106 5.61 1.658 9.903 1.658 3.962 0 7.099-.893 9.411-2.675 2.31-1.778 3.465-4.264 3.465-7.451-.001-2.477-.714-4.489-2.143-6.04zM94.351 24.148c-25.841 0-31.053 7.823-42.926 16.953 0 0 .275-3.216-2.806-3.799-3.088-.583-3.845 2.271-3.845 2.271s-1.052-1.688-1.458-3.26c-1.864-7.173-10.425-14.913-19.635-24.112-9.201-9.201-18.523-8.502-18.523-8.502l-.817 3.261c-2.212 6.522 0 8.152 0 10.132 0 1.981.523 3.785 2.155 6.814 1.634 3.027 2.447 12.873 3.031 17.761.583 4.893 4.342 8.01 4.953 8.619.609.614-4.486 3.031-4.486 3.668v2.858c0 .406-1.781 1.891-2.273 2.386-.496.497-.581 2.503 0 10.432.581 7.916 13.981 16.015 17.653 16.829 3.67.812 6.754-6.352 8.972-7.164 2.209-.813 7.747-6.705 7.747-6.705s1.629 15.267 1.629 9.557c0-5.706 3.497-7.166 3.497-7.166l.41-4.019s3.758 12.256 8.156 16.66c4.395 4.396 12.757 5.063 13.574 5.063.813 0 6.347.294 11.241-11.929 4.892-12.23-2.856-15.209-1.224-15.209 1.629 0 7.514-4.717 6.701-8.791-.814-4.079 3.084-12.467 6.931-16.31 3.845-3.842 4.485-13.918 4.485-14.268 0-.35-.924-2.03-3.142-2.03z"/></g><linearGradient id="a" gradientUnits="userSpaceOnUse" x1="123.515" y1="-3.996" x2="123.515" y2="96.711"><stop offset="0" stop-color="#fff" stop-opacity=".9"/><stop offset=".202" stop-color="#FCFDFE" stop-opacity=".88"/><stop offset=".364" stop-color="#F2F7FC" stop-opacity=".864"/><stop offset=".512" stop-color="#E1EDF8" stop-opacity=".849"/><stop offset=".652" stop-color="#C9E0F3" stop-opacity=".835"/><stop offset=".786" stop-color="#AACEEC" stop-opacity=".821"/><stop offset=".915" stop-color="#85B8E4" stop-opacity=".808"/><stop offset="1" stop-color="#68A7DD" stop-opacity=".8"/></linearGradient><path fill-rule="evenodd" clip-rule="evenodd" fill="url(#a)" d="M133.16 63.832c0 3.041-.827 5.371-2.477 6.993-1.651 1.627-4.004 2.441-7.057 2.441-3.203 0-5.631-.811-7.28-2.428-1.652-1.616-2.477-3.935-2.477-6.956v-23.615h-4.209v23.318c0 4.159 1.193 7.428 3.579 9.807 2.386 2.373 5.757 3.563 10.115 3.563 4.358 0 7.783-1.182 10.276-3.542 2.493-2.357 3.739-5.6 3.739-9.728v-23.418h-4.209v23.565z"/><linearGradient id="b" gradientUnits="userSpaceOnUse" x1="162.344" y1="-3.994" x2="162.344" y2="96.708"><stop offset="0" stop-color="#fff" stop-opacity=".9"/><stop offset=".202" stop-color="#FCFDFE" stop-opacity=".88"/><stop offset=".364" stop-color="#F2F7FC" stop-opacity=".864"/><stop offset=".512" stop-color="#E1EDF8" stop-opacity=".849"/><stop offset=".652" stop-color="#C9E0F3" stop-opacity=".835"/><stop offset=".786" stop-color="#AACEEC" stop-opacity=".821"/><stop offset=".915" stop-color="#85B8E4" stop-opacity=".808"/><stop offset="1" stop-color="#68A7DD" stop-opacity=".8"/></linearGradient><path fill-rule="evenodd" clip-rule="evenodd" fill="url(#b)" d="M162.417 70.123h-.198l-11.464-29.856h-6.339v36.19h3.889v-23.019c0-3.5-.117-6.519-.348-9.062h.198l12.282 32.081h3.392l12.38-32.03h.197c-.23 3.139-.345 6.039-.345 8.714v23.316h4.209v-36.19h-6.288l-11.565 29.856z"/><linearGradient id="c" gradientUnits="userSpaceOnUse" x1="189.769" y1="-3.994" x2="189.769" y2="96.708"><stop offset="0" stop-color="#fff" stop-opacity=".9"/><stop offset=".202" stop-color="#FCFDFE" stop-opacity=".88"/><stop offset=".364" stop-color="#F2F7FC" stop-opacity=".864"/><stop offset=".512" stop-color="#E1EDF8" stop-opacity=".849"/><stop offset=".652" stop-color="#C9E0F3" stop-opacity=".835"/><stop offset=".786" stop-color="#AACEEC" stop-opacity=".821"/><stop offset=".915" stop-color="#85B8E4" stop-opacity=".808"/><stop offset="1" stop-color="#68A7DD" stop-opacity=".8"/></linearGradient><path fill-rule="evenodd" clip-rule="evenodd" fill="url(#c)" d="M187.664 40.267h4.21v36.19h-4.21z"/><linearGradient id="d" gradientUnits="userSpaceOnUse" x1="201.038" y1="-4.008" x2="201.038" y2="96.717"><stop offset="0" stop-color="#fff" stop-opacity=".9"/><stop offset=".202" stop-color="#FCFDFE" stop-opacity=".88"/><stop offset=".364" stop-color="#F2F7FC" stop-opacity=".864"/><stop offset=".512" stop-color="#E1EDF8" stop-opacity=".849"/><stop offset=".652" stop-color="#C9E0F3" stop-opacity=".835"/><stop offset=".786" stop-color="#AACEEC" stop-opacity=".821"/><stop offset=".915" stop-color="#85B8E4" stop-opacity=".808"/><stop offset="1" stop-color="#68A7DD" stop-opacity=".8"/></linearGradient><path fill-rule="evenodd" clip-rule="evenodd" fill="url(#d)" d="M200.975 70.469c-.938 0-1.663.285-2.165.854-.503.569-.757 1.407-.757 2.511 0 1.19.276 2.042.831 2.563.551.518 1.25.782 2.091.782.941 0 1.687-.29 2.23-.865.546-.578.818-1.409.818-2.48 0-1.104-.269-1.941-.807-2.511-.536-.569-1.284-.854-2.241-.854z"/><linearGradient id="e" gradientUnits="userSpaceOnUse" x1="222.037" y1="-3.995" x2="222.037" y2="96.711"><stop offset="0" stop-color="#fff" stop-opacity=".9"/><stop offset=".202" stop-color="#FCFDFE" stop-opacity=".88"/><stop offset=".364" stop-color="#F2F7FC" stop-opacity=".864"/><stop offset=".512" stop-color="#E1EDF8" stop-opacity=".849"/><stop offset=".652" stop-color="#C9E0F3" stop-opacity=".835"/><stop offset=".786" stop-color="#AACEEC" stop-opacity=".821"/><stop offset=".915" stop-color="#85B8E4" stop-opacity=".808"/><stop offset="1" stop-color="#68A7DD" stop-opacity=".8"/></linearGradient><path fill-rule="evenodd" clip-rule="evenodd" fill="url(#e)" d="M225.726 43.51c2.741 0 5.481.645 8.221 1.931l1.784-3.614c-2.839-1.386-6.156-2.08-9.956-2.08-3.565 0-6.663.761-9.297 2.278-2.632 1.519-4.646 3.681-6.041 6.485-1.396 2.806-2.094 6.074-2.094 9.803 0 5.96 1.449 10.554 4.347 13.787 2.899 3.237 7.012 4.854 12.343 4.854 3.684 0 6.776-.47 9.286-1.413v-3.687c-3.234.908-6.116 1.361-8.643 1.361-4.11 0-7.276-1.291-9.492-3.877-2.224-2.581-3.334-6.238-3.334-10.976 0-4.604 1.154-8.232 3.454-10.878 2.303-2.65 5.445-3.974 9.422-3.974z"/><linearGradient id="f" gradientUnits="userSpaceOnUse" x1="257.609" y1="-3.994" x2="257.609" y2="96.708"><stop offset="0" stop-color="#fff" stop-opacity=".9"/><stop offset=".202" stop-color="#FCFDFE" stop-opacity=".88"/><stop offset=".364" stop-color="#F2F7FC" stop-opacity=".864"/><stop offset=".512" stop-color="#E1EDF8" stop-opacity=".849"/><stop offset=".652" stop-color="#C9E0F3" stop-opacity=".835"/><stop offset=".786" stop-color="#AACEEC" stop-opacity=".821"/><stop offset=".915" stop-color="#85B8E4" stop-opacity=".808"/><stop offset="1" stop-color="#68A7DD" stop-opacity=".8"/></linearGradient><path fill-rule="evenodd" clip-rule="evenodd" fill="url(#f)" d="M257.684 70.123h-.196l-11.466-29.856h-6.341v36.19h3.888v-23.019c0-3.5-.116-6.519-.346-9.062h.199l12.281 32.081h3.39l12.383-32.03h.197c-.23 3.139-.348 6.039-.348 8.714v23.316h4.212v-36.19h-6.291l-11.562 29.856z"/><linearGradient id="g" gradientUnits="userSpaceOnUse" x1="291.968" y1="-3.995" x2="291.968" y2="96.711"><stop offset="0" stop-color="#fff" stop-opacity=".9"/><stop offset=".202" stop-color="#FCFDFE" stop-opacity=".88"/><stop offset=".364" stop-color="#F2F7FC" stop-opacity=".864"/><stop offset=".512" stop-color="#E1EDF8" stop-opacity=".849"/><stop offset=".652" stop-color="#C9E0F3" stop-opacity=".835"/><stop offset=".786" stop-color="#AACEEC" stop-opacity=".821"/><stop offset=".915" stop-color="#85B8E4" stop-opacity=".808"/><stop offset="1" stop-color="#68A7DD" stop-opacity=".8"/></linearGradient><path fill-rule="evenodd" clip-rule="evenodd" fill="url(#g)" d="M301.215 60.79c-1.427-1.554-4.04-3.002-7.836-4.358-2.262-.81-3.941-1.548-5.04-2.216-1.097-.669-1.876-1.401-2.338-2.202-.462-.8-.692-1.828-.692-3.082 0-1.699.623-3.027 1.88-3.986 1.253-.955 2.996-1.435 5.224-1.435 2.827 0 5.729.627 8.719 1.88l1.311-3.663c-3.021-1.32-6.33-1.98-9.929-1.98-3.449 0-6.226.826-8.321 2.476-2.096 1.651-3.144 3.869-3.144 6.658 0 2.658.723 4.811 2.167 6.461 1.445 1.653 3.852 3.08 7.219 4.285 2.41.857 4.205 1.625 5.386 2.301s2.022 1.416 2.523 2.214c.505.803.755 1.83.755 3.084 0 1.899-.708 3.378-2.129 4.439-1.419 1.068-3.533 1.602-6.338 1.602-1.72 0-3.452-.181-5.2-.545-1.751-.365-3.366-.859-4.853-1.485v4.06c2.311 1.106 5.61 1.658 9.903 1.658 3.962 0 7.099-.893 9.411-2.675 2.31-1.778 3.465-4.264 3.465-7.451-.001-2.477-.714-4.489-2.143-6.04z"/><linearGradient id="h" gradientUnits="userSpaceOnUse" x1="50.425" y1="-3.991" x2="50.425" y2="96.708"><stop offset="0" stop-color="#fff" stop-opacity=".9"/><stop offset=".202" stop-color="#FCFDFE" stop-opacity=".88"/><stop offset=".364" stop-color="#F2F7FC" stop-opacity=".864"/><stop offset=".512" stop-color="#E1EDF8" stop-opacity=".849"/><stop offset=".652" stop-color="#C9E0F3" stop-opacity=".835"/><stop offset=".786" stop-color="#AACEEC" stop-opacity=".821"/><stop offset=".915" stop-color="#85B8E4" stop-opacity=".808"/><stop offset="1" stop-color="#68A7DD" stop-opacity=".8"/></linearGradient><path fill-rule="evenodd" clip-rule="evenodd" fill="url(#h)" d="M94.351 23.148c-25.841 0-31.053 7.823-42.926 16.953 0 0 .275-3.216-2.806-3.799-3.088-.583-3.845 2.271-3.845 2.271s-1.052-1.688-1.458-3.26c-1.864-7.173-10.425-14.913-19.635-24.112-9.201-9.201-18.523-8.502-18.523-8.502l-.817 3.261c-2.212 6.522 0 8.152 0 10.132 0 1.981.523 3.785 2.155 6.814 1.634 3.027 2.447 12.873 3.031 17.761.583 4.893 4.342 8.01 4.953 8.619.609.614-4.486 3.031-4.486 3.668v2.858c0 .406-1.781 1.891-2.273 2.386-.496.497-.581 2.503 0 10.432.581 7.916 13.981 16.015 17.653 16.829 3.67.812 6.754-6.352 8.972-7.164 2.209-.813 7.747-6.705 7.747-6.705s1.629 15.267 1.629 9.557c0-5.706 3.497-7.166 3.497-7.166l.41-4.019s3.758 12.256 8.156 16.66c4.395 4.396 12.757 5.063 13.574 5.063.813 0 6.347.294 11.241-11.929 4.892-12.23-2.856-15.209-1.224-15.209 1.629 0 7.514-4.717 6.701-8.791-.814-4.079 3.084-12.467 6.931-16.31 3.845-3.842 4.485-13.918 4.485-14.268 0-.35-.924-2.03-3.142-2.03z"/></g></svg>