<svg xmlns="http://www.w3.org/2000/svg" width="60" height="20" viewBox="-10 0 60 20" enable-background="new -10 0 60 20"><g><path fill="#fff" d="M-3 17.5c-2.481 0-4.5-2.02-4.5-4.5v-6c0-2.481 2.019-4.5 4.5-4.5h6c2.481 0 4.5 2.019 4.5 4.5v6c0 2.48-2.019 4.5-4.5 4.5h-6z"/><path fill="#E5E5E5" d="M3 3c2.206 0 4 1.794 4 4v6c0 2.206-1.794 4-4 4h-6c-2.206 0-4-1.794-4-4v-6c0-2.206 1.794-4 4-4h6m0-1h-6c-2.761 0-5 2.238-5 5v6c0 2.76 2.239 5 5 5h6c2.761 0 5-2.24 5-5v-6c0-2.762-2.239-5-5-5z"/><path fill="#259BEA" d="M23 2h-6c-2.762 0-5 2.238-5 5v6c0 2.76 2.238 5 5 5h6c2.762 0 5-2.24 5-5v-6c0-2.762-2.238-5-5-5zm-4.053 11.889l-.008-.008-.008.008-4.242-4.242 1.414-1.414 2.836 2.835 4.957-4.956 1.414 1.414-6.363 6.363z"/><path fill="#fff" d="M37 17.5c-2.48 0-4.5-2.02-4.5-4.5v-6c0-2.481 2.02-4.5 4.5-4.5h6c2.48 0 4.5 2.019 4.5 4.5v6c0 2.48-2.02 4.5-4.5 4.5h-6z"/><path fill="#E5E5E5" d="M43 3c2.206 0 4 1.794 4 4v6c0 2.206-1.794 4-4 4h-6c-2.206 0-4-1.794-4-4v-6c0-2.206 1.794-4 4-4h6m0-1h-6c-2.761 0-5 2.238-5 5v6c0 2.76 2.239 5 5 5h6c2.761 0 5-2.24 5-5v-6c0-2.762-2.239-5-5-5z"/><path fill="#333" d="M44 12c0 1.104-.896 2-2 2h-4c-1.104 0-2-.896-2-2v-4c0-1.104.896-2 2-2h4c1.104 0 2 .896 2 2v4z"/></g></svg>