<?xml version="1.0" encoding="utf-8"?>
<!-- Generator: Adobe Illustrator 16.0.3, SVG Export Plug-In . SVG Version: 6.00 Build 0)  -->
<!DOCTYPE svg PUBLIC "-//W3C//DTD SVG 1.1//EN" "http://www.w3.org/Graphics/SVG/1.1/DTD/svg11.dtd">
<svg version="1.1" id="Layer_1" xmlns="http://www.w3.org/2000/svg" xmlns:xlink="http://www.w3.org/1999/xlink" x="0px" y="0px"
	 width="144.566px" height="136.063px" viewBox="0 0 144.566 136.063" enable-background="new 0 0 144.566 136.063"
	 xml:space="preserve">
<g>
	<defs>
		<path id="SVGID_1_" d="M138.7,31.917c-38.902,0-46.752,11.783-64.628,25.532c0,0,0.414-4.844-4.226-5.721
			c-4.65-0.879-5.787,3.419-5.787,3.419s-1.586-2.541-2.196-4.909c-2.808-10.802-15.698-22.458-29.563-36.313
			C18.446,0.068,4.414,1.12,4.414,1.12L3.184,6.03c-3.332,9.825,0,12.279,0,15.264c0,2.982,0.788,5.699,3.244,10.261
			c2.458,4.56,3.684,19.389,4.563,26.747c0.878,7.372,6.538,12.06,7.457,12.981c0.917,0.928-6.754,4.566-6.754,5.525v4.301
			c0,0.617-2.68,2.85-3.423,3.598c-0.746,0.746-0.874,3.768,0,15.707c0.877,11.92,21.051,24.117,26.579,25.346
			c5.525,1.221,10.169-9.566,13.51-10.789c3.324-1.223,11.663-10.1,11.663-10.1s2.451,22.988,2.451,14.396
			c0-8.594,5.266-10.791,5.266-10.791l0.617-6.055c0,0,5.659,18.461,12.28,25.094c6.617,6.617,19.207,7.623,20.434,7.623
			c1.225,0,9.559,0.438,16.925-17.973c7.368-18.418-4.296-22.898-1.839-22.898c2.453,0,11.312-7.107,10.089-13.242
			c-1.228-6.141,4.643-18.776,10.435-24.561c5.787-5.787,6.754-20.962,6.754-21.486C143.435,34.448,142.04,31.917,138.7,31.917z"/>
	</defs>
	<clipPath id="SVGID_2_">
		<use xlink:href="#SVGID_1_"  overflow="visible"/>
	</clipPath>
	<linearGradient id="SVGID_3_" gradientUnits="userSpaceOnUse" x1="67.3086" y1="138.897" x2="67.3086" y2="-3.8486">
		<stop  offset="0" style="stop-color:#2269A9"/>
		<stop  offset="1" style="stop-color:#009DE2"/>
	</linearGradient>
	<rect x="-13.248" y="-3.849" clip-path="url(#SVGID_2_)" fill="url(#SVGID_3_)" width="161.112" height="142.746"/>
</g>
</svg>
