<?xml version="1.0" encoding="utf-8"?>
<!-- Generator: Adobe Illustrator 17.1.0, SVG Export Plug-In . SVG Version: 6.00 Build 0)  -->
<!DOCTYPE svg PUBLIC "-//W3C//DTD SVG 1.1//EN" "http://www.w3.org/Graphics/SVG/1.1/DTD/svg11.dtd">
<svg version="1.1" id="Слой_1" xmlns="http://www.w3.org/2000/svg" xmlns:xlink="http://www.w3.org/1999/xlink" x="0px" y="0px"
	 viewBox="0 0 175 175" enable-background="new 0 0 175 175" xml:space="preserve">
<polygon fill="#2C3133" points="173.2,46.5 122.9,25 61.7,5.2 34.1,58.3 0.9,125.5 117.4,166.6 122.5,156.5 148.8,103.8 "/>
<linearGradient id="белый_лист_1_" gradientUnits="userSpaceOnUse" x1="46.0154" y1="95.7768" x2="131.9169" y2="-19.9951" gradientTransform="matrix(0.9336 0.3584 -0.3584 0.9336 17.4259 19.3587)">
	<stop  offset="0.1245" style="stop-color:#71787D"/>
	<stop  offset="0.211" style="stop-color:#858A8D"/>
	<stop  offset="0.3021" style="stop-color:#939698"/>
	<stop  offset="0.3809" style="stop-color:#989A9C"/>
	<stop  offset="0.628" style="stop-color:#8A8E91"/>
	<stop  offset="0.9017" style="stop-color:#808589"/>
</linearGradient>
<polygon id="белый_лист_10_" fill="url(#белый_лист_1_)" points="173.2,46.5 117.8,26.8 61.7,5.2 32.7,61.8 
	3.6,122.8 63.2,144.6 114.8,166.3 144.9,106.2 "/>
<g id="текст_10_">
	<polygon fill="#656F75" points="53.4,94.8 29.5,85.7 30.5,83.7 54.3,92.8 	"/>
	<polygon fill="#656F75" points="47.9,106 24.1,96.9 25.1,94.9 48.9,104 	"/>
	<polygon fill="#656F75" points="45.2,111.6 21.4,102.5 22.4,100.5 46.2,109.6 	"/>
	<polygon fill="#656F75" points="50.6,100.4 26.8,91.3 27.8,89.3 51.6,98.4 	"/>
	<polygon fill="#656F75" points="39.7,122.8 15.9,113.7 16.9,111.6 40.7,120.8 	"/>
	<polygon fill="#656F75" points="37,128.4 13.2,119.3 14.2,117.2 38,126.4 	"/>
	<polygon fill="#656F75" points="42.4,117.2 18.6,108.1 19.6,106 43.4,115.2 	"/>
	<polygon fill="#656F75" points="63.8,73.5 40,64.3 41,62.3 64.8,71.5 	"/>
	<polygon fill="#656F75" points="66.5,67.9 42.7,58.8 43.7,56.7 67.5,65.9 	"/>
	<polygon fill="#656F75" points="61,79.1 37.2,69.9 38.2,67.9 62,77.1 	"/>
	<polygon fill="#656F75" points="55.6,90.3 31.8,81.1 32.8,79.1 56.6,88.2 	"/>
	<polygon fill="#656F75" points="94.2,110.5 60.9,97.7 61.9,95.7 95.2,108.5 	"/>
	<polygon fill="#656F75" points="58.3,84.7 34.5,75.5 35.5,73.5 59.3,82.6 	"/>
	<polygon fill="#656F75" points="88.8,121.7 55.5,108.9 56.4,106.9 89.8,119.7 	"/>
	<polygon fill="#656F75" points="86,127.3 52.7,114.5 53.7,112.5 87,125.3 	"/>
	<polygon fill="#656F75" points="91.5,116.1 58.2,103.3 59.2,101.3 92.5,114.1 	"/>
	<polygon fill="#656F75" points="80.6,138.5 47.3,125.7 48.3,123.7 81.6,136.5 	"/>
	<polygon fill="#656F75" points="77.9,144.1 44.5,131.3 45.5,129.3 78.9,142 	"/>
	<polygon fill="#656F75" points="83.3,132.9 50,120.1 51,118.1 84.3,130.9 	"/>
	<polygon fill="#656F75" points="136.2,100.1 112.4,90.9 113.3,88.9 137.1,98.1 	"/>
	<polygon fill="#656F75" points="138.9,94.5 115.1,85.3 116.1,83.3 139.9,92.4 	"/>
	<polygon fill="#656F75" points="133.4,105.7 109.6,96.5 110.6,94.5 134.4,103.6 	"/>
	<polygon fill="#656F75" points="128,116.8 104.2,107.7 105.2,105.7 129,114.8 	"/>
	<polygon fill="#656F75" points="125.2,122.4 101.4,113.3 102.4,111.3 126.2,120.4 	"/>
	<polygon fill="#656F75" points="130.7,111.3 106.9,102.1 107.9,100.1 131.7,109.2 	"/>
	<polygon fill="#656F75" points="119.8,133.6 96,124.5 97,122.5 120.8,131.6 	"/>
	<polygon fill="#656F75" points="117.1,139.2 93.3,130.1 94.2,128 118.1,137.2 	"/>
	<polygon fill="#656F75" points="122.5,128 98.7,118.9 99.7,116.9 123.5,126 	"/>
	<polygon fill="#656F75" points="111.6,150.4 87.8,141.3 88.8,139.2 112.6,148.4 	"/>
	<polygon fill="#656F75" points="108.9,156 85.1,146.8 86.1,144.8 109.9,154 	"/>
	<polygon fill="#656F75" points="114.3,144.8 90.5,135.7 91.5,133.6 115.3,142.8 	"/>
</g>
<polygon id="полоса_10_" fill="#656F75" points="143.2,84.6 48,48.1 49.2,45.6 144.4,82.1 "/>
<polygon fill="#656F75" points="63.4,92.7 74.6,68.6 108.6,80.9 96.4,105.3 "/>
<g>
	<path fill="#000301" d="M75.9,23.6l1.5,4.5l3.2-1.2l0.4,0.8c-1.5,0.5-2.5,1-3,1.4c-0.6,0.5-1.2,1.3-1.8,2.5L71.2,42
		c-0.5,1-0.7,1.7-0.6,2.3c0,0.4,0.2,0.6,0.4,0.7c0.2,0.1,0.9,0,1.9-0.3l0.2,0.9l-6.7,2c-0.8-1.4-1.2-2.5-1.2-3.4
		c0-0.8,0.4-2,1.1-3.6l5.8-11.9l-1-2.8l-5.3,1.5l-5.9,12.1l0.9,2.2l-5.5,1.6l-2.5-4.7l2.5-0.9l5.5-11.1c0.8-1.6,1.1-2.7,1.1-3.4
		c0-0.5-0.2-0.7-0.5-0.9c-0.3-0.1-0.9,0-1.8,0.3l-0.2-0.9l6.7-2c0.9,1.5,1.3,2.5,1.4,3.2c0.1,0.7-0.2,1.5-0.6,2.5l-0.4,0.8
		L75.9,23.6z"/>
	<path fill="#000301" d="M95.2,31.1l2.9,9.6l-13.5,3l-1.9,4l4.3,4l4.7-1l0.2,0.8L82,53.6c-1.1-1.3-2.1-2.4-2.9-3.1
		c-0.8-0.7-2-1.6-3.6-2.6l0.3-0.6c0.7-0.1,1.2-0.3,1.6-0.7c0.4-0.4,0.9-1.3,1.6-2.7l6.1-12.5c1.6,0,3,0.1,4.2,0
		C90.1,31.5,92.1,31.3,95.2,31.1z M90.5,32.2l-0.4,0l-4.9,9.9l7.9-1.7L90.5,32.2z"/>
	<path fill="#000301" d="M118.5,46.3l9.3-2.7c0.9,1.5,1.4,2.7,1.5,3.6c0.1,1.2-0.2,2.6-0.9,3.9l-6.5,13.2c-1.8-0.1-3.4-0.1-4.8,0.1
		c-1.4,0.2-2.8,0.5-4.4,1c-1.8-2.5-3.5-4.1-5.2-4.8c-1.6-0.6-3.6-0.5-5.9,0.5c-0.9-1.8-1.9-3.2-3-4.2c-1.1-1.1-2.4-1.9-4-2.6
		l0.3-0.5c0.8,0,1.5-0.2,2-0.6c0.5-0.4,1.1-1.3,1.8-2.7l4-8.3c0.6-1.3,1-2.1,1-2.4c0.1-0.3,0-0.8-0.2-1.4c-0.3-1-0.4-1.8-0.4-2.4
		c0-0.6,0.2-1.2,0.5-1.9c0.6-1.2,1.5-2.1,2.7-2.8c1.2-0.6,3.1-1,5.5-1.2l0.1,0.7c-2.2,0.5-3.5,1.2-4,2.2c-0.2,0.4-0.2,0.7-0.2,1.1
		c0,0.2,0.3,1,0.7,2.5c0.3,1,0.5,2,0.4,3c0,0.6-0.3,1.4-0.7,2.4l9.1-2.6c0.8,1.2,1.3,2.4,1.5,3.4C119,44.1,118.9,45.2,118.5,46.3z
		 M107.7,43.2l-5.5,11.2l4.6,4.5l5.8-11.9c0.6-1.3,0.9-2.2,0.9-2.8c0-0.6-0.4-1.4-1-2.4L107.7,43.2z M117.9,47.4l-5.3,10.9l4.6,4.5
		l5.9-12.1c0.5-1.1,0.8-1.9,0.8-2.3c0-0.5-0.4-1.3-1-2.5L117.9,47.4z"/>
	<path fill="#000301" d="M142.8,59l3.9,4.7l-4.5,9.2c-1.3-0.4-2.6-0.5-3.9-0.4c-1.3,0.1-2.8,0.5-4.7,1.1c-0.8-1.1-1.5-1.9-2.2-2.5
		c-0.7-0.6-1.5-1-2.4-1.4c-1.4-0.5-2.9-0.6-4.4-0.2c-0.6,0.1-0.9,0.2-1.1,0.1c-0.2-0.1-0.3-0.2-0.4-0.4c-0.1-0.2-0.1-0.4,0-0.6
		c0.1-0.2,0.3-0.4,0.8-0.5c0.3-0.1,0.7-0.3,1.4-0.6l3.3-1.7l4.7-2.6l-3.7-4.5l4-8.1c1.8,0.1,3.3,0.1,4.4-0.1
		c1.2-0.2,2.4-0.7,3.7-1.4c1.5,1.5,2.8,2.7,3.8,3.4c0.7,0.5,1.5,1,2.3,1.3c0.9,0.3,1.6,0.4,2.2,0.2c0.6-0.2,1.1-0.5,1.2-0.9
		c0.1-0.3,0.1-0.6-0.1-1c-0.3-0.7-0.4-1.3-0.2-1.8c0.2-0.5,0.5-0.8,0.9-0.9c0.4-0.2,0.7-0.2,1.1-0.1c0.4,0.2,0.7,0.5,0.9,1
		c0.2,0.5,0.1,1.1-0.2,1.7c-0.3,0.6-0.7,1.2-1.3,1.7c-0.6,0.5-1.5,1.1-2.7,1.7L142.8,59z M138.3,61.5l-8.9,4.9
		c0.8,0,1.5,0.1,2.1,0.2c0.6,0.1,1.2,0.3,1.6,0.5c1.7,0.7,3.3,1.9,4.6,3.7l3.1-6.3L138.3,61.5z M135.4,58l2.3,2.7l8-4.4
		c-1.2-0.1-2.1-0.3-2.8-0.6c-1.9-0.7-3.4-2-4.5-3.9L135.4,58z"/>
</g>
<g>
	<g>
		<path fill="#2C3133" d="M82.6,57.5c1.9,0,2.2-3,0.3-3C81,54.6,80.7,57.5,82.6,57.5L82.6,57.5z"/>
	</g>
</g>
<linearGradient id="SVGID_1_" gradientUnits="userSpaceOnUse" x1="2.6276" y1="88.4656" x2="153.5544" y2="88.4656">
	<stop  offset="0.1008" style="stop-color:#1A2426;stop-opacity:0.6"/>
	<stop  offset="1" style="stop-color:#F5FAFD"/>
</linearGradient>
<polygon fill="url(#SVGID_1_)" points="153.6,24 95.9,21.4 35.2,18.5 23.6,80.8 2.6,149.4 132,158.4 133.8,147.3 143.7,89.2 "/>
<linearGradient id="белый_лист_3_" gradientUnits="userSpaceOnUse" x1="28.8966" y1="81.7276" x2="138.1736" y2="74.0862" gradientTransform="matrix(0.9976 6.980000e-002 -6.980000e-002 0.9976 3.557 3.5967)">
	<stop  offset="0.1245" style="stop-color:#B7BCBF"/>
	<stop  offset="0.1266" style="stop-color:#B7BCBF"/>
	<stop  offset="0.3892" style="stop-color:#C7CED3"/>
	<stop  offset="0.5713" style="stop-color:#B6BDC2"/>
	<stop  offset="0.7918" style="stop-color:#A8AFB4"/>
	<stop  offset="0.9826" style="stop-color:#A3AAAF"/>
</linearGradient>
<polygon id="белый_лист_9_" fill="url(#белый_лист_3_)" points="153.2,24.8 94.4,22.1 34.5,17.9 23.2,80.5 
	13.3,147.3 76.6,150.8 132.3,156.4 143.5,90.2 "/>
<g id="текст_9_">
	<polygon fill="#656F75" points="53.6,105.8 28.2,104 28.5,101.7 54,103.5 	"/>
	<polygon fill="#656F75" points="51.7,118 26.2,116.3 26.6,114 52,115.8 	"/>
	<polygon fill="#656F75" points="50.7,124.2 25.3,122.4 25.6,120.2 51.1,122 	"/>
	<polygon fill="#656F75" points="52.7,111.9 27.2,110.1 27.6,107.9 53,109.7 	"/>
	<polygon fill="#656F75" points="48.8,136.5 23.3,134.7 23.7,132.5 49.1,134.3 	"/>
	<polygon fill="#656F75" points="47.8,142.6 22.3,140.8 22.7,138.6 48.1,140.4 	"/>
	<polygon fill="#656F75" points="49.7,130.3 24.3,128.6 24.6,126.3 50.1,128.1 	"/>
	<polygon fill="#656F75" points="57.3,82.3 31.9,80.5 32.3,78.3 57.7,80.1 	"/>
	<polygon fill="#656F75" points="58.3,76.1 32.9,74.4 33.2,72.1 58.7,73.9 	"/>
	<polygon fill="#656F75" points="56.4,88.4 30.9,86.7 31.3,84.4 56.7,86.2 	"/>
	<polygon fill="#656F75" points="54.4,100.7 29,98.9 29.3,96.7 54.8,98.5 	"/>
	<polygon fill="#656F75" points="97.3,108.8 61.7,106.3 62,104.1 97.6,106.6 	"/>
	<polygon fill="#656F75" points="55.4,94.6 30,92.8 30.3,90.6 55.7,92.4 	"/>
	<polygon fill="#656F75" points="95.3,121.1 59.7,118.6 60.1,116.4 95.7,118.9 	"/>
	<polygon fill="#656F75" points="94.4,127.3 58.8,124.8 59.1,122.5 94.7,125 	"/>
	<polygon fill="#656F75" points="96.3,115 60.7,112.5 61.1,110.2 96.7,112.7 	"/>
	<polygon fill="#656F75" points="92.4,139.5 56.8,137 57.2,134.8 92.8,137.3 	"/>
	<polygon fill="#656F75" points="91.5,145.7 55.9,143.2 56.2,141 91.8,143.4 	"/>
	<polygon fill="#656F75" points="93.4,133.4 57.8,130.9 58.1,128.7 93.8,131.2 	"/>
	<polygon fill="#656F75" points="134.3,86.6 108.9,84.8 109.3,82.6 134.7,84.3 	"/>
	<polygon fill="#656F75" points="135.3,80.4 109.9,78.6 110.2,76.4 135.7,78.2 	"/>
	<polygon fill="#656F75" points="133.4,92.7 107.9,90.9 108.3,88.7 133.7,90.5 	"/>
	<polygon fill="#656F75" points="131.4,105 106,103.2 106.3,101 131.8,102.8 	"/>
	<polygon fill="#656F75" points="130.4,111.1 105,109.4 105.4,107.1 130.8,108.9 	"/>
	<polygon fill="#656F75" points="132.4,98.8 107,97.1 107.3,94.8 132.7,96.6 	"/>
	<polygon fill="#656F75" points="128.5,123.4 103.1,121.6 103.4,119.4 128.9,121.2 	"/>
	<polygon fill="#656F75" points="127.5,129.6 102.1,127.8 102.4,125.6 127.9,127.3 	"/>
	<polygon fill="#656F75" points="129.5,117.3 104,115.5 104.4,113.3 129.8,115.1 	"/>
	<polygon fill="#656F75" points="125.6,141.9 100.1,140.1 100.5,137.9 125.9,139.6 	"/>
	<polygon fill="#656F75" points="124.6,148 99.2,146.2 99.5,144 125,145.8 	"/>
	<polygon fill="#656F75" points="126.6,135.7 101.1,133.9 101.5,131.7 126.9,133.5 	"/>
</g>
<polygon id="полоса_9_" fill="#656F75" points="136.5,69.7 34.8,62.6 35.2,59.9 137,67 "/>
<polygon fill="#656F75" points="62.6,100.7 66.3,74.5 102.4,76.3 97.9,103.2 "/>
<g>
	<path fill="#000301" d="M54.4,31.1l2.7,3.8l2.7-2.1l0.6,0.7c-1.3,0.9-2.1,1.7-2.4,2.2c-0.4,0.7-0.8,1.6-1,2.9L55.2,50
		c-0.2,1.1-0.1,1.9,0.1,2.4c0.2,0.4,0.4,0.5,0.6,0.6c0.2,0,0.8-0.3,1.8-0.8l0.5,0.8l-5.9,3.9c-1.2-1.1-1.9-2.1-2.2-2.9
		c-0.2-0.8-0.2-2.1,0-3.8L52.3,37l-1.8-2.4l-4.6,3L43.7,51l1.5,1.8l-4.8,3.1l-3.7-3.8l2.1-1.6l2-12.2c0.3-1.7,0.3-2.9,0-3.6
		c-0.2-0.4-0.4-0.7-0.7-0.7c-0.3,0-0.9,0.3-1.6,0.8L38,34.2l5.8-3.9c1.2,1.1,2,2,2.3,2.7c0.3,0.6,0.3,1.5,0.1,2.6l-0.1,0.9
		L54.4,31.1z"/>
	<path fill="#000301" d="M75,32.5l5.5,8.4l-12,6.8L67.8,52l5.3,2.6l4.2-2.3l0.4,0.7L69,58c-1.5-1-2.7-1.7-3.7-2.1
		c-1-0.4-2.4-0.9-4.2-1.5l0.1-0.6c0.6-0.3,1-0.6,1.3-1.1c0.3-0.5,0.5-1.5,0.8-3.1l2.2-13.7c1.6-0.4,2.9-0.8,4-1.2
		C70.3,34.4,72.1,33.7,75,32.5z M70.9,35l-0.4,0.1l-1.7,10.9l7.1-4L70.9,35z"/>
	<path fill="#000301" d="M101.7,40.3l8.1-5.3c1.3,1.2,2.2,2.2,2.5,3.1c0.4,1.2,0.6,2.5,0.3,4l-2.3,14.5c-1.8,0.4-3.3,0.9-4.6,1.5
		c-1.3,0.6-2.6,1.3-3.9,2.3c-2.4-1.9-4.6-2.9-6.4-3.1c-1.7-0.1-3.6,0.6-5.5,2.2c-1.4-1.4-2.8-2.5-4.1-3.2c-1.4-0.7-2.9-1.1-4.6-1.3
		l0.1-0.6c0.8-0.2,1.3-0.6,1.7-1.1c0.4-0.5,0.7-1.5,0.9-3.1l1.5-9.1c0.2-1.4,0.3-2.3,0.3-2.6c0-0.3-0.2-0.7-0.6-1.3
		c-0.6-0.9-0.9-1.6-1.1-2.2c-0.1-0.6-0.2-1.2,0-2c0.2-1.3,0.8-2.5,1.8-3.4c1-1,2.6-1.9,4.9-2.7l0.3,0.6c-1.9,1.1-3,2.2-3.2,3.3
		c-0.1,0.4,0,0.8,0.1,1.1c0.1,0.2,0.5,0.9,1.4,2.2c0.6,0.8,1,1.7,1.3,2.7c0.1,0.6,0.2,1.4,0.1,2.5l7.9-5.1c1.1,0.9,2,1.9,2.4,2.8
		C101.5,38,101.8,39.1,101.7,40.3z M90.5,40.5l-2,12.3l5.7,3l2.1-13.1c0.2-1.4,0.2-2.4,0-2.9c-0.2-0.6-0.8-1.2-1.7-2L90.5,40.5z
		 M101.5,41.5l-1.9,12l5.7,3l2.1-13.3c0.2-1.2,0.2-2,0-2.5c-0.2-0.5-0.7-1.2-1.7-2.1L101.5,41.5z"/>
	<path fill="#000301" d="M128.6,45.4l5.1,3.3l-1.6,10.1c-1.4,0-2.6,0.3-3.8,0.7c-1.2,0.5-2.6,1.3-4.2,2.4c-1.1-0.8-2-1.4-2.9-1.7
		c-0.8-0.3-1.7-0.5-2.7-0.6c-1.5-0.1-2.9,0.3-4.2,1.1c-0.5,0.3-0.8,0.4-1,0.4c-0.2,0-0.3-0.1-0.5-0.3c-0.2-0.2-0.2-0.4-0.2-0.5
		c0-0.2,0.2-0.4,0.6-0.7c0.2-0.2,0.6-0.5,1.2-1l2.6-2.6l3.8-3.9l-4.8-3.2l1.4-9c1.7-0.4,3.1-0.9,4.2-1.4c1-0.6,2.1-1.4,3.1-2.4
		c1.9,1,3.5,1.7,4.7,2.2c0.9,0.3,1.7,0.5,2.5,0.5c0.9,0.1,1.6-0.1,2.2-0.4c0.6-0.4,0.9-0.8,0.9-1.2c0-0.3-0.1-0.6-0.3-0.9
		c-0.5-0.6-0.8-1.2-0.7-1.7c0.1-0.5,0.3-0.9,0.6-1.2c0.3-0.3,0.6-0.4,1-0.4c0.5,0,0.8,0.3,1.1,0.7c0.3,0.4,0.4,1,0.3,1.6
		c-0.1,0.7-0.4,1.4-0.8,2c-0.4,0.6-1.1,1.4-2.1,2.4L128.6,45.4z M125.1,49l-7.1,7.3c0.8-0.2,1.4-0.3,2.1-0.4c0.6-0.1,1.2-0.1,1.7,0
		c1.9,0.1,3.7,0.9,5.5,2.2l1.1-7L125.1,49z M121.3,46.5l3,1.9l6.4-6.6c-1.1,0.2-2.1,0.3-2.9,0.3c-2-0.1-3.8-0.9-5.5-2.4L121.3,46.5z
		"/>
</g>
<linearGradient id="SVGID_2_" gradientUnits="userSpaceOnUse" x1="9.5656" y1="87.6894" x2="156.8791" y2="87.6894">
	<stop  offset="0.1008" style="stop-color:#1A2426"/>
	<stop  offset="1" style="stop-color:#F5FAFD"/>
</linearGradient>
<polygon fill="url(#SVGID_2_)" points="156.9,24 99.2,21.4 35.5,17 23.9,79.2 9.6,149.6 135.3,158.4 137.2,147.3 147,89.2 "/>
<linearGradient id="белый_лист_4_" gradientUnits="userSpaceOnUse" x1="28.8966" y1="81.7276" x2="138.1736" y2="74.0862" gradientTransform="matrix(0.9976 6.980000e-002 -6.980000e-002 0.9976 3.557 3.5967)">
	<stop  offset="0.1245" style="stop-color:#B7BCBF"/>
	<stop  offset="0.1266" style="stop-color:#B7BCBF"/>
	<stop  offset="0.3892" style="stop-color:#C7CED3"/>
	<stop  offset="0.5713" style="stop-color:#B6BDC2"/>
	<stop  offset="0.7918" style="stop-color:#A8AFB4"/>
	<stop  offset="0.9826" style="stop-color:#A3AAAF"/>
</linearGradient>
<polygon id="белый_лист_8_" fill="url(#белый_лист_4_)" points="153.2,24.8 94.4,22.1 34.5,17.9 23.2,80.5 
	13.3,147.3 76.6,150.8 132.3,156.4 143.5,90.2 "/>
<g id="текст_8_">
	<polygon fill="#656F75" points="53.6,105.8 28.2,104 28.5,101.7 54,103.5 	"/>
	<polygon fill="#656F75" points="51.7,118 26.2,116.3 26.6,114 52,115.8 	"/>
	<polygon fill="#656F75" points="50.7,124.2 25.3,122.4 25.6,120.2 51.1,122 	"/>
	<polygon fill="#656F75" points="52.7,111.9 27.2,110.1 27.6,107.9 53,109.7 	"/>
	<polygon fill="#656F75" points="48.8,136.5 23.3,134.7 23.7,132.5 49.1,134.3 	"/>
	<polygon fill="#656F75" points="47.8,142.6 22.3,140.8 22.7,138.6 48.1,140.4 	"/>
	<polygon fill="#656F75" points="49.7,130.3 24.3,128.6 24.6,126.3 50.1,128.1 	"/>
	<polygon fill="#656F75" points="57.3,82.3 31.9,80.5 32.3,78.3 57.7,80.1 	"/>
	<polygon fill="#656F75" points="58.3,76.1 32.9,74.4 33.2,72.1 58.7,73.9 	"/>
	<polygon fill="#656F75" points="56.4,88.4 30.9,86.7 31.3,84.4 56.7,86.2 	"/>
	<polygon fill="#656F75" points="54.4,100.7 29,98.9 29.3,96.7 54.8,98.5 	"/>
	<polygon fill="#656F75" points="97.3,108.8 61.7,106.3 62,104.1 97.6,106.6 	"/>
	<polygon fill="#656F75" points="55.4,94.6 30,92.8 30.3,90.6 55.7,92.4 	"/>
	<polygon fill="#656F75" points="95.3,121.1 59.7,118.6 60.1,116.4 95.7,118.9 	"/>
	<polygon fill="#656F75" points="94.4,127.3 58.8,124.8 59.1,122.5 94.7,125 	"/>
	<polygon fill="#656F75" points="96.3,115 60.7,112.5 61.1,110.2 96.7,112.7 	"/>
	<polygon fill="#656F75" points="92.4,139.5 56.8,137 57.2,134.8 92.8,137.3 	"/>
	<polygon fill="#656F75" points="91.5,145.7 55.9,143.2 56.2,141 91.8,143.4 	"/>
	<polygon fill="#656F75" points="93.4,133.4 57.8,130.9 58.1,128.7 93.8,131.2 	"/>
	<polygon fill="#656F75" points="134.3,86.6 108.9,84.8 109.3,82.6 134.7,84.3 	"/>
	<polygon fill="#656F75" points="135.3,80.4 109.9,78.6 110.2,76.4 135.7,78.2 	"/>
	<polygon fill="#656F75" points="133.4,92.7 107.9,90.9 108.3,88.7 133.7,90.5 	"/>
	<polygon fill="#656F75" points="131.4,105 106,103.2 106.3,101 131.8,102.8 	"/>
	<polygon fill="#656F75" points="130.4,111.1 105,109.4 105.4,107.1 130.8,108.9 	"/>
	<polygon fill="#656F75" points="132.4,98.8 107,97.1 107.3,94.8 132.7,96.6 	"/>
	<polygon fill="#656F75" points="128.5,123.4 103.1,121.6 103.4,119.4 128.9,121.2 	"/>
	<polygon fill="#656F75" points="127.5,129.6 102.1,127.8 102.4,125.6 127.9,127.3 	"/>
	<polygon fill="#656F75" points="129.5,117.3 104,115.5 104.4,113.3 129.8,115.1 	"/>
	<polygon fill="#656F75" points="125.6,141.9 100.1,140.1 100.5,137.9 125.9,139.6 	"/>
	<polygon fill="#656F75" points="124.6,148 99.2,146.2 99.5,144 125,145.8 	"/>
	<polygon fill="#656F75" points="126.6,135.7 101.1,133.9 101.5,131.7 126.9,133.5 	"/>
</g>
<polygon id="полоса_8_" fill="#656F75" points="136.5,69.7 34.8,62.6 35.2,59.9 137,67 "/>
<polygon fill="#656F75" points="62.6,100.7 66.3,74.5 102.4,76.3 97.9,103.2 "/>
<g>
	<path fill="#000301" d="M54.4,31.1l2.7,3.8l2.7-2.1l0.6,0.7c-1.3,0.9-2.1,1.7-2.4,2.2c-0.4,0.7-0.8,1.6-1,2.9L55.2,50
		c-0.2,1.1-0.1,1.9,0.1,2.4c0.2,0.4,0.4,0.5,0.6,0.6c0.2,0,0.8-0.3,1.8-0.8l0.5,0.8l-5.9,3.9c-1.2-1.1-1.9-2.1-2.2-2.9
		c-0.2-0.8-0.2-2.1,0-3.8L52.3,37l-1.8-2.4l-4.6,3L43.7,51l1.5,1.8l-4.8,3.1l-3.7-3.8l2.1-1.6l2-12.2c0.3-1.7,0.3-2.9,0-3.6
		c-0.2-0.4-0.4-0.7-0.7-0.7c-0.3,0-0.9,0.3-1.6,0.8L38,34.2l5.8-3.9c1.2,1.1,2,2,2.3,2.7c0.3,0.6,0.3,1.5,0.1,2.6l-0.1,0.9
		L54.4,31.1z"/>
	<path fill="#000301" d="M75,32.5l5.5,8.4l-12,6.8L67.8,52l5.3,2.6l4.2-2.3l0.4,0.7L69,58c-1.5-1-2.7-1.7-3.7-2.1
		c-1-0.4-2.4-0.9-4.2-1.5l0.1-0.6c0.6-0.3,1-0.6,1.3-1.1c0.3-0.5,0.5-1.5,0.8-3.1l2.2-13.7c1.6-0.4,2.9-0.8,4-1.2
		C70.3,34.4,72.1,33.7,75,32.5z M70.9,35l-0.4,0.1l-1.7,10.9l7.1-4L70.9,35z"/>
	<path fill="#000301" d="M101.7,40.3l8.1-5.3c1.3,1.2,2.2,2.2,2.5,3.1c0.4,1.2,0.6,2.5,0.3,4l-2.3,14.5c-1.8,0.4-3.3,0.9-4.6,1.5
		c-1.3,0.6-2.6,1.3-3.9,2.3c-2.4-1.9-4.6-2.9-6.4-3.1c-1.7-0.1-3.6,0.6-5.5,2.2c-1.4-1.4-2.8-2.5-4.1-3.2c-1.4-0.7-2.9-1.1-4.6-1.3
		l0.1-0.6c0.8-0.2,1.3-0.6,1.7-1.1c0.4-0.5,0.7-1.5,0.9-3.1l1.5-9.1c0.2-1.4,0.3-2.3,0.3-2.6c0-0.3-0.2-0.7-0.6-1.3
		c-0.6-0.9-0.9-1.6-1.1-2.2c-0.1-0.6-0.2-1.2,0-2c0.2-1.3,0.8-2.5,1.8-3.4c1-1,2.6-1.9,4.9-2.7l0.3,0.6c-1.9,1.1-3,2.2-3.2,3.3
		c-0.1,0.4,0,0.8,0.1,1.1c0.1,0.2,0.5,0.9,1.4,2.2c0.6,0.8,1,1.7,1.3,2.7c0.1,0.6,0.2,1.4,0.1,2.5l7.9-5.1c1.1,0.9,2,1.9,2.4,2.8
		C101.5,38,101.8,39.1,101.7,40.3z M90.5,40.5l-2,12.3l5.7,3l2.1-13.1c0.2-1.4,0.2-2.4,0-2.9c-0.2-0.6-0.8-1.2-1.7-2L90.5,40.5z
		 M101.5,41.5l-1.9,12l5.7,3l2.1-13.3c0.2-1.2,0.2-2,0-2.5c-0.2-0.5-0.7-1.2-1.7-2.1L101.5,41.5z"/>
	<path fill="#000301" d="M128.6,45.4l5.1,3.3l-1.6,10.1c-1.4,0-2.6,0.3-3.8,0.7c-1.2,0.5-2.6,1.3-4.2,2.4c-1.1-0.8-2-1.4-2.9-1.7
		c-0.8-0.3-1.7-0.5-2.7-0.6c-1.5-0.1-2.9,0.3-4.2,1.1c-0.5,0.3-0.8,0.4-1,0.4c-0.2,0-0.3-0.1-0.5-0.3c-0.2-0.2-0.2-0.4-0.2-0.5
		c0-0.2,0.2-0.4,0.6-0.7c0.2-0.2,0.6-0.5,1.2-1l2.6-2.6l3.8-3.9l-4.8-3.2l1.4-9c1.7-0.4,3.1-0.9,4.2-1.4c1-0.6,2.1-1.4,3.1-2.4
		c1.9,1,3.5,1.7,4.7,2.2c0.9,0.3,1.7,0.5,2.5,0.5c0.9,0.1,1.6-0.1,2.2-0.4c0.6-0.4,0.9-0.8,0.9-1.2c0-0.3-0.1-0.6-0.3-0.9
		c-0.5-0.6-0.8-1.2-0.7-1.7c0.1-0.5,0.3-0.9,0.6-1.2c0.3-0.3,0.6-0.4,1-0.4c0.5,0,0.8,0.3,1.1,0.7c0.3,0.4,0.4,1,0.3,1.6
		c-0.1,0.7-0.4,1.4-0.8,2c-0.4,0.6-1.1,1.4-2.1,2.4L128.6,45.4z M125.1,49l-7.1,7.3c0.8-0.2,1.4-0.3,2.1-0.4c0.6-0.1,1.2-0.1,1.7,0
		c1.9,0.1,3.7,0.9,5.5,2.2l1.1-7L125.1,49z M121.3,46.5l3,1.9l6.4-6.6c-1.1,0.2-2.1,0.3-2.9,0.3c-2-0.1-3.8-0.9-5.5-2.4L121.3,46.5z
		"/>
</g>
<polygon fill="#656F75" points="62.6,100.7 66.3,74.5 102.4,76.3 97.9,103.2 "/>
<linearGradient id="белый_лист_5_" gradientUnits="userSpaceOnUse" x1="28.8966" y1="81.7276" x2="138.1736" y2="74.0862" gradientTransform="matrix(0.9976 6.980000e-002 -6.980000e-002 0.9976 3.557 3.5967)">
	<stop  offset="0.1245" style="stop-color:#B7BCBF"/>
	<stop  offset="0.1266" style="stop-color:#B7BCBF"/>
	<stop  offset="0.3892" style="stop-color:#C7CED3"/>
	<stop  offset="0.5713" style="stop-color:#B6BDC2"/>
	<stop  offset="0.7918" style="stop-color:#A8AFB4"/>
	<stop  offset="0.9826" style="stop-color:#A3AAAF"/>
</linearGradient>
<polygon id="белый_лист_2_" fill="url(#белый_лист_5_)" points="153.2,24.8 94.4,22.1 34.5,17.9 23.2,80.5 
	13.3,147.3 76.6,150.8 132.3,156.4 143.5,90.2 "/>
<g id="текст_2_">
	<polygon fill="#656F75" points="53.6,105.8 28.2,104 28.5,101.7 54,103.5 	"/>
	<polygon fill="#656F75" points="51.7,118 26.2,116.3 26.6,114 52,115.8 	"/>
	<polygon fill="#656F75" points="50.7,124.2 25.3,122.4 25.6,120.2 51.1,122 	"/>
	<polygon fill="#656F75" points="52.7,111.9 27.2,110.1 27.6,107.9 53,109.7 	"/>
	<polygon fill="#656F75" points="48.8,136.5 23.3,134.7 23.7,132.5 49.1,134.3 	"/>
	<polygon fill="#656F75" points="47.8,142.6 22.3,140.8 22.7,138.6 48.1,140.4 	"/>
	<polygon fill="#656F75" points="49.7,130.3 24.3,128.6 24.6,126.3 50.1,128.1 	"/>
	<polygon fill="#656F75" points="57.3,82.3 31.9,80.5 32.3,78.3 57.7,80.1 	"/>
	<polygon fill="#656F75" points="58.3,76.1 32.9,74.4 33.2,72.1 58.7,73.9 	"/>
	<polygon fill="#656F75" points="56.4,88.4 30.9,86.7 31.3,84.4 56.7,86.2 	"/>
	<polygon fill="#656F75" points="54.4,100.7 29,98.9 29.3,96.7 54.8,98.5 	"/>
	<polygon fill="#656F75" points="97.3,108.8 61.7,106.3 62,104.1 97.6,106.6 	"/>
	<polygon fill="#656F75" points="55.4,94.6 30,92.8 30.3,90.6 55.7,92.4 	"/>
	<polygon fill="#656F75" points="95.3,121.1 59.7,118.6 60.1,116.4 95.7,118.9 	"/>
	<polygon fill="#656F75" points="94.4,127.3 58.8,124.8 59.1,122.5 94.7,125 	"/>
	<polygon fill="#656F75" points="96.3,115 60.7,112.5 61.1,110.2 96.7,112.7 	"/>
	<polygon fill="#656F75" points="92.4,139.5 56.8,137 57.2,134.8 92.8,137.3 	"/>
	<polygon fill="#656F75" points="91.5,145.7 55.9,143.2 56.2,141 91.8,143.4 	"/>
	<polygon fill="#656F75" points="93.4,133.4 57.8,130.9 58.1,128.7 93.8,131.2 	"/>
	<polygon fill="#656F75" points="134.3,86.6 108.9,84.8 109.3,82.6 134.7,84.3 	"/>
	<polygon fill="#656F75" points="135.3,80.4 109.9,78.6 110.2,76.4 135.7,78.2 	"/>
	<polygon fill="#656F75" points="133.4,92.7 107.9,90.9 108.3,88.7 133.7,90.5 	"/>
	<polygon fill="#656F75" points="131.4,105 106,103.2 106.3,101 131.8,102.8 	"/>
	<polygon fill="#656F75" points="130.4,111.1 105,109.4 105.4,107.1 130.8,108.9 	"/>
	<polygon fill="#656F75" points="132.4,98.8 107,97.1 107.3,94.8 132.7,96.6 	"/>
	<polygon fill="#656F75" points="128.5,123.4 103.1,121.6 103.4,119.4 128.9,121.2 	"/>
	<polygon fill="#656F75" points="127.5,129.6 102.1,127.8 102.4,125.6 127.9,127.3 	"/>
	<polygon fill="#656F75" points="129.5,117.3 104,115.5 104.4,113.3 129.8,115.1 	"/>
	<polygon fill="#656F75" points="125.6,141.9 100.1,140.1 100.5,137.9 125.9,139.6 	"/>
	<polygon fill="#656F75" points="124.6,148 99.2,146.2 99.5,144 125,145.8 	"/>
	<polygon fill="#656F75" points="126.6,135.7 101.1,133.9 101.5,131.7 126.9,133.5 	"/>
</g>
<polygon id="полоса_2_" fill="#656F75" points="136.5,69.7 34.8,62.6 35.2,59.9 137,67 "/>
<polygon fill="#656F75" points="62.6,100.7 66.3,74.5 102.4,76.3 97.9,103.2 "/>
<g>
	<path fill="#000301" d="M54.4,31.1l2.7,3.8l2.7-2.1l0.6,0.7c-1.3,0.9-2.1,1.7-2.4,2.2c-0.4,0.7-0.8,1.6-1,2.9L55.2,50
		c-0.2,1.1-0.1,1.9,0.1,2.4c0.2,0.4,0.4,0.5,0.6,0.6c0.2,0,0.8-0.3,1.8-0.8l0.5,0.8l-5.9,3.9c-1.2-1.1-1.9-2.1-2.2-2.9
		c-0.2-0.8-0.2-2.1,0-3.8L52.3,37l-1.8-2.4l-4.6,3L43.7,51l1.5,1.8l-4.8,3.1l-3.7-3.8l2.1-1.6l2-12.2c0.3-1.7,0.3-2.9,0-3.6
		c-0.2-0.4-0.4-0.7-0.7-0.7c-0.3,0-0.9,0.3-1.6,0.8L38,34.2l5.8-3.9c1.2,1.1,2,2,2.3,2.7c0.3,0.6,0.3,1.5,0.1,2.6l-0.1,0.9
		L54.4,31.1z"/>
	<path fill="#000301" d="M75,32.5l5.5,8.4l-12,6.8L67.8,52l5.3,2.6l4.2-2.3l0.4,0.7L69,58c-1.5-1-2.7-1.7-3.7-2.1
		c-1-0.4-2.4-0.9-4.2-1.5l0.1-0.6c0.6-0.3,1-0.6,1.3-1.1c0.3-0.5,0.5-1.5,0.8-3.1l2.2-13.7c1.6-0.4,2.9-0.8,4-1.2
		C70.3,34.4,72.1,33.7,75,32.5z M70.9,35l-0.4,0.1l-1.7,10.9l7.1-4L70.9,35z"/>
	<path fill="#000301" d="M101.7,40.3l8.1-5.3c1.3,1.2,2.2,2.2,2.5,3.1c0.4,1.2,0.6,2.5,0.3,4l-2.3,14.5c-1.8,0.4-3.3,0.9-4.6,1.5
		c-1.3,0.6-2.6,1.3-3.9,2.3c-2.4-1.9-4.6-2.9-6.4-3.1c-1.7-0.1-3.6,0.6-5.5,2.2c-1.4-1.4-2.8-2.5-4.1-3.2c-1.4-0.7-2.9-1.1-4.6-1.3
		l0.1-0.6c0.8-0.2,1.3-0.6,1.7-1.1c0.4-0.5,0.7-1.5,0.9-3.1l1.5-9.1c0.2-1.4,0.3-2.3,0.3-2.6c0-0.3-0.2-0.7-0.6-1.3
		c-0.6-0.9-0.9-1.6-1.1-2.2c-0.1-0.6-0.2-1.2,0-2c0.2-1.3,0.8-2.5,1.8-3.4c1-1,2.6-1.9,4.9-2.7l0.3,0.6c-1.9,1.1-3,2.2-3.2,3.3
		c-0.1,0.4,0,0.8,0.1,1.1c0.1,0.2,0.5,0.9,1.4,2.2c0.6,0.8,1,1.7,1.3,2.7c0.1,0.6,0.2,1.4,0.1,2.5l7.9-5.1c1.1,0.9,2,1.9,2.4,2.8
		C101.5,38,101.8,39.1,101.7,40.3z M90.5,40.5l-2,12.3l5.7,3l2.1-13.1c0.2-1.4,0.2-2.4,0-2.9c-0.2-0.6-0.8-1.2-1.7-2L90.5,40.5z
		 M101.5,41.5l-1.9,12l5.7,3l2.1-13.3c0.2-1.2,0.2-2,0-2.5c-0.2-0.5-0.7-1.2-1.7-2.1L101.5,41.5z"/>
	<path fill="#000301" d="M128.6,45.4l5.1,3.3l-1.6,10.1c-1.4,0-2.6,0.3-3.8,0.7c-1.2,0.5-2.6,1.3-4.2,2.4c-1.1-0.8-2-1.4-2.9-1.7
		c-0.8-0.3-1.7-0.5-2.7-0.6c-1.5-0.1-2.9,0.3-4.2,1.1c-0.5,0.3-0.8,0.4-1,0.4c-0.2,0-0.3-0.1-0.5-0.3c-0.2-0.2-0.2-0.4-0.2-0.5
		c0-0.2,0.2-0.4,0.6-0.7c0.2-0.2,0.6-0.5,1.2-1l2.6-2.6l3.8-3.9l-4.8-3.2l1.4-9c1.7-0.4,3.1-0.9,4.2-1.4c1-0.6,2.1-1.4,3.1-2.4
		c1.9,1,3.5,1.7,4.7,2.2c0.9,0.3,1.7,0.5,2.5,0.5c0.9,0.1,1.6-0.1,2.2-0.4c0.6-0.4,0.9-0.8,0.9-1.2c0-0.3-0.1-0.6-0.3-0.9
		c-0.5-0.6-0.8-1.2-0.7-1.7c0.1-0.5,0.3-0.9,0.6-1.2c0.3-0.3,0.6-0.4,1-0.4c0.5,0,0.8,0.3,1.1,0.7c0.3,0.4,0.4,1,0.3,1.6
		c-0.1,0.7-0.4,1.4-0.8,2c-0.4,0.6-1.1,1.4-2.1,2.4L128.6,45.4z M125.1,49l-7.1,7.3c0.8-0.2,1.4-0.3,2.1-0.4c0.6-0.1,1.2-0.1,1.7,0
		c1.9,0.1,3.7,0.9,5.5,2.2l1.1-7L125.1,49z M121.3,46.5l3,1.9l6.4-6.6c-1.1,0.2-2.1,0.3-2.9,0.3c-2-0.1-3.8-0.9-5.5-2.4L121.3,46.5z
		"/>
</g>
<linearGradient id="SVGID_3_" gradientUnits="userSpaceOnUse" x1="42.3483" y1="103.0111" x2="74.8146" y2="103.0111">
	<stop  offset="0" style="stop-color:#1D2727;stop-opacity:0.6"/>
	<stop  offset="0.4316" style="stop-color:#262B28;stop-opacity:0.7726"/>
	<stop  offset="1" style="stop-color:#2E2E29"/>
</linearGradient>
<path fill="url(#SVGID_3_)" d="M51.4,36.4c0,0,1.2-0.1,0.5,0c-1.5,0.2-5.7,1.1-6.9,5c-1.7,5.6-2.7,128.3-2.7,128.3
	s32.3-1.2,32.5-11.4c0.1-10.2-0.7-77.9-8.6-92.5"/>
<linearGradient id="SVGID_4_" gradientUnits="userSpaceOnUse" x1="40.3791" y1="92.4702" x2="172.4001" y2="92.4702">
	<stop  offset="0" style="stop-color:#16190B"/>
	<stop  offset="0.9951" style="stop-color:#1B1D15"/>
</linearGradient>
<polygon fill="url(#SVGID_4_)" points="160.2,15.4 103.6,27.5 40.4,35.9 43.1,99.1 48,160.2 48.7,169.6 172.4,154.2 "/>
<polygon fill="#F5FAFC" points="56.3,164.3 167.1,143.2 168.5,151.2 56.6,167.2 "/>
<polygon fill="#2C3133" points="57,163.2 162.7,103.8 168,148 57.3,166.2 "/>
<linearGradient id="белый_лист_7_" gradientUnits="userSpaceOnUse" x1="93.7142" y1="169.1121" x2="112.8047" y2="48.5793" gradientTransform="matrix(0.9877 -0.1564 0.1564 0.9877 -9.4006 0.8923)">
	<stop  offset="0.1245" style="stop-color:#979B9D"/>
	<stop  offset="0.1454" style="stop-color:#A5AAAC"/>
	<stop  offset="0.1987" style="stop-color:#C5C9CC"/>
	<stop  offset="0.2501" style="stop-color:#DCE0E3"/>
	<stop  offset="0.2983" style="stop-color:#E9EEF1"/>
	<stop  offset="0.3399" style="stop-color:#EEF3F6"/>
	<stop  offset="0.4126" style="stop-color:#EFF4F7"/>
	<stop  offset="1" style="stop-color:#F7FBFF"/>
</linearGradient>
<polygon id="белый_лист_6_" fill="url(#белый_лист_7_)" points="163.1,12.3 105.4,24.6 45.5,35.8 49,95.9 
	55.4,168.2 173.7,148.7 "/>
<g id="текст_6_">
	<polygon fill="#656F75" points="81.9,116.1 56.7,120.1 56.6,117.8 81.8,113.8 	"/>
	<polygon fill="#656F75" points="82.8,128.5 57.6,132.5 57.4,130.2 82.6,126.2 	"/>
	<polygon fill="#656F75" points="83.2,134.7 58,138.7 57.9,136.4 83.1,132.4 	"/>
	<polygon fill="#656F75" points="82.4,122.3 57.2,126.3 57,124 82.2,120 	"/>
	<polygon fill="#656F75" points="84.1,147.1 58.9,151.1 58.7,148.8 83.9,144.8 	"/>
	<polygon fill="#656F75" points="84.5,153.3 59.3,157.3 59.2,155 84.4,151 	"/>
	<polygon fill="#656F75" points="83.7,140.9 58.5,144.9 58.3,142.6 83.5,138.6 	"/>
	<polygon fill="#656F75" points="80.3,92.4 55.1,96.3 54.9,94.1 80.1,90.1 	"/>
	<polygon fill="#656F75" points="79.8,86.2 54.6,90.1 54.5,87.9 79.7,83.9 	"/>
	<polygon fill="#656F75" points="80.7,98.6 55.5,102.5 55.4,100.3 80.5,96.3 	"/>
	<polygon fill="#656F75" points="81.6,111 56.4,115 56.2,112.7 81.4,108.7 	"/>
	<polygon fill="#656F75" points="125.2,109.2 89.9,114.8 89.7,112.5 125,107 	"/>
	<polygon fill="#656F75" points="81.1,104.8 55.9,108.8 55.8,106.5 81,102.5 	"/>
	<polygon fill="#656F75" points="126,121.6 90.8,127.2 90.6,125 125.9,119.4 	"/>
	<polygon fill="#656F75" points="126.5,127.8 91.2,133.4 91.1,131.2 126.3,125.6 	"/>
	<polygon fill="#656F75" points="125.6,115.4 90.3,121 90.2,118.8 125.4,113.2 	"/>
	<polygon fill="#656F75" points="127.3,140.2 92.1,145.8 91.9,143.6 127.2,138 	"/>
	<polygon fill="#656F75" points="127.8,146.4 92.5,152 92.4,149.8 127.6,144.2 	"/>
	<polygon fill="#656F75" points="126.9,134 91.6,139.6 91.5,137.4 126.7,131.8 	"/>
	<polygon fill="#656F75" points="156.2,79.2 131.1,83.2 130.9,80.9 156.1,76.9 	"/>
	<polygon fill="#656F75" points="155.8,73 130.6,77 130.5,74.7 155.7,70.7 	"/>
	<polygon fill="#656F75" points="156.7,85.4 131.5,89.4 131.3,87.1 156.5,83.1 	"/>
	<polygon fill="#656F75" points="157.5,97.8 132.4,101.8 132.2,99.5 157.4,95.6 	"/>
	<polygon fill="#656F75" points="158,104 132.8,108 132.6,105.7 157.8,101.8 	"/>
	<polygon fill="#656F75" points="157.1,91.6 131.9,95.6 131.8,93.3 157,89.4 	"/>
	<polygon fill="#656F75" points="158.8,116.4 133.7,120.4 133.5,118.2 158.7,114.2 	"/>
	<polygon fill="#656F75" points="159.3,122.6 134.1,126.6 133.9,124.4 159.1,120.4 	"/>
	<polygon fill="#656F75" points="158.4,110.2 133.2,114.2 133.1,112 158.3,108 	"/>
	<polygon fill="#656F75" points="160.2,135 135,139 134.8,136.8 160,132.8 	"/>
	<polygon fill="#656F75" points="160.6,141.2 135.4,145.2 135.2,143 160.4,139 	"/>
	<polygon fill="#656F75" points="159.7,128.8 134.5,132.8 134.4,130.6 159.6,126.6 	"/>
</g>
<polygon id="полоса_6_" fill="#656F75" points="154.6,62.3 53.9,78.3 53.7,75.5 154.4,59.5 "/>
<polygon fill="#656F75" points="89.5,109.2 87.2,82.7 122.8,76.4 124.5,103.6 "/>
<g>
	<path fill="#000301" d="M65.9,43.1l3.5,3.1l2.2-2.6l0.7,0.5c-1.1,1.2-1.7,2.1-1.9,2.7c-0.3,0.8-0.4,1.8-0.3,3l0.8,11.6
		c0.1,1.1,0.3,1.8,0.7,2.3c0.2,0.3,0.5,0.4,0.7,0.4c0.2,0,0.7-0.4,1.5-1.2l0.6,0.7l-4.8,5.1c-1.4-0.8-2.3-1.6-2.7-2.3
		c-0.4-0.7-0.7-1.9-0.8-3.7l-0.9-13.3l-2.3-1.9l-3.8,4L60,64.9l1.9,1.5l-4,4.1l-4.5-2.8l1.7-2l-0.8-12.4c-0.1-1.8-0.4-2.9-0.8-3.5
		c-0.3-0.4-0.6-0.5-0.9-0.5c-0.3,0-0.8,0.4-1.4,1.2l-0.6-0.7l4.8-5.1c1.5,0.8,2.4,1.5,2.8,2.1c0.4,0.6,0.6,1.4,0.7,2.5l0.1,0.9
		L65.9,43.1z"/>
	<path fill="#000301" d="M86.3,39.9l7.3,6.9l-10.2,9.3l0.3,4.4l5.7,1.4l3.6-3.2l0.6,0.6L86.2,66c-1.6-0.6-3-1-4-1.2
		c-1-0.2-2.5-0.4-4.4-0.5l0-0.6c0.5-0.4,0.9-0.9,1-1.4c0.2-0.5,0.2-1.6,0.1-3.1l-0.9-13.9c1.4-0.8,2.7-1.5,3.6-2.1
		C82.1,42.8,83.7,41.7,86.3,39.9z M82.8,43.3l-0.3,0.2l0.8,11l6-5.5L82.8,43.3z"/>
	<path fill="#000301" d="M114.1,41.5l6.7-7c1.6,0.8,2.6,1.7,3.1,2.4c0.7,1,1.1,2.3,1.2,3.8l1,14.7c-1.6,0.8-3,1.6-4.1,2.4
		c-1.1,0.8-2.2,1.8-3.3,3.1c-2.8-1.3-5.1-1.8-6.9-1.5c-1.7,0.3-3.3,1.4-4.9,3.4c-1.7-1.1-3.3-1.8-4.7-2.2c-1.5-0.4-3.1-0.5-4.8-0.3
		l0-0.6c0.7-0.4,1.2-0.9,1.4-1.5c0.3-0.6,0.3-1.7,0.2-3.2l-0.6-9.2c-0.1-1.4-0.2-2.3-0.3-2.6c-0.1-0.3-0.4-0.7-0.9-1.1
		c-0.7-0.7-1.2-1.3-1.5-1.9c-0.3-0.5-0.4-1.2-0.5-1.9c-0.1-1.4,0.2-2.6,1-3.8c0.8-1.2,2.1-2.4,4.2-3.8l0.5,0.6
		c-1.6,1.5-2.4,2.8-2.3,3.9c0,0.4,0.2,0.8,0.4,1.1c0.1,0.2,0.7,0.8,1.9,1.8c0.8,0.7,1.4,1.5,1.8,2.4c0.3,0.5,0.5,1.4,0.6,2.4
		l6.6-6.8c1.3,0.6,2.3,1.4,3,2.2C113.4,39.3,113.8,40.3,114.1,41.5z M103.2,44.2l0.8,12.4l6.2,1.6L109.3,45
		c-0.1-1.4-0.3-2.3-0.6-2.9c-0.3-0.5-1-1-2.1-1.5L103.2,44.2z M114.1,42.7l0.8,12.1l6.2,1.6L120.3,43c-0.1-1.2-0.3-2-0.5-2.4
		c-0.3-0.4-1-1-2.1-1.6L114.1,42.7z"/>
	<path fill="#000301" d="M141.4,40.3l5.7,2.1l0.7,10.2c-1.3,0.3-2.5,0.9-3.6,1.6c-1.1,0.7-2.2,1.8-3.5,3.3c-1.2-0.5-2.3-0.9-3.2-1
		c-0.9-0.1-1.8-0.1-2.8,0c-1.5,0.2-2.8,0.9-3.9,2c-0.4,0.4-0.7,0.6-0.9,0.6c-0.2,0-0.4,0-0.5-0.2c-0.2-0.2-0.3-0.3-0.3-0.5
		c0-0.2,0.1-0.5,0.4-0.9c0.2-0.2,0.5-0.7,0.9-1.3l2-3.1l2.8-4.6l-5.4-2l-0.6-9c1.6-0.8,2.9-1.6,3.8-2.3c0.9-0.8,1.7-1.8,2.5-3
		c2.1,0.6,3.8,0.9,5,1.1c0.9,0.1,1.8,0.1,2.6,0c0.9-0.1,1.6-0.4,2.1-0.9c0.5-0.5,0.7-0.9,0.6-1.4c0-0.3-0.2-0.6-0.5-0.8
		c-0.7-0.5-1-1-1-1.5c0-0.5,0.1-0.9,0.3-1.3c0.3-0.3,0.5-0.5,0.9-0.6c0.4-0.1,0.9,0.1,1.3,0.4c0.4,0.3,0.6,0.9,0.6,1.5
		c0,0.7,0,1.4-0.3,2.1c-0.2,0.7-0.7,1.6-1.5,2.8L141.4,40.3z M138.8,44.7l-5.2,8.7c0.7-0.4,1.3-0.6,1.9-0.9c0.6-0.2,1.1-0.3,1.6-0.4
		c1.8-0.3,3.8,0,5.8,0.9l-0.5-7L138.8,44.7z M134.5,43.1l3.4,1.2l4.7-7.8c-1.1,0.5-2,0.8-2.7,0.9c-2,0.3-3.9-0.1-5.9-1.1L134.5,43.1
		z"/>
</g>
<linearGradient id="SVGID_5_" gradientUnits="userSpaceOnUse" x1="13.2892" y1="83.0092" x2="37.1471" y2="83.0092">
	<stop  offset="0.1008" style="stop-color:#DCDFE1;stop-opacity:0.8"/>
	<stop  offset="1" style="stop-color:#F5FAFD"/>
</linearGradient>
<polygon fill="url(#SVGID_5_)" points="37.1,18.1 21.3,148.1 13.3,147.3 34.6,17.9 "/>
<linearGradient id="SVGID_6_" gradientUnits="userSpaceOnUse" x1="43.1496" y1="102.1643" x2="58.7472" y2="102.1643">
	<stop  offset="0.3645" style="stop-color:#EEF3F6"/>
	<stop  offset="0.7931" style="stop-color:#F7FBFF"/>
</linearGradient>
<polygon fill="url(#SVGID_6_)" points="45.5,35.3 58.7,167.6 50.9,169 43.1,35.4 "/>
</svg>
