<?xml version="1.0" encoding="utf-8"?>
<!-- Generator: Adobe Illustrator 17.1.0, SVG Export Plug-In . SVG Version: 6.00 Build 0)  -->
<!DOCTYPE svg PUBLIC "-//W3C//DTD SVG 1.1//EN" "http://www.w3.org/Graphics/SVG/1.1/DTD/svg11.dtd">
<svg version="1.1" id="Слой_1" xmlns="http://www.w3.org/2000/svg" xmlns:xlink="http://www.w3.org/1999/xlink" x="0px" y="0px"
	 viewBox="0 0 175 175" enable-background="new 0 0 175 175" xml:space="preserve">
<path fill="#656F75" d="M93.5,49.4C79,33.2,58,30.4,47.3,33.2L56.9,73L93.5,49.4z"/>
<g id="диаграмма_1_">
	<polyline fill="#656F75" stroke="#F5FAFC" stroke-miterlimit="10" points="100,61.4 87.5,55.8 58,74.9 63.4,82.6 	"/>
	<polyline fill="#2C3133" stroke="#F5FAFC" stroke-miterlimit="10" points="56.4,71.5 46.9,33.2 57.2,39.5 66.6,76.9 	"/>
	<linearGradient id="SVGID_1_" gradientUnits="userSpaceOnUse" x1="30.8945" y1="122.1845" x2="30.8945" y2="36.035">
		<stop  offset="5.418720e-002" style="stop-color:#C4C4C4"/>
		<stop  offset="0.4792" style="stop-color:#D9D9D9"/>
		<stop  offset="0.5231" style="stop-color:#D3D3D3"/>
		<stop  offset="0.6445" style="stop-color:#C8C8C8"/>
		<stop  offset="0.78" style="stop-color:#C4C4C4"/>
	</linearGradient>
	<path fill="url(#SVGID_1_)" stroke="#F5FAFC" stroke-miterlimit="10" d="M52,42l-10.7-6c0,0-28.9,6.7-31.5,39
		c0.2,17.9,5.8,34.1,38.6,47.2"/>
	<linearGradient id="SVGID_2_" gradientUnits="userSpaceOnUse" x1="21.2865" y1="83.5031" x2="105.5448" y2="83.5031">
		<stop  offset="0.1245" style="stop-color:#9E9E9E"/>
		<stop  offset="0.1269" style="stop-color:#9F9F9F"/>
		<stop  offset="0.2472" style="stop-color:#C0C0C0"/>
		<stop  offset="0.3703" style="stop-color:#D9D9D9"/>
		<stop  offset="0.4978" style="stop-color:#EBEBEB"/>
		<stop  offset="0.6312" style="stop-color:#F6F6F6"/>
		<stop  offset="0.78" style="stop-color:#FAFAFA"/>
	</linearGradient>
	<path fill="url(#SVGID_2_)" stroke="#F5FAFC" stroke-miterlimit="10" d="M105.4,85.6c-1.9,22.8-19.1,39.4-42,39.4
		c-22.9,0-42.1-18.9-42.1-42.4c0-10.2,4.5-21.7,12-29.3c8.9-8.9,18-11.2,18-11.2l12.1,41.3L100,62.1C100,62.1,106.5,72.6,105.4,85.6
		z"/>
	<path fill="none" stroke="#F5FAFC" stroke-miterlimit="10" d="M58,74.7"/>
	<path fill="none" stroke="#F5FAFC" stroke-miterlimit="10" d="M84.9,58.6"/>
</g>
<polyline fill="none" stroke="#F5FAFC" stroke-linecap="round" points="137.7,55.2 145.3,58.4 164.8,58.3 "/>
<polyline fill="none" stroke="#F5FAFC" stroke-miterlimit="10" points="145.6,58.6 159,58.6 164.8,58.6 "/>
<linearGradient id="SVGID_3_" gradientUnits="userSpaceOnUse" x1="141.5243" y1="139.6129" x2="141.5243" y2="55.1908">
	<stop  offset="0.1245" style="stop-color:#90A5B4"/>
	<stop  offset="1" style="stop-color:#AFB2B5"/>
</linearGradient>
<polygon fill="url(#SVGID_3_)" points="145.3,58.4 137.7,55.2 137.7,135.5 145.3,139.6 "/>
<linearGradient id="SVGID_4_" gradientUnits="userSpaceOnUse" x1="155.2526" y1="139.5059" x2="155.2526" y2="57.8837">
	<stop  offset="0.1245" style="stop-color:#C0CDD6"/>
	<stop  offset="0.9704" style="stop-color:#98A2A9"/>
</linearGradient>
<path fill="url(#SVGID_4_)" d="M164.8,58.3c0-0.4-19.2-0.4-19.2-0.4l0.1,81.6h18.1c0.8,0,1.1-0.3,1.1-0.7L164.8,58.3z"/>
<linearGradient id="SVGID_5_" gradientUnits="userSpaceOnUse" x1="151.242" y1="58.3269" x2="151.242" y2="55.1908">
	<stop  offset="0.1823" style="stop-color:#E0E6EB"/>
	<stop  offset="1" style="stop-color:#BBBFC2"/>
</linearGradient>
<polygon fill="url(#SVGID_5_)" points="137.7,55.2 155,55.2 164.8,58.3 145.3,58.3 "/>
<line fill="none" stroke="#F5FAFC" stroke-width="2" x1="145.3" y1="58.2" x2="145.3" y2="139.3"/>
<g>
	<linearGradient id="SVGID_6_" gradientUnits="userSpaceOnUse" x1="92.9416" y1="139.3484" x2="92.9416" y2="83.0843">
		<stop  offset="0.4851" style="stop-color:#93999D"/>
		<stop  offset="1" style="stop-color:#676C6F"/>
	</linearGradient>
	<path fill="url(#SVGID_6_)" d="M103.1,83.1H82.8v55.5c0,0.4,0.3,0.7,0.8,0.7h18.8c0.4,0,0.8-0.3,0.8-0.7V83.1z"/>
	<linearGradient id="SVGID_7_" gradientUnits="userSpaceOnUse" x1="78.9765" y1="139.5059" x2="78.9765" y2="80.1058">
		<stop  offset="0.1245" style="stop-color:#3F4B50"/>
		<stop  offset="1" style="stop-color:#A1A3A5"/>
	</linearGradient>
	<polygon fill="url(#SVGID_7_)" points="82.8,82.9 75.2,80.1 75.2,135.4 82.8,139.5 	"/>
	<linearGradient id="SVGID_8_" gradientUnits="userSpaceOnUse" x1="89.1257" y1="82.7111" x2="89.1257" y2="79.5749">
		<stop  offset="0.1823" style="stop-color:#E0E6EB"/>
		<stop  offset="1" style="stop-color:#BBBFC2"/>
	</linearGradient>
	<polygon fill="url(#SVGID_8_)" points="75.2,79.6 92.5,79.6 103.1,82.7 82.8,82.7 	"/>
	<line fill="none" stroke="#F5FAFC" stroke-width="2" x1="82.8" y1="82.5" x2="82.8" y2="139.4"/>
	<polyline fill="none" stroke="#F5FAFC" stroke-linecap="round" points="75.3,79.6 82.7,82.7 103.1,82.7 	"/>
</g>
<g id="_x32__столб_2_">
	<linearGradient id="SVGID_9_" gradientUnits="userSpaceOnUse" x1="120.4752" y1="70.2995" x2="120.4752" y2="67.1634">
		<stop  offset="0.1823" style="stop-color:#E0E6EB"/>
		<stop  offset="1" style="stop-color:#BBBFC2"/>
	</linearGradient>
	<polygon fill="url(#SVGID_9_)" points="106.5,67.2 123.8,67.2 134.4,70.3 114.1,70.3 	"/>
	<linearGradient id="SVGID_10_" gradientUnits="userSpaceOnUse" x1="124.2911" y1="139.5059" x2="124.2911" y2="70.2995">
		<stop  offset="0.2956" style="stop-color:#858D92"/>
		<stop  offset="0.4593" style="stop-color:#ABB6BE"/>
		<stop  offset="0.5517" style="stop-color:#BCC9D2"/>
		<stop  offset="0.7827" style="stop-color:#AEB9C1"/>
		<stop  offset="0.9826" style="stop-color:#A6B0B8"/>
	</linearGradient>
	<path fill="url(#SVGID_10_)" d="M134.4,70.3h-20.3v68.5c0,0.4,0.3,0.7,0.8,0.7h18.8c0.4,0,0.8-0.3,0.8-0.7V70.3z"/>
	<linearGradient id="SVGID_11_" gradientUnits="userSpaceOnUse" x1="110.326" y1="139.5059" x2="110.326" y2="67.1634">
		<stop  offset="0.1245" style="stop-color:#5C6A72"/>
		<stop  offset="1" style="stop-color:#A1A3A5"/>
	</linearGradient>
	<polygon fill="url(#SVGID_11_)" points="114.1,70.8 106.5,67.2 106.5,135.4 114.1,139.5 	"/>
	<line fill="none" stroke="#F5FAFC" stroke-width="2" x1="114.1" y1="70.3" x2="114.1" y2="139.3"/>
	<path fill="none" stroke="#F5FAFC" stroke-linecap="round" d="M113.8,70.6h20.6H113.8z"/>
	<line fill="none" stroke="#F5FAFC" x1="113.8" y1="70.6" x2="106.5" y2="67.5"/>
</g>
<linearGradient id="SVGID_12_" gradientUnits="userSpaceOnUse" x1="80.5134" y1="76.9038" x2="80.5134" y2="37.5919">
	<stop  offset="0.1245" style="stop-color:#6F7F88"/>
	<stop  offset="1" style="stop-color:#AFB2B5"/>
</linearGradient>
<path fill="url(#SVGID_12_)" d="M103.5,55.6c-15-19-37.3-20.1-45.9-16.1l9,37.4L103.5,55.6z"/>
<path fill="#2C3133" d="M66.5,76.9"/>
<line fill="none" stroke="#F5FAFC" stroke-miterlimit="10" x1="145" y1="58.6" x2="164.8" y2="58.6"/>
</svg>
