<svg xmlns="http://www.w3.org/2000/svg" xmlns:xlink="http://www.w3.org/1999/xlink" width="80" height="80" viewBox="0 0 80 80"><g><image overflow="visible" opacity=".75" width="200" height="209" xlink:href="154E322C.png" transform="matrix(.24 0 0 .24 17.25 14.768)"/><path fill="#1A1A1A" d="M60.293 16.768c-.164 0-.322.239-.475.688l.038.077-.026.011-.043-.088c.106-.316.217-.522.33-.62l-.143-.068c-.162 0-.322.239-.475.688l.095.188-4.201 1.787-4.368 1.858-4.056 1.726-3.866 1.645-3.809 1.621-3.866 1.645-4.056 1.727-4.37 1.86-3.753 1.597v-.341l-3-1v14l3-1v-.342l3.753 1.598 1.129.48c-.164.214-.278.469-.278.76 0 .701.569 1.271 1.271 1.271l.196-.04c-.053 3.992 2.296 7.797 6.216 9.396 3.965 1.616 8.355.495 11.104-2.47.232.246.557.406.922.406.452 0 .83-.25 1.056-.605l2.407 1.025 4.368 1.857 4.201 1.788-.095.188c.152.448.313.688.475.688l.143-.068c-.113-.097-.224-.303-.33-.619l.043-.088.026.011-.038.077c.152.448.311.688.475.688 1.052 0 1.904-9.85 1.904-22s-.852-22.002-1.904-22.002zm-20.984 40.865c-1.164 0-2.306-.227-3.396-.67-3.861-1.576-6.03-5.543-5.515-9.496l.976.414 4.056 1.728 3.868 1.646 3.807 1.62 3.234 1.376c-1.679 2.104-4.235 3.382-7.03 3.382z"/><path fill="#C4C4C4" d="M48.093 53.408c.176-.322.338-.655.479-1.003 2.085-5.113-.371-10.949-5.484-13.034-5.113-2.086-10.949.369-13.035 5.483-.169.414-.297.834-.408 1.255-.16-.072-.334-.117-.521-.117-.702 0-1.271.569-1.271 1.271 0 .701.569 1.271 1.271 1.271l.196-.039c-.053 3.991 2.296 7.795 6.216 9.395 3.964 1.616 8.355.495 11.104-2.47.231.247.556.406.921.406.702 0 1.271-.569 1.271-1.271.002-.511-.304-.945-.739-1.147zm-8.784 4.225c-1.164 0-2.306-.227-3.396-.67-4.594-1.875-6.808-7.136-4.935-11.73 1.39-3.404 4.664-5.604 8.339-5.604 1.162 0 2.304.226 3.395.669 2.227.908 3.965 2.627 4.896 4.844.932 2.215.946 4.66.039 6.887-.221.541-.505 1.04-.814 1.517-.229.165-.394.395-.472.674-1.678 2.122-4.244 3.413-7.052 3.413z"/><linearGradient gradientUnits="userSpaceOnUse" x1="42.38" y1="17.53" x2="42.452" y2="60.161"><stop offset=".047" stop-color="#F2F2F2"/><stop offset=".277" stop-color="#bbb"/><stop offset=".5" stop-color="#F8F8F7"/><stop offset=".596" stop-color="#DEDEDE"/><stop offset=".74" stop-color="#B1B1B0"/><stop offset=".783" stop-color="#B7B7B6"/><stop offset=".839" stop-color="#C8C8C7"/><stop offset=".903" stop-color="#E3E3E3"/><stop offset=".956" stop-color="#fff"/></linearGradient><linearGradient gradientUnits="userSpaceOnUse" x1="23.234" y1="38.656" x2="61.594" y2="38.656"><stop offset=".238" stop-color="#D4D4D4"/><stop offset=".47" stop-color="#A8A8A8"/><stop offset=".697" stop-color="#848484"/><stop offset=".881" stop-color="#6E6E6E"/><stop offset="1" stop-color="#666"/></linearGradient><linearGradient id="a" gradientUnits="userSpaceOnUse" x1="53.149" y1="15.196" x2="30.841" y2="74.796"><stop offset="0" stop-color="#D4D4D4"/><stop offset=".018" stop-color="#DEDEDE"/><stop offset=".06" stop-color="#F1F1F1"/><stop offset=".104" stop-color="#FBFBFB"/><stop offset=".153" stop-color="#fff"/><stop offset=".279" stop-color="#EDEDED"/><stop offset=".388" stop-color="#CFCFCF"/><stop offset=".517" stop-color="#A6A6A6"/><stop offset=".56" stop-color="#B5B5B5"/><stop offset=".64" stop-color="#DADADA"/><stop offset=".662" stop-color="#E6E6E6"/><stop offset=".73" stop-color="#DFDFDF"/><stop offset=".829" stop-color="#CBCBCB"/><stop offset=".949" stop-color="#aaa"/><stop offset=".96" stop-color="#A6A6A6"/></linearGradient><path fill="url(#a)" d="M59.656 59.813l-36.422-15.063.032-11.937 36.797-15.313.687 4.781.844 9.188-.063 6.656.063 10-1 9.406z"/><linearGradient gradientUnits="userSpaceOnUse" x1="46.889" y1="23.485" x2="36.126" y2="70.555"><stop offset="0" stop-color="#404040" stop-opacity="0"/><stop offset=".172" stop-color="#fff" stop-opacity="0"/><stop offset=".328" stop-color="#fff" stop-opacity="0"/><stop offset=".334" stop-color="#F3F3F3" stop-opacity=".03"/><stop offset=".354" stop-color="#CBCBCB" stop-opacity=".141"/><stop offset=".375" stop-color="#A7A7A7" stop-opacity=".253"/><stop offset=".396" stop-color="#888887" stop-opacity=".364"/><stop offset=".416" stop-color="#6E6E6D" stop-opacity=".475"/><stop offset=".437" stop-color="#5B5B5A" stop-opacity=".585"/><stop offset=".457" stop-color="#4F4F4F" stop-opacity=".694"/><stop offset=".476" stop-color="#4B4B4A" stop-opacity=".8"/><stop offset=".797" stop-color="#fff" stop-opacity="0"/><stop offset=".956" stop-color="#1C1C1C" stop-opacity="0"/></linearGradient><radialGradient cx="49.414" cy="38.406" r="33.923" fx="43.445" fy="38.46" gradientTransform="matrix(1 0 0 .724 .009 10.571)" gradientUnits="userSpaceOnUse"><stop offset=".574" stop-opacity="0"/><stop offset=".798" stop-opacity=".651"/><stop offset="1" stop-opacity=".95"/></radialGradient><linearGradient id="b" gradientUnits="userSpaceOnUse" x1="61.008" y1="16.608" x2="61.008" y2="60.961"><stop offset="0" stop-color="#fff"/><stop offset=".214" stop-color="#78BEE8"/><stop offset=".467" stop-color="#fff"/><stop offset=".791" stop-color="#557EBE"/><stop offset="1" stop-color="#fff"/></linearGradient><path fill="url(#b)" d="M60.293 16.768c-.164 0-.322.239-.475.688.801 1.087 1.427 10.213 1.427 21.313s-.626 20.227-1.427 21.313c.152.448.311.688.475.688 1.052 0 1.904-9.85 1.904-22s-.852-22.002-1.904-22.002z"/><path fill="#fff" d="M59.787 60.08c.801-1.086 1.426-10.213 1.426-21.313 0-11.099-.625-20.226-1.426-21.313.106-.316.217-.522.33-.62l-.143-.068c-.162 0-.322.239-.475.688.803 1.087 1.428 10.213 1.428 21.313s-.625 20.227-1.428 21.313c.152.448.313.688.475.688l.143-.068c-.113-.097-.223-.304-.33-.62z"/><linearGradient id="c" gradientUnits="userSpaceOnUse" x1="21.75" y1="32.326" x2="21.75" y2="47.743"><stop offset="0" stop-color="#B7DAEF"/><stop offset=".245" stop-color="#4D7CBD"/><stop offset=".398" stop-color="#D4E4F4"/><stop offset=".611" stop-color="#4975B8"/><stop offset=".662" stop-color="#4B78BA"/><stop offset=".718" stop-color="#4F80C0"/><stop offset=".776" stop-color="#568DC9"/><stop offset=".836" stop-color="#62A0D5"/><stop offset=".896" stop-color="#73B7E4"/><stop offset=".912" stop-color="#78BEE8"/></linearGradient><path fill="url(#c)" d="M23.25 44.768l-3 1v-14l3 1z"/><path fill="#777" d="M27.781 46.273l2.834 1.022.416-.397-3.062-1zM46.281 53.961l2.834 1.021.416-.396-3.062-1z"/><path fill="#C7D8DD" d="M25.469 45.594l-1.281-.518v-12.664l1.25-.474z"/></g></svg>