<svg xmlns="http://www.w3.org/2000/svg" xmlns:xlink="http://www.w3.org/1999/xlink" width="66" height="66" viewBox="0 0 66 66"><g><image overflow="visible" opacity=".5" width="262" height="260" xlink:href="F4C4521B.png" transform="matrix(.24 0 0 .24 1.781 3)"/><linearGradient id="a" gradientUnits="userSpaceOnUse" x1="6.491" y1="39.05" x2="61.158" y2="27.05"><stop offset="0" stop-color="#D4D4D4"/><stop offset=".036" stop-color="#C8C8C8"/><stop offset=".09" stop-color="#BEBEBE"/><stop offset=".151" stop-color="#BABABA"/><stop offset=".33" stop-color="#F4F4F4"/><stop offset=".516" stop-color="#999"/><stop offset=".566" stop-color="#A1A1A1"/><stop offset=".643" stop-color="#B6B6B6"/><stop offset=".736" stop-color="#D9D9D9"/><stop offset=".769" stop-color="#E7E7E7"/><stop offset="1" stop-color="#9D9D9D"/></linearGradient><path fill="url(#a)" d="M61.375 43.719l1.646-5.697-5.729-3v-2.729l-.084-2.542 5.771-1.5-1.542-5.875-6.208.292-2.542-4.464 3.854-4.141-4.245-4.344-4.984 3.188-4.312-2.574.917-5.458-5.833-1.25-2.667 5.542-4.75-.542-2.334-5.125-5.666 1.5.625 5.458-4.375 2.833-4.833-3.5-2.084 2.209-2.188 2.031 3.922 4.281-.563.594-2.125 3.781-6.188-.297-1.578 5.875 5.797 1.563-.094 2.75.109 2.406-5.797 2.938 1.563 5.953 6.219-1.672 1 1.875 1.594 2.484-.875 1.281-3.125 4.391 4.391 4.328 4.891-4.688 4.375 2.563-.875 6.906 5.859 1.484 2.313-6.781h4.953l2.484 6.828 5.656-1.578-.75-6.797 4.344-2.828 4.969 4.797 4.219-4.25-3.781-5.625 2.438-4.438 6.218 1.564zm-28.416-5.844c-3.176 0-5.75-2.604-5.75-5.813 0-3.21 2.574-5.813 5.75-5.813 3.175 0 5.75 2.603 5.75 5.813 0 3.209-2.575 5.813-5.75 5.813z"/><radialGradient id="b" cx="33.003" cy="32.147" r="21.447" gradientTransform="matrix(.975 .222 -.203 .89 7.356 -3.815)" gradientUnits="userSpaceOnUse"><stop offset=".284"/><stop offset=".391" stop-color="#2C2B2A"/><stop offset=".604" stop-color="#52504F"/><stop offset=".713" stop-color="#666362"/><stop offset="1"/></radialGradient><path fill="url(#b)" d="M35.767 12.624c-10.598-1.501-20.425 6.025-21.95 16.808-1.526 10.786 5.827 20.741 16.422 22.24 10.597 1.501 20.424-6.025 21.951-16.811 1.527-10.781-5.828-20.739-16.423-22.237zm-2.808 25.251c-3.176 0-5.75-2.604-5.75-5.813 0-3.21 2.574-5.813 5.75-5.813 3.175 0 5.75 2.603 5.75 5.813 0 3.209-2.575 5.813-5.75 5.813z"/><linearGradient id="c" gradientUnits="userSpaceOnUse" x1="12.773" y1="32.046" x2="49.02" y2="32.046"><stop offset=".096" stop-color="#D4D4D4"/><stop offset=".108" stop-color="#DEDEDE"/><stop offset=".136" stop-color="#F1F1F1"/><stop offset=".166" stop-color="#FBFBFB"/><stop offset=".199" stop-color="#fff"/><stop offset=".33" stop-color="#EDEDED"/><stop offset=".62" stop-color="#B6B6B6"/><stop offset=".715" stop-color="#D0D0D0"/><stop offset=".813" stop-color="#E6E6E6"/><stop offset="1" stop-color="#A6A6A6"/></linearGradient><path fill="url(#c)" d="M32.898 20.046c-6.612.046-11.936 5.456-11.89 12.083.046 6.627 5.445 11.962 12.058 11.917 6.613-.047 11.937-5.458 11.891-12.084-.045-6.627-5.445-11.962-12.059-11.916zm.061 17.829c-3.176 0-5.75-2.604-5.75-5.813 0-3.21 2.574-5.813 5.75-5.813 3.175 0 5.75 2.603 5.75 5.813 0 3.209-2.575 5.813-5.75 5.813z"/></g><path fill="#BCBBBB" d="M22.374 61.405l.149.041 1.075-7.671c-.049-.021-.26-.057-.26.637l-.964 6.993zm-13.373-28.489c.016-.652.035-1.307.102-1.946l-.057-.016c-.028.473-.074.94-.074 1.422l.029.54zm19.337-28.572l2.25 5.1c.842-.088 1.695-.138 2.562-.138.842 0 1.676.044 2.496.128l2.314-5.089 5.779 1.548.186-1.059-5.965-1.598-2.314 5.089c-.82-.083-1.654-.128-2.496-.128-.867 0-1.72.05-2.562.138l-2.25-5.1-5.965 1.598.186 1.059 5.779-1.548zm-18.664 47.883l.458.458 3.496-4.976-.375-.574-3.579 5.092zm47.623-19.308l.031-.543c0-.481-.047-.949-.074-1.422l-.057.016c.065.64.086 1.294.1 1.949zm-.672-18.908l-4.367-4.367-4.877 3.215c-1.318-.962-2.734-1.791-4.234-2.475l-.178 1.017c1.568.699 3.041 1.564 4.412 2.566l4.877-3.215 3.83 3.83.537-.571zm-3.502 4.828l-.428.454c.998 1.372 1.859 2.844 2.555 4.411l6.186-.25 1.322 4.929.275-.074-1.598-5.963-6.186.25c-.587-1.327-1.317-2.57-2.126-3.757zm-10.262 35.63l.916 6.976.148-.039-.92-7.01-.144.073zm9.809-6.76l3.498 4.976.457-.458-3.58-5.092-.375.574zm4.518-11.646l5.586 2.843.26-.976-5.789-2.946c-.022.36-.022.725-.057 1.079zm-52.325-12.61l6.187.25c.695-1.567 1.558-3.041 2.555-4.411l-.427-.454c-.808 1.187-1.54 2.429-2.127 3.756l-6.187-.25-1.597 5.964.277.074 1.319-4.929zm18.29-13.069c-1.5.685-2.917 1.513-4.235 2.476l-4.877-3.215-4.367 4.367.538.571 3.829-3.83 4.877 3.215c1.372-1.002 2.845-1.869 4.414-2.567l-.179-1.017zm-19.887 27.547l.262.976 5.585-2.842c-.038-.354-.036-.72-.059-1.078l-5.788 2.944zm29.617.003c-3.025 0-5.482-2.318-5.765-5.27-.019.186-.057.365-.057.555 0 3.216 2.607 5.822 5.822 5.822s5.822-2.606 5.822-5.822c0-.189-.037-.369-.055-.555-.283 2.951-2.742 5.27-5.767 5.27z"/><path fill="#777" d="M23.332 9.461l-.818-4.666-.14.038.824 4.697.134-.069zm-9.728 7.891l-3.526-3.744-.403.403 3.609 3.832.32-.491zm43.021-3.341l-.404-.403-3.525 3.745.32.492 3.609-3.834zm.703 18.365l-.023-.425c-.012.73-.043 1.458-.117 2.173l.045.021c.042-.586.095-1.17.095-1.769zm-13.402-27.543l-.139-.038-.818 4.666.135.068.822-4.696zm-34.955 27.543c0 .599.053 1.185.097 1.771l.044-.022c-.076-.715-.105-1.442-.119-2.175l-.022.426zm23.912-6.09c3.074 0 5.564 2.39 5.781 5.409l.041-.416c0-3.217-2.607-5.825-5.822-5.825s-5.822 2.608-5.822 5.825l.042.416c.217-3.019 2.707-5.409 5.78-5.409zm-19.536 19.884l.281-.401c-.994-1.361-1.854-2.825-2.549-4.382l-6.214 1.678-1.403-5.235-.196.101 1.599 5.965 6.214-1.678c.625 1.398 1.399 2.709 2.268 3.952zm38.913 9.593l-4.92-4.671c-1.363.99-2.826 1.847-4.381 2.54l.107.774c1.516-.683 2.943-1.517 4.273-2.482l4.92 4.67 4.365-4.367-.344-.487-4.02 4.023zm9.176-12.699l-6.215-1.678c-.697 1.557-1.555 3.021-2.551 4.382l.281.401c.869-1.241 1.643-2.554 2.27-3.952l6.215 1.678 1.598-5.965-.194-.1-1.404 5.234zm-52.333-14.034l-5.629-1.498-.208.776 5.794 1.542c.019-.272.015-.551.043-.82zm53.93-.722l-.207-.776-5.629 1.498.043.82 5.793-1.542zm-25.072 33.864l-2.273-6.584c-.836.087-1.682.135-2.537.135-.857 0-1.704-.047-2.538-.135l-2.274 6.584-5.853-1.568-.112.802 5.965 1.598 2.274-6.584c.834.089 1.681.135 2.538.135.855 0 1.701-.048 2.537-.135l2.273 6.584 5.965-1.598-.111-.802-5.854 1.568zm-14.621-8.541c-1.556-.692-3.019-1.549-4.381-2.54l-4.918 4.672-4.023-4.023-.343.487 4.367 4.367 4.918-4.672c1.33.968 2.758 1.802 4.273 2.484l.107-.775z"/><path fill="#0B0C0D" d="M33 44.243c-6.472 0-11.736-5.222-12.027-11.771l-.028.565c0 6.813 5.396 12.337 12.055 12.337 6.657 0 12.054-5.523 12.054-12.337l-.029-.565c-.291 6.549-5.555 11.771-12.025 11.771z"/><path fill="#6C6C6C" d="M33 20.079c6.494 0 11.774 5.328 12.029 11.995l.025-.501c0-6.895-5.397-12.495-12.054-12.495-6.659 0-12.055 5.595-12.055 12.495l.024.501c.256-6.667 5.534-11.995 12.031-11.995z"/><path fill="#EFEFEF" d="M33.041 12.921c10.502 0 19.029 8.37 19.328 18.802l.027-.555c0-10.69-8.666-19.356-19.355-19.356-10.692 0-19.357 8.666-19.357 19.356l.028.555c.296-10.432 8.824-18.802 19.329-18.802z"/><path fill="#fff" d="M33.041 51.634c-10.505 0-19.033-8.371-19.33-18.802l-.028.554c0 10.691 8.666 19.356 19.357 19.356 10.689 0 19.355-8.665 19.355-19.356l-.027-.554c-.298 10.431-8.825 18.802-19.327 18.802z"/></svg>