<svg xmlns="http://www.w3.org/2000/svg" xmlns:xlink="http://www.w3.org/1999/xlink" width="62" height="64" viewBox="0 0 62 64"><path fill="#1A1A1A" d="M13.95 24.244c-.118-.198-.33-.316-.56-.314-.23.001-.438.122-.555.322l-11.121 19c-.173.294-.081.665.199.856.281 6.057 5.322 9.717 11.515 9.717 6.272 0 11.362-3.75 11.528-9.941l.025-.009c.307-.185.408-.582.222-.891l-11.253-18.74zm-10.958 19.391l10.411-17.787 10.679 17.787h-21.09zm56.839 5.836l-10.863-18.742c-.12-.197-.33-.315-.559-.315-.229.002-.442.124-.557.323l-11.122 18.998c-.173.295-.08.666.2.857.281 6.057 5.321 9.717 11.514 9.717 6.273 0 10.975-3.75 11.139-9.941l.156-.008c.308-.185.277-.583.092-.889zm-21.822.648l10.408-17.786 10.68 17.786h-21.088zm11.506-22.301l-15.098-2.711 12.665-20.37h-31.125l11.867 19.084-15.135-2.949-.42 2.165 17.144 3.34 2.107 3.389 1.653-2.657 15.921 2.872.421-2.163z"/><linearGradient id="a" gradientUnits="userSpaceOnUse" x1="13.428" y1="38.455" x2="13.428" y2="59.847"><stop offset="0" stop-color="#fff"/><stop offset="1"/></linearGradient><path fill="url(#a)" d="M1.893 43.635l-.008-.056c0 6.375 5.167 10.246 11.543 10.246 6.376 0 11.543-3.871 11.543-10.246l-.008.056h-23.07z"/><g opacity=".8"><defs><filter id="b" filterUnits="userSpaceOnUse" x="2.476" y="43.534" width="21.913" height="9.708"><feFlood result="back" flood-color="#fff" flood-opacity="1"/><feBlend in="SourceGraphic" in2="back"/></filter></defs><mask maskUnits="userSpaceOnUse" x="2.476" y="43.534" width="21.913" height="9.708" id="c"></mask><g mask="url(#c)"><radialGradient id="d" cx="13.55" cy="37.349" r="19.524" gradientUnits="userSpaceOnUse"><stop offset="0" stop-color="#D4D4D4"/><stop offset=".039" stop-color="#DEDEDE"/><stop offset=".129" stop-color="#F1F1F1"/><stop offset=".224" stop-color="#FBFBFB"/><stop offset=".33" stop-color="#fff"/><stop offset=".665" stop-color="#A6A6A6"/><stop offset=".688" stop-color="#AEAEAE"/><stop offset=".722" stop-color="#C3C3C3"/><stop offset=".764" stop-color="#E6E6E6"/><stop offset=".769" stop-color="#EBEBEB"/><stop offset="1" stop-color="#8F8F8F"/></radialGradient><path fill="url(#d)" d="M2.476 43.635c-.001-.146.088-.103.088-.056 0 6.375 4.489 9.663 10.864 9.663 6.376 0 10.96-3.288 10.96-9.663l-.007.056h-21.905z"/></g></g><linearGradient id="e" gradientUnits="userSpaceOnUse" x1="1.675" y1="48.68" x2="25.911" y2="48.68"><stop offset="0" stop-color="#161616"/><stop offset=".043" stop-color="#363636"/><stop offset=".133" stop-color="#727272"/><stop offset=".219" stop-color="#A4A4A4"/><stop offset=".3" stop-color="#ccc"/><stop offset=".374" stop-color="#E8E8E8"/><stop offset=".438" stop-color="#F9F9F9"/><stop offset=".486" stop-color="#fff"/><stop offset=".535" stop-color="#F9F9F9"/><stop offset=".599" stop-color="#E9E9E9"/><stop offset=".671" stop-color="#CECECE"/><stop offset=".749" stop-color="#A9A9A9"/><stop offset=".832" stop-color="#797979"/><stop offset=".917" stop-color="#3F3F3F"/><stop offset="1"/></linearGradient><path opacity=".6" fill="url(#e)" d="M1.893 43.635l-.008-.056c0 6.375 5.167 10.246 11.543 10.246 6.376 0 11.543-3.871 11.543-10.246l-.008.056h-23.07z"/><linearGradient id="f" gradientUnits="userSpaceOnUse" x1="48.445" y1="44.94" x2="48.445" y2="66.332"><stop offset="0" stop-color="#fff"/><stop offset="1"/></linearGradient><path fill="url(#f)" d="M36.909 50.119l-.008-.056c0 6.376 5.168 10.246 11.543 10.246 6.377 0 11.544-3.87 11.544-10.246l-.007.056h-23.072z"/><defs><filter id="g" filterUnits="userSpaceOnUse" x="37.492" y="50.019" width="21.913" height="9.709"><feFlood result="back" flood-color="#fff" flood-opacity="1"/><feBlend in="SourceGraphic" in2="back"/></filter></defs><mask maskUnits="userSpaceOnUse" x="37.492" y="50.019" width="21.913" height="9.709" id="h"></mask><g mask="url(#h)"><radialGradient id="i" cx="48.566" cy="43.832" r="19.525" gradientUnits="userSpaceOnUse"><stop offset="0" stop-color="#D4D4D4"/><stop offset=".039" stop-color="#DEDEDE"/><stop offset=".129" stop-color="#F1F1F1"/><stop offset=".224" stop-color="#FBFBFB"/><stop offset=".33" stop-color="#fff"/><stop offset=".665" stop-color="#A6A6A6"/><stop offset=".688" stop-color="#AEAEAE"/><stop offset=".722" stop-color="#C3C3C3"/><stop offset=".764" stop-color="#E6E6E6"/><stop offset=".769" stop-color="#EBEBEB"/><stop offset="1" stop-color="#8F8F8F"/></radialGradient><path fill="url(#i)" d="M37.492 50.119c-.001-.146.089-.103.089-.056 0 6.376 4.488 9.664 10.863 9.664 6.377 0 10.961-3.288 10.961-9.664l-.008.056h-21.905z"/></g><linearGradient id="j" gradientUnits="userSpaceOnUse" x1="36.691" y1="55.164" x2="60.928" y2="55.164"><stop offset="0" stop-color="#161616"/><stop offset=".043" stop-color="#363636"/><stop offset=".133" stop-color="#727272"/><stop offset=".219" stop-color="#A4A4A4"/><stop offset=".3" stop-color="#ccc"/><stop offset=".374" stop-color="#E8E8E8"/><stop offset=".438" stop-color="#F9F9F9"/><stop offset=".486" stop-color="#fff"/><stop offset=".535" stop-color="#F9F9F9"/><stop offset=".599" stop-color="#E9E9E9"/><stop offset=".671" stop-color="#CECECE"/><stop offset=".749" stop-color="#A9A9A9"/><stop offset=".832" stop-color="#797979"/><stop offset=".917" stop-color="#3F3F3F"/><stop offset="1"/></linearGradient><path opacity=".6" fill="url(#j)" d="M36.909 50.119l-.008-.056c0 6.376 5.168 10.246 11.543 10.246 6.377 0 11.544-3.87 11.544-10.246l-.007.056h-23.072z"/><linearGradient id="k" gradientUnits="userSpaceOnUse" x1="224.829" y1="-234.26" x2="224.829" y2="-232.23" gradientTransform="matrix(.982 .191 -.191 .982 -234.413 211.538)"><stop offset="0" stop-color="#D4D4D4"/><stop offset=".033" stop-color="#DEDEDE"/><stop offset=".11" stop-color="#F1F1F1"/><stop offset=".19" stop-color="#FBFBFB"/><stop offset=".28" stop-color="#fff"/><stop offset=".33" stop-color="#EDEDED"/><stop offset=".665" stop-color="#A6A6A6"/><stop offset=".689" stop-color="#AEAEAE"/><stop offset=".725" stop-color="#C3C3C3"/><stop offset=".769" stop-color="#E6E6E6"/><stop offset=".769" stop-color="#E6E6E6"/><stop offset="1" stop-color="#A6A6A6"/></linearGradient><path fill-rule="evenodd" clip-rule="evenodd" fill="url(#k)" d="M49.094 29.928l-36.826-6.891.42-2.164 36.827 6.892z"/><linearGradient id="l" gradientUnits="userSpaceOnUse" x1="15.473" y1="29.364" x2="16.932" y2="19.151"><stop offset=".238" stop-color="#9E9E9E"/><stop offset=".513" stop-color="#848484"/><stop offset=".809" stop-color="#6E6E6E"/><stop offset="1" stop-color="#666"/></linearGradient><path fill="url(#l)" d="M1.946 44.139c-.311-.181-.413-.58-.232-.887l11.121-19c.117-.2.324-.32.555-.322.23-.002.442.116.56.314l11.253 18.74c.186.309.085.706-.222.891-.308.184-.705.085-.889-.223l-10.689-17.804-10.57 18.059h.002c-.122.207-.339.32-.562.32-.112.001-.223-.028-.327-.088z"/><linearGradient id="m" gradientUnits="userSpaceOnUse" x1="48.56" y1="36.075" x2="48.722" y2="24.402"><stop offset=".238" stop-color="#D9D9D9"/><stop offset=".487" stop-color="#A8A8A8"/><stop offset=".707" stop-color="#848484"/><stop offset=".885" stop-color="#6E6E6E"/><stop offset="1" stop-color="#666"/></linearGradient><path fill="url(#m)" d="M37.094 50.623c-.311-.181-.414-.579-.231-.888h-.133l11.122-18.999c.114-.199.327-.32.557-.323.229 0 .438.118.559.315l10.863 18.742c.185.307.085.704-.221.89h.39c-.31.183-1.098.084-1.28-.222l-10.303-17.805-10.437 18.059c-.122.207-.339.321-.562.321h-.13c-.11 0-.222-.029-.326-.09h.132z"/><linearGradient id="n" gradientUnits="userSpaceOnUse" x1="25.802" y1="25.416" x2="36.341" y2="25.416"><stop offset="0" stop-color="#484848"/><stop offset="1" stop-color="#252525"/></linearGradient><path opacity=".4" fill-rule="evenodd" clip-rule="evenodd" fill="url(#n)" d="M25.802 23.335l1.783 2.649 7.676 1.513 1.08-2.053z"/><linearGradient id="o" gradientUnits="userSpaceOnUse" x1="31.52" y1="1.784" x2="31.52" y2="35.066"><stop offset="0" stop-color="#87CBFC"/><stop offset=".571" stop-color="#457AD3"/><stop offset=".657" stop-color="#497ED4"/><stop offset=".738" stop-color="#5489D9"/><stop offset=".817" stop-color="#679CE0"/><stop offset=".895" stop-color="#82B7EA"/><stop offset=".972" stop-color="#A5D9F8"/><stop offset="1" stop-color="#B3E7FD"/></linearGradient><path fill-rule="evenodd" clip-rule="evenodd" fill="url(#o)" d="M31.52 29.766l-15.563-25.029h31.125z"/><text transform="translate(27.614 22.559)" fill="#fff" font-family="'MyriadPro-Semibold'" font-size="20.534">?</text><path opacity=".2" fill="#4C86E7" d="M6.944 45.329l17.346-.161-.099 1.62-8.655-.162zM56.228 51.813l-18.645-.161.099 1.621 9.952-.163z"/><linearGradient id="p" gradientUnits="userSpaceOnUse" x1="37.639" y1="50.588" x2="60.658" y2="50.588"><stop offset="0" stop-color="#191919"/><stop offset=".518" stop-color="#fff"/><stop offset="1"/></linearGradient><path fill="url(#p)" d="M37.492 50.119h.091l-.002-.056c0-.046-.09-.09-.089.056zm21.905 0h-21.814c.003.357.022.701.053 1.039h21.719c.032-.354.051-.719.051-1.095l-.009.056z"/><linearGradient id="q" gradientUnits="userSpaceOnUse" x1="2.622" y1="44.103" x2="25.641" y2="44.103"><stop offset="0" stop-color="#191919"/><stop offset=".518" stop-color="#fff"/><stop offset="1"/></linearGradient><path opacity=".8" fill="url(#q)" d="M2.476 43.635h.091l-.002-.056c-.001-.047-.09-.091-.089.056zm21.905 0h-21.815c.002.357.023.7.052 1.039h21.72c.032-.354.051-.719.051-1.095l-.008.056z"/><path opacity=".5" fill-rule="evenodd" clip-rule="evenodd" fill="#fff" d="M46.487 5.645l.595-.908h-31.125l.595.908z"/><path opacity=".5" fill-rule="evenodd" clip-rule="evenodd" fill="#74CDF7" d="M31.52 28.729l-14.882-23.992h-.681l15.563 25.029 15.562-25.029h-.678z"/><linearGradient id="r" gradientUnits="userSpaceOnUse" x1="30.17" y1="25.243" x2="19.477" y2="22.326"><stop offset="0" stop-color="#fff"/><stop offset="1"/></linearGradient><path opacity=".1" fill-rule="evenodd" clip-rule="evenodd" fill="url(#r)" d="M49.213 30.038l-36.945-7.001.42-2.164 36.946 7.001z"/><linearGradient id="s" gradientUnits="userSpaceOnUse" x1="46.707" y1="28.808" x2="49.784" y2="28.808"><stop offset="0" stop-color="#D4D4D4"/><stop offset=".033" stop-color="#DEDEDE"/><stop offset=".11" stop-color="#F1F1F1"/><stop offset=".19" stop-color="#FBFBFB"/><stop offset=".28" stop-color="#fff"/><stop offset=".33" stop-color="#EDEDED"/><stop offset=".665" stop-color="#A6A6A6"/><stop offset=".689" stop-color="#AEAEAE"/><stop offset=".725" stop-color="#C3C3C3"/><stop offset=".769" stop-color="#E6E6E6"/><stop offset=".769" stop-color="#E6E6E6"/><stop offset="1" stop-color="#A6A6A6"/></linearGradient><path fill="url(#s)" d="M48.192 31.225c.749.034 2.998-4.274.301-4.798-2.7-.525-1.95 4.722-.301 4.798z"/><linearGradient id="t" gradientUnits="userSpaceOnUse" x1="12.226" y1="22.729" x2="14.925" y2="22.729"><stop offset="0" stop-color="#D4D4D4"/><stop offset=".033" stop-color="#DEDEDE"/><stop offset=".11" stop-color="#F1F1F1"/><stop offset=".19" stop-color="#FBFBFB"/><stop offset=".28" stop-color="#fff"/><stop offset=".33" stop-color="#EDEDED"/><stop offset=".665" stop-color="#A6A6A6"/><stop offset=".689" stop-color="#AEAEAE"/><stop offset=".725" stop-color="#C3C3C3"/><stop offset=".769" stop-color="#E6E6E6"/><stop offset=".769" stop-color="#E6E6E6"/><stop offset="1" stop-color="#A6A6A6"/></linearGradient><path opacity=".8" fill="url(#t)" d="M13.528 24.85c.657.03 2.63-3.751.263-4.21-2.367-.461-1.709 4.142-.263 4.21z"/><linearGradient id="u" gradientUnits="userSpaceOnUse" x1="58.483" y1="49.828" x2="59.931" y2="49.828"><stop offset="0" stop-color="#A4A4A4"/><stop offset="1" stop-color="#727272"/></linearGradient><path fill="url(#u)" d="M58.496 49.22h1.379v1.216h-1.379z"/><linearGradient id="v" gradientUnits="userSpaceOnUse" x1="36.76" y1="50.273" x2="38.207" y2="50.273"><stop offset="0" stop-color="#A4A4A4"/><stop offset="1" stop-color="#727272"/></linearGradient><path fill="url(#v)" d="M36.772 49.666h1.379v1.216h-1.379z"/><linearGradient id="w" gradientUnits="userSpaceOnUse" x1="23.629" y1="43.425" x2="25.076" y2="43.425"><stop offset="0" stop-color="#A4A4A4"/><stop offset="1" stop-color="#727272"/></linearGradient><path fill="url(#w)" d="M23.642 42.817h1.378v1.215h-1.378z"/><linearGradient id="x" gradientUnits="userSpaceOnUse" x1="1.905" y1="43.87" x2="3.352" y2="43.87"><stop offset="0" stop-color="#A4A4A4"/><stop offset="1" stop-color="#727272"/></linearGradient><path fill="url(#x)" d="M1.918 43.263h1.378v1.215h-1.378z"/></svg>