<svg xmlns="http://www.w3.org/2000/svg" width="2000" height="60" viewBox="0 0 2000 60"><g><path fill="#575E6C" d="M731.655 10.395c-.436 0-.79.354-.79.789 0 .436.354.79.79.79.436 0 .79-.354.79-.79 0-.436-.353-.789-.79-.789zm-2.368-.79c.435 0 .79-.354.79-.79 0-.436-.354-.789-.79-.789-.436 0-.79.353-.79.789 0 .436.354.79.79.79zm2.368-1.579c-.436 0-.79.353-.79.789 0 .436.354.79.79.79.436 0 .79-.354.79-.79 0-.436-.353-.789-.79-.789zm.79-3.947h-3.948v1.58h3.948v-1.58zm1.578 5.526c.436 0 .79-.354.79-.79 0-.436-.354-.789-.79-.789-.436 0-.789.353-.789.789 0 .436.355.79.789.79zm0 2.369c.436 0 .79-.354.79-.79 0-.436-.354-.789-.79-.789-.436 0-.789.354-.789.789 0 .436.355.79.789.79zm-4.736 0c.435 0 .79-.354.79-.79 0-.436-.354-.789-.79-.789-.437 0-.79.354-.79.789 0 .436.354.79.79.79zm-2.369 2.368c.436 0 .79-.354.79-.79s-.354-.789-.79-.789-.789.353-.789.789.354.79.789.79zm9.474-10.263h-.79v1.58h.79v10.262h-11.842v-10.262h.79v-1.58h-.79c-.872 0-1.579.707-1.579 1.58v10.262c0 .872.707 1.579 1.579 1.579h11.842c.873 0 1.579-.707 1.579-1.579v-10.262c0-.873-.706-1.58-1.579-1.58zm-9.474 7.895c.436 0 .79-.354.79-.79 0-.436-.354-.789-.79-.789s-.789.354-.789.789c0 .436.354.79.789.79zm0-2.369c.436 0 .79-.354.79-.79 0-.436-.354-.789-.79-.789s-.789.353-.789.789c0 .436.354.79.789.79zm2.369 4.737c.435 0 .79-.354.79-.79s-.354-.789-.79-.789c-.436 0-.79.353-.79.789s.354.79.79.79zm-2.369-8.683c.436 0 .79-.354.79-.79v-1.579c0-.436-.354-.79-.79-.79-.436 0-.789.354-.789.79v1.579c0 .435.354.79.789.79zm7.105 0c.436 0 .79-.354.79-.79v-1.579c0-.436-.354-.79-.79-.79s-.789.354-.789.79v1.579c0 .435.355.79.789.79z"/><g fill="#575E6C"><path d="M295.999 6.367l-1.874-1.873-5.804 5.812 1.895 1.851zM295.738 2.888l-.96.96 1.874 1.874.96-.96c.517-.518.518-1.356 0-1.874-.517-.517-1.357-.517-1.874 0zM286.419 14.081l3.197-1.347-1.862-1.82zM296.104 8.001l-1.807 1.783v5.885h-9.547v-9.507h6.006l1.672-1.766h-9.428v13.104h13.104z"/></g><path fill="#575E6C" d="M390.5 5.8c-4.922 0-7.5 3.625-7.5 4.2s2.578 4.2 7.5 4.2c4.92 0 7.5-3.625 7.5-4.2s-2.58-4.2-7.5-4.2zm0 7.43c-1.842 0-3.334-1.447-3.334-3.23 0-1.785 1.493-3.232 3.334-3.232 1.84 0 3.333 1.447 3.333 3.232 0 1.783-1.493 3.23-3.333 3.23zm1.666-3.23c0 .892-.747 1.615-1.666 1.615-.921 0-1.668-.724-1.668-1.615 0-.894.747-1.617 1.668-1.617.496 0-.306 1.282 0 1.617.258.284 1.666-.41 1.666 0zM117.68 14.81c-.13 0-.247-.074-.298-.195-.037-.088-.966-2.17-4.434-2.582-.723-.086-1.588-.131-2.639-.141v2.594c0 .121-.065.229-.171.287-.105.055-.232.047-.331-.02l-6.665-4.485c-.089-.06-.142-.161-.142-.268 0-.108.053-.206.143-.269l6.667-4.486c.099-.068.224-.073.331-.017.107.058.17.166.17.282v2.414c1.45.191 7.689 1.312 7.689 6.566 0 .152-.107.285-.258.316l-.062.004zM123.258 14.806c-.15-.031-.258-.164-.258-.316 0-5.254 6.239-6.375 7.689-6.564v-2.415c0-.116.063-.225.17-.282.107-.057.232-.052.331.017l6.667 4.486c.09.062.143.16.143.268 0 .106-.053.207-.143.268l-6.665 4.485c-.099.066-.225.074-.331.02-.106-.059-.171-.166-.171-.287v-2.594c-1.051.01-1.917.055-2.639.141-3.468.412-4.396 2.494-4.434 2.582-.051.121-.168.195-.298.195l-.061-.004zM416.824 2.5h-12.649c-.648 0-1.175.527-1.175 1.177v12.647c0 .648.527 1.176 1.175 1.176h12.649c.648 0 1.176-.527 1.176-1.176v-12.647c0-.65-.527-1.177-1.176-1.177zm-.797 1.339c.278 0 .504.226.504.505 0 .278-.226.504-.504.504s-.504-.226-.504-.504c0-.28.226-.505.504-.505zm-1.804 0c.278 0 .504.226.504.505 0 .278-.226.504-.504.504s-.504-.226-.504-.504c0-.28.225-.505.504-.505zm2.433 12.317h-12.313v-10.056h12.313v10.056zM156.075 8.66c.021-.163.05-.324.05-.493 0-2.071-1.678-3.75-3.75-3.75-1.225 0-2.303.596-2.986 1.505-.247-.06-.5-.099-.764-.099-1.813 0-3.281 1.469-3.281 3.281l.015.148c-1.359.4-2.358 1.644-2.358 3.133 0 1.813 1.469 3.281 3.281 3.193h7.969c2.072.088 3.75-1.591 3.75-3.663-.001-1.402-.782-2.613-1.926-3.255zm-4.579 5.481h-2v-3.25h-1.809l2.813-2.813 2.813 2.813h-1.816v3.25zM376.905 11.439c-.816-1.363-.326-3.11 1.095-3.904l-1.527-2.553c-.437.247-.945.389-1.486.389-1.633 0-2.956-1.286-2.956-2.871h-3.056c.004.489-.123.985-.395 1.439-.815 1.363-2.629 1.827-4.052 1.036l-1.528 2.554c.44.241.82.595 1.091 1.047.815 1.361.327 3.104-1.089 3.9l1.528 2.553c.435-.245.94-.385 1.479-.385 1.627 0 2.948 1.277 2.956 2.856h3.056c-.001-.484.126-.975.394-1.424.814-1.361 2.624-1.825 4.046-1.04l1.528-2.553c-.437-.242-.815-.594-1.084-1.044zm-6.405 1.598c-1.739 0-3.148-1.36-3.148-3.037s1.41-3.037 3.148-3.037 3.148 1.36 3.148 3.037-1.409 3.037-3.148 3.037zM477.303 7.75h-13.605c-.69 0-.725.336-.688.747l.619 6.756c.038.411.135.747.824.747h12.093c.703 0 .787-.336.824-.747l.619-6.756c.038-.411.004-.747-.686-.747zm-.5-1.65c-.083-.33-.491-.6-.907-.6h-5.111c-.416 0-.997-.238-1.291-.529l-.447-.441c-.294-.292-.875-.53-1.291-.53h-2.442c-.416 0-.793.335-.839.746l-.219 1.954h12.698l-.151-.6zM1094 5.874l-1.4-1.374-5.6 5.496.004.004-.004.003 5.6 5.497 1.398-1.373-4.203-4.127zM1107 13.96l1.4 1.373 5.6-5.495-.004-.004.004-.004-5.6-5.497-1.398 1.374 4.203 4.126zM1054.626 6.5l1.374 1.4-5.496 5.6-.004-.004-.004.004-5.496-5.6 1.373-1.398 4.127 4.203z"/><g fill="#575E6C"><path d="M314.25 8.125c0-3.106-2.519-5.625-5.625-5.625s-5.625 2.519-5.625 5.625 2.519 5.625 5.625 5.625 5.625-2.519 5.625-5.625zm-5.625 4.219c-2.326 0-4.219-1.893-4.219-4.219s1.893-4.219 4.219-4.219 4.219 1.893 4.219 4.219-1.893 4.219-4.219 4.219zM317.588 15.1l-3.441-3.441c-.513.797-1.191 1.476-1.988 1.988l3.441 3.441c.549.549 1.439.549 1.988 0 .55-.549.55-1.44 0-1.988z"/></g><path fill="#575E6C" d="M764 15.629l6.5-11.258 6.5 11.258zM678 13.75c0 .329-.093.634-.24.902l-4.736-5.299 4.684-4.099c.182.29.292.628.292.996v7.5zm-7.5-3.434l6.518-5.705c-.267-.146-.568-.236-.893-.236h-11.249c-.325 0-.627.09-.894.236l6.518 5.705zm1.817-.345l-1.509 1.32c-.088.077-.198.115-.309.115s-.22-.038-.309-.115l-1.509-1.32-4.796 5.366c.287.18.624.288.989.288h11.249c.364 0 .701-.108.989-.288l-4.795-5.366zm-9.025-4.716c-.183.289-.292.627-.292.995v7.5c0 .329.092.634.24.902l4.736-5.3-4.684-4.097zM74.11 13.578c0 .234-.19.424-.425.424h-6.317c-.235 0-.425-.189-.425-.424s.19-.426.425-.426h6.317c.234 0 .425.191.425.426zm2.89-9.422v12.318c0 .565-.46 1.025-1.026 1.025h-10.948c-.566.001-1.026-.459-1.026-1.025v-12.318c0-.566.46-1.026 1.026-1.026h1.103c.08-.249.209-.457.416-.562.518-.259 1.137.284 1.421.562h.671c.08-.249.209-.457.417-.562.517-.259 1.136.284 1.421.562h.831c.08-.249.209-.457.417-.562.517-.259 1.136.284 1.421.562h.775c.08-.249.209-.457.416-.562.518-.259 1.136.284 1.421.562h.217c.567-.001 1.027.459 1.027 1.026zm-2.492-1.027h.367c-.197-.108-.28-.078-.293-.071l-.074.071zm-.687 1.262c-.085.083-.138.198-.138.326 0 .251.205.456.456.456.252 0 .457-.205.457-.456 0-.169-.093-.313-.229-.393l.043.431c.022.15-.082.289-.232.311l-.039.002c-.134 0-.251-.098-.271-.234l-.047-.443zm-1.926-1.262h.367c-.197-.108-.28-.078-.293-.071l-.074.071zm-.687 1.262c-.085.083-.138.198-.138.326 0 .251.205.456.456.456.252 0 .457-.205.457-.456 0-.169-.092-.313-.229-.393l.043.431c.022.15-.082.289-.231.311l-.04.002c-.134 0-.251-.098-.271-.234l-.047-.443zm-1.981-1.262h.366c-.197-.108-.28-.078-.293-.071l-.073.071zm-.687 1.262c-.085.083-.138.198-.138.326 0 .251.205.456.456.456.252 0 .456-.205.456-.456 0-.169-.092-.313-.228-.393l.043.431c.021.15-.082.289-.231.311l-.04.002c-.133 0-.25-.098-.27-.234l-.048-.443zm-1.822-1.262h.367c-.197-.108-.28-.078-.294-.071l-.073.071zm-.687 1.262c-.085.083-.138.198-.138.326 0 .251.204.456.456.456s.456-.205.456-.456c0-.169-.092-.313-.228-.393l.043.431c.022.15-.082.289-.232.311l-.04.002c-.134 0-.25-.098-.271-.234l-.046-.443zm10.284-.235c0-.188-.153-.342-.342-.342h-1.4c.336.162.569.506.569.903 0 .554-.45 1.004-1.004 1.004-.553 0-1.003-.45-1.003-1.004 0-.397.233-.741.569-.903h-1.744c.336.162.569.506.569.903 0 .554-.45 1.004-1.003 1.004-.553 0-1.003-.45-1.003-1.004 0-.397.233-.741.57-.903h-1.801c.336.162.569.506.569.903 0 .554-.45 1.004-1.004 1.004-.553 0-1.003-.45-1.003-1.004 0-.397.233-.741.569-.903h-1.641c.336.162.569.506.569.903 0 .554-.45 1.004-1.003 1.004s-1.003-.45-1.003-1.004c0-.397.233-.741.569-.903h-.889c-.189 0-.342.153-.342.342v12.318c0 .188.153.342.342.342h10.947c.188 0 .342-.153.342-.342v-12.318h.001zm-2.63 6.076h-6.317c-.235 0-.425.19-.425.426 0 .234.19.424.425.424h6.317c.234 0 .425-.189.425-.424 0-.236-.191-.426-.425-.426zm1.009-2.92h-8.388c-.234 0-.424.19-.424.425s.19.425.424.425h8.388c.235 0 .425-.189.425-.425 0-.235-.19-.425-.425-.425zM953.286 4.562v2.171c1.127.852 1.857 2.206 1.857 3.733 0 2.578-2.079 4.667-4.643 4.667-2.565 0-4.643-2.089-4.643-4.667 0-1.527.729-2.882 1.857-3.733v-2.171c-2.196 1.048-3.714 3.299-3.714 5.905 0 3.608 2.91 6.533 6.5 6.533s6.5-2.925 6.5-6.533c0-2.606-1.518-4.857-3.714-5.905zM951.429 9.536v-5.605c0-.515-.412-.931-.929-.931-.514 0-.929.423-.929.931v5.605c0 .515.413.931.929.931.513 0 .929-.424.929-.931zM175.995 12.409c-.662-.665-1.505-1.007-2.292-1.007h-.422l-.927-.934 3.709-3.734c.927-.934.927-2.8 0-3.734l-5.563 5.601-5.563-5.601c-.927.934-.927 2.8 0 3.734l3.708 3.734-.927.934h-.422c-.787 0-1.63.343-2.292 1.007-1.184 1.188-1.344 2.953-.357 3.942.435.436 1.02.649 1.64.649.787 0 1.629-.343 2.292-1.007.777-.78 1.113-1.808.973-2.703l.949-.955.949.955c-.14.895.196 1.923.973 2.703.663.665 1.505 1.007 2.292 1.007.62 0 1.205-.213 1.64-.649.985-.99.825-2.755-.36-3.942zm-7.802 1.988c-.111.261-.275.5-.488.713-.212.213-.452.378-.713.49-.234.101-.478.154-.706.154-.22 0-.531-.049-.767-.286-.234-.234-.283-.544-.283-.763 0-.226.053-.469.153-.703.112-.261.276-.501.488-.714.212-.213.452-.377.713-.49.234-.101.478-.154.706-.154.22 0 .531.049.767.286.234.234.283.543.283.762 0 .229-.053.472-.153.705zm2.307-2.609c-.724 0-1.311-.592-1.311-1.32 0-.729.587-1.32 1.311-1.32.725 0 1.311.591 1.311 1.32 0 .728-.587 1.32-1.311 1.32zm4.98 3.681c-.236.237-.547.286-.768.286-.228 0-.471-.054-.706-.154-.26-.112-.5-.277-.712-.49-.212-.213-.376-.453-.488-.713-.101-.234-.153-.477-.153-.703 0-.218.049-.528.283-.762.236-.236.547-.286.767-.286.228 0 .472.053.706.154.261.112.501.277.713.49.211.213.376.453.488.714.1.233.153.477.153.703.001.217-.049.527-.283.761z"/><g fill="#575E6C"><path d="M492 2.5h-.006v4.008h4.006v-.008zM491.619 7.008h-.125v-4.508h-6.494v15h11v-10.492h-4.006z"/></g><path fill="#575E6C" d="M350.5 2.5c4.14 0 7.5 3.36 7.5 7.5 0 4.14-3.36 7.5-7.5 7.5-4.139 0-7.5-3.359-7.5-7.5 0-4.139 3.36-7.5 7.5-7.5zm-4.381 6.123v2.84h2.918v2.919h2.839v-2.919h2.92v-2.84h-2.92v-2.92h-2.84v2.919h-2.917zM525.195 4.695c2.927-2.927 7.681-2.927 10.608 0 2.928 2.928 2.928 7.681 0 10.609-2.928 2.926-7.681 2.928-10.608 0-2.927-2.929-2.927-7.681 0-10.609zm1.231 7.429l2.008 2.008 2.064-2.064 2.065 2.065 2.008-2.008-2.064-2.065 2.065-2.064-2.008-2.009-2.065 2.064-2.065-2.064-2.008 2.009 2.064 2.065-2.064 2.063zM573.313 2.5c-2.589 0-4.688 2.099-4.688 4.688 0 .293.027.58.079.859l-5.704 5.703v2.813c0 .518.42.938.938.938h.938v-.938h1.875v-1.875h1.875v-1.875h1.875l1.217-1.217c.498.181 1.035.279 1.596.279 2.589 0 4.688-2.099 4.688-4.688s-2.101-4.687-4.689-4.687zm1.404 4.689c-.776 0-1.406-.63-1.406-1.406 0-.777.63-1.406 1.406-1.406s1.406.629 1.406 1.406c0 .777-.63 1.406-1.406 1.406zM453.924 11.96l1.211 5.539-4.635-2.923-4.635 2.924 1.211-5.539-4.076-3.732 5.384-.499 2.116-5.23 2.116 5.23 5.384.499-4.076 3.731z"/><g fill="#575E6C"><path d="M695.857 12.155v3.206h-10.714v-3.206h-2.143v5.345h15v-5.345zM688.749 12.98h3.502v-6.112h1.749l-3.5-4.368-3.5 4.368h1.749z"/></g><path fill="#575E6C" d="M430.5 3l-4.5 5.836h2.249v8.164h4.502v-8.164h2.249zM555.188 12.813h-.938c-1.035 0-1.875-.839-1.875-1.874v-.603c.415-.493.712-1.076.897-1.692.019-.104.119-.155.186-.227.359-.359.43-.964.16-1.396-.036-.065-.103-.123-.099-.204l-.001-1.649c-.015-.664-.204-1.354-.669-1.845-.376-.396-.892-.633-1.423-.734-.672-.128-1.375-.122-2.041.047-.577.146-1.119.483-1.454.984-.297.435-.427.964-.449 1.485-.008.56-.002 1.12-.004 1.681.013.112-.082.188-.125.281-.254.46-.142 1.087.265 1.421.104.071.123.202.16.313.178.554.473 1.066.845 1.513v.622c0 1.036-.839 1.875-1.875 1.875h-.938s-1.699.469-2.813 2.813v.938c0 .519.419.938.938.938h13.125c.519 0 .938-.419.938-.938v-.938c-1.111-2.343-2.81-2.811-2.81-2.811zM711.311 15.644v-2.088h.522c1.959 0 3.554-1.596 3.554-3.556 0-1.959-1.595-3.554-3.554-3.554-1.959 0-3.554 1.595-3.554 3.554 0 .148.009.297.028.443h2.8419999999999996l-.894.892-2.813 2.805-.37.368-.369-.368-2.809-2.805-.894-.892h2.683l-.016-.443c0-3.399 2.766-6.166 6.166-6.166 3.4 0 6.167 2.767 6.167 6.166 0 3.401-2.766 6.166-6.167 6.166h-.522v-.522z"/><g fill="#575E6C"><path d="M1135.779 7.71h-1.052l-.092.124-.664.793h.891c.121 0 .222.099.222.22v4.909c0 .122-.101.222-.222.222h-8.725c-.121 0-.221-.1-.221-.222v-4.909c0-.121.1-.22.221-.22h.609l-.666-.794-.091-.123h-.769c-.123 0-.222.1-.222.221v7.814c0 .122.099.22.222.22h4.311v.636l-.965.611c-.103.066-.087.118.034.118h3.833c.12 0 .137-.052.033-.116l-.993-.622v-.627h4.305c.122 0 .221-.099.221-.22v-7.814c.001-.121-.098-.221-.22-.221zM1129.968 10.572c.107.129.251.193.391.193.143 0 .284-.064.392-.193l2.948-3.522c.216-.256.119-.466-.217-.466h-2.16v-3.305c0-.335-.274-.61-.61-.61h-.705c-.334 0-.609.275-.609.61v3.304h-2.16c-.335 0-.433.209-.218.466l2.948 3.523z"/></g><g fill="#575E6C"><path d="M1206.83 17h7.318l1.828-11.292h-10.976l1.83 11.292zm6.287-1.26h-5.257l-1.421-8.771h8.098l-1.42 8.771zM1212.342 3.791v-.791h-3.682v.791h-3.66v.91h11v-.91zM1210.123 14.735l-1.14-6.751-1.108.002 1.108 6.749zM1213.104 7.986l-1.108-.002-1.139 6.751h1.139z"/></g><g fill="#575E6C"><path d="M227.503 4.506h9.497v2.088h-9.497zM227.503 8.944h9.497v2.087h-9.497zM227.503 13.406h9.497v2.088h-9.497z"/><circle cx="225.042" cy="5.548" r="1.042"/><circle cx="225.042" cy="9.98" r="1.042"/><circle cx="225.042" cy="14.433" r="1.042"/></g><g fill="#575E6C"><path d="M1155.779 7.793h-2.725l-.092.124.336.793h1.563c.121 0 .222.1.222.22v4.909c0 .122-.101.222-.222.222h-8.725c-.121 0-.221-.1-.221-.222v-4.909c0-.12.1-.22.221-.22h1.609l.334-.794-.091-.123h-2.769c-.123 0-.222.1-.222.221v7.814c0 .122.099.221.222.221h4.311v.637l-.965.61c-.103.065-.087.118.034.118h3.833c.12 0 .137-.053.033-.116l-.993-.622v-.627h4.305c.122 0 .221-.099.221-.221v-7.814c.002-.121-.097-.221-.219-.221zM1147.378 6.767h2.16v3.305c0 .334.274.609.61.609h.705c.334 0 .609-.275.609-.609v-3.305h2.16c.335 0 .433-.209.218-.466l-2.949-3.522c-.107-.129-.251-.192-.391-.192-.143 0-.284.063-.392.192l-2.948 3.522c-.215.257-.118.466.218.466z"/></g><path fill="#575E6C" d="M1237 6.379c-1.228-2.025-3.453-3.379-5.995-3.379-3.869 0-7.005 3.134-7.005 7s3.136 7 7.005 7c2.522 0 4.732-1.333 5.966-3.333l-6.063-3.636 6.092-3.652zm-4.812-1.754c.771 0 1.396.625 1.396 1.396s-.625 1.396-1.396 1.396-1.396-.625-1.396-1.396.625-1.396 1.396-1.396z"/><g fill="#575E6C"><path d="M44 6.417h13v1.465h-13zM44 9.211h13v1.464h-13zM44 12.005h13v1.464h-13zM44 14.8h8.667v1.463h-8.667zM44 3.737h13v1.464h-13z"/></g><path fill="#575E6C" d="M336 8.818h-4.318v-4.318h-2.364v4.318h-4.318v2.364h4.318v4.318h2.364v-4.318h4.318zM243.939 5.908l4.153 4.155-4.153 4.153 1.846 1.847 4.153-4.156 4.151 4.156 1.849-1.847-4.156-4.153 4.156-4.155-1.849-1.845-4.151 4.154-4.153-4.154z"/><g fill="#575E6C"><path d="M271.966 4.5h3.034v11h-3.034zM266 4.5h3.034v11h-3.034z"/></g><path fill="#575E6C" d="M517.176 7.783h-13.26c-.732 0-.924.354-.884.789l.176 7.139c.04.435.143.789.874.789h12.824c.746 0 .833-.354.874-.789l.213-7.136c.04-.434-.085-.792-.817-.792zM517.809 5.97c-.097-.388-.578-.706-1.07-.706h-6.033c-.491 0-1.176-.281-1.524-.623l-.527-.518c-.347-.343-1.034-.623-1.524-.623h-2.882c-.49 0-.937.394-.99.877l-.259 2.299h14.988l-.179-.706z"/><g fill="#575E6C"><circle cx="645" cy="10" r="2"/><circle cx="656" cy="10" r="2"/><circle cx="650.5" cy="10" r="2"/></g><g fill="#575E6C"><circle cx="832.75" cy="10" r="2"/><circle cx="827.25" cy="10" r="2"/></g><path fill="#575E6C" d="M846 13.897l4.5-7.794 4.5 7.794zM866.103 5.5l7.794 4.5-7.794 4.5zM885.5 6.103l4.5 7.794 4.5-7.794zM913.897 5.5l-7.794 4.5 7.794 4.5z"/><g fill="#575E6C"><path d="M925.139 4.643h3.206v-2.143h-5.345v15h5.345v-2.143h-3.206zM938 10l-4.367-3.5v1.749h-6.112v3.502h6.112v1.749z"/></g><path fill="#575E6C" d="M976 8.818h-4.318v-4.318h-2.364v4.318h-4.318v2.364h4.318v4.318h2.364v-4.318h4.318zM985 8.75h11v2.5h-11zM1074.126 13.5l1.374-1.4-5.496-5.6-.004.004-.004-.004-5.496 5.6 1.373 1.398 4.127-4.203zM1025 6.538l3.461 3.462-3.461 3.461 1.539 1.54 3.46-3.463 3.461 3.463 1.54-1.54-3.463-3.461 3.463-3.462-1.54-1.539-3.461 3.462-3.46-3.462zM750.5 2.5c-4.142 0-7.5 3.357-7.5 7.5s3.358 7.5 7.5 7.5 7.5-3.357 7.5-7.5-3.358-7.5-7.5-7.5zm-.769 11.39l-.58-.58-.003.003-3.536-3.535 2.122-2.121 1.994 1.993 3.539-3.539 2.121 2.121-5.657 5.658zM1015.66 7.173l-1.414-1.415-5.662 5.66-2.83-2.83-1.414 1.412 4.242 4.243.004-.004.004.004zM34.833 3.5h-10.833v4h2.167v-1.833h3.25v8.667h-1.417v2.166h5v-2.166h-1.416v-8.667h3.249v1.833h2.167v-4z"/><g fill="#575E6C"><path d="M1195.188 2.5h-.938v6.094h-7.5v-6.094h-3.75v15h15v-12.187l-2.812-2.813zm.937 14.063h-11.25v-6.563h11.25v6.563zM1185.813 10.938h9.375v.938h-9.375zM1185.813 12.813h9.375v.938h-9.375zM1185.813 14.688h9.375v.938h-9.375zM1191.438 3.438h1.875v4.219h-1.875z"/></g><g fill="#575E6C"><path d="M1168.783 9.612l2.06 2.06 2.377-2.378 1.441 1.441.001-4.941h-4.942l1.44 1.44zM1176 2.5h-13v15h15v-15h-2zm.5 13.5h-12v-12h12v12z"/></g><g fill="#575E6C"><path d="M192 2.5h-.006v4.008h4.006v-.008zM191.619 7.008h-.125v-4.508h-6.494v15h11v-10.492h-4.381zm-1.119 8.627l-3.494-3.494 2.039-.001-.001-3.362h2.913l.001 3.362 2.037.001-3.495 3.494z"/></g><g fill="#575E6C"><path d="M212 2.5h-.006v4.008h4.006v-.008zM211.619 7.008h-.125v-4.508h-6.494v15h11v-10.492h-4.381zm.338 5.264l-.001 3.362h-2.913l.001-3.362-2.039-.001 3.494-3.494 3.495 3.494-2.037.001z"/></g><path fill="#575E6C" d="M796 4.5h-13v11h15v-11h-2zm-11 9v-7h11v7h-11zM816 4.5h-13v11h15v-11h-2zm-4.5 9v-5h-2v5h-4.5v-7h11v7h-4.5z"/><g fill="#575E6C"><path d="M96.779 9.359l-1.014-1.014c-.142-.142-.333-.222-.533-.222-.201 0-.393.08-.533.222l-.281.28v-5.287h-10.418v13.324h10.418v-3.837l2.361-2.399c.295-.295.295-.772 0-1.067zm-6.281 3.213c-.089.089-.153.199-.189.318l-.432 1.45c-.079.266-.006.553.189.748.144.145.336.222.534.222l.214-.031 1.452-.432c.12-.036.229-.102.318-.189l.703-.703v1.576h-8.155v-11.062h8.155v5.313l-.99.991m-.279 3.374l-1.451.432.432-1.452 3.256-3.256 1.021 1.021-3.258 3.255zm3.589-3.626l-1.013-1.014.606-.606 1.014 1.014-.607.606zM86.216 5.84h6.081v.778h-6.081zM86.216 7.891h6.081v.778h-6.081z"/></g><g fill="#575E6C"><path d="M604 2.5v15h13v-15h-13zm11.588 13.596h-4.438v-2.729h-1.301v2.729h-4.438v-11.095h10.177v11.094999999999999zM606.732 6.153h7.588v.971h-7.588zM606.732 8.713h7.588v.97h-7.588zM606.733 11.259h7.587v.969h-7.587z"/></g><g fill="#575E6C"><path d="M624 2.5v15h13v-15h-13zm11.588 13.596h-10.177v-11.095h10.177v11.094999999999999zM626.732 6.153h7.588v.971h-7.588zM626.732 8.713h7.588v.97h-7.588zM626.733 11.259h7.587v.969h-7.587zM626.733 13.696h7.587v.969h-7.587z"/></g><g fill="#575E6C"><path d="M11.286 11.449l-3.145-4.773-2.36 7.637h9.438l-2.36-4.295z"/><circle cx="13.344" cy="7.152" r="1.465"/><path d="M16 2.5h-13v15h15v-15h-2zm.5 3.101v10.399h-12v-12h12v1.601z"/></g><path fill="#575E6C" d="M596.394 8.935h-1.596v-3.206h-3.229v-3.229h-8.569v8.565h3.229v3.229h3.202v3.206h8.569v-8.565h-1.606zm-10.165-3.206v3.731h-1.623v-5.354h5.355v1.623h-3.732zm3.203 3.206v3.752h-1.595v-5.353h5.355v1.601h-3.76zm6.962 6.959h-5.355v-5.353h5.355v5.353z"/><g fill="#283246"><path d="M1244.359 55.189l11.314-11.314.951.951-11.314 11.314zM1255.832 47.494l-2.047 2.047c.022.15.048.301.048.459 0 1.783-1.493 3.23-3.333 3.23l-.367-.037-.911.912c.409.055.831.094 1.278.094 4.92 0 7.5-3.623 7.5-4.199 0-.307-.74-1.477-2.168-2.506zM1247.214 50.457c-.022-.15-.048-.301-.048-.457 0-1.785 1.493-3.232 3.334-3.232l.367.037.91-.91c-.408-.055-.83-.094-1.277-.094-4.922 0-7.5 3.625-7.5 4.199 0 .307.738 1.477 2.166 2.504l2.048-2.047z"/></g><g fill="#C8DEEE"><path d="M1168.616 29.612l2.06 2.06 2.377-2.378 1.441 1.441.001-4.941h-4.942l1.44 1.44zM1175.833 22.5h-13v15h15v-15h-2zm.5 13.5h-12v-12h12v12z"/></g></g><g><path fill="#C8DEEE" d="M731.655 30.395c-.436 0-.79.354-.79.789s.354.79.79.79c.436 0 .79-.354.79-.79s-.353-.789-.79-.789zm-2.368-.79c.435 0 .79-.354.79-.79 0-.436-.354-.789-.79-.789-.436 0-.79.353-.79.789 0 .436.354.79.79.79zm2.368-1.579c-.436 0-.79.353-.79.789 0 .436.354.79.79.79.436 0 .79-.354.79-.79 0-.436-.353-.789-.79-.789zm.79-3.947h-3.948v1.58h3.948v-1.58zm1.578 5.526c.436 0 .79-.354.79-.79 0-.436-.354-.789-.79-.789-.436 0-.789.353-.789.789 0 .436.355.79.789.79zm0 2.369c.436 0 .79-.354.79-.79s-.354-.789-.79-.789c-.436 0-.789.354-.789.789s.355.79.789.79zm-4.736 0c.435 0 .79-.354.79-.79s-.354-.789-.79-.789c-.437 0-.79.354-.79.789s.354.79.79.79zm-2.369 2.368c.436 0 .79-.354.79-.79 0-.436-.354-.789-.79-.789s-.789.354-.789.789c0 .436.354.79.789.79zm9.474-10.263h-.79v1.58h.79v10.262h-11.842v-10.262h.79v-1.58h-.79c-.872 0-1.579.707-1.579 1.58v10.262c0 .872.707 1.579 1.579 1.579h11.842c.873 0 1.579-.707 1.579-1.579v-10.262c0-.873-.706-1.58-1.579-1.58zm-9.474 7.895c.436 0 .79-.354.79-.79s-.354-.789-.79-.789-.789.354-.789.789.354.79.789.79zm0-2.369c.436 0 .79-.354.79-.79 0-.436-.354-.789-.79-.789s-.789.353-.789.789c0 .436.354.79.789.79zm2.369 4.737c.435 0 .79-.354.79-.79 0-.436-.354-.789-.79-.789-.436 0-.79.354-.79.789 0 .436.354.79.79.79zm-2.369-8.683c.436 0 .79-.354.79-.79v-1.579c0-.436-.354-.79-.79-.79-.436 0-.789.354-.789.79v1.579c0 .435.354.79.789.79zm7.105 0c.436 0 .79-.354.79-.79v-1.579c0-.436-.354-.79-.79-.79s-.789.354-.789.79v1.579c0 .435.355.79.789.79z"/><g fill="#C8DEEE"><path d="M295.999 26.367l-1.874-1.873-5.804 5.812 1.895 1.85zM295.738 22.888l-.96.96 1.874 1.874.96-.96c.517-.518.518-1.356 0-1.874-.517-.517-1.357-.517-1.874 0zM286.419 34.081l3.197-1.348-1.862-1.819zM296.104 28.001l-1.807 1.783v5.885h-9.547v-9.507h6.006l1.672-1.766h-9.428v13.104h13.104z"/></g><path fill="#C8DEEE" d="M390.5 25.8c-4.922 0-7.5 3.625-7.5 4.2s2.578 4.2 7.5 4.2c4.92 0 7.5-3.625 7.5-4.2s-2.58-4.2-7.5-4.2zm0 7.429c-1.842 0-3.334-1.446-3.334-3.229 0-1.785 1.493-3.232 3.334-3.232 1.84 0 3.333 1.447 3.333 3.232 0 1.783-1.493 3.229-3.333 3.229zm1.666-3.229c0 .892-.747 1.615-1.666 1.615-.921 0-1.668-.724-1.668-1.615 0-.894.747-1.617 1.668-1.617.496 0-.306 1.282 0 1.617.258.284 1.666-.41 1.666 0zM117.68 34.81c-.13 0-.247-.074-.298-.195-.037-.088-.966-2.17-4.434-2.582-.723-.086-1.588-.131-2.639-.141v2.594c0 .121-.065.229-.171.287-.105.055-.232.047-.331-.02l-6.665-4.485c-.089-.06-.142-.161-.142-.268 0-.108.053-.206.143-.269l6.667-4.486c.099-.068.224-.073.331-.017.107.058.17.166.17.282v2.414c1.45.189 7.689 1.311 7.689 6.564 0 .152-.107.285-.258.316l-.062.006zM123.258 34.806c-.15-.031-.258-.164-.258-.316 0-5.253 6.239-6.375 7.689-6.564v-2.414c0-.116.063-.225.17-.282.107-.057.232-.052.331.017l6.667 4.486c.09.061.143.159.143.267 0 .106-.053.207-.143.268l-6.665 4.485c-.099.066-.225.074-.331.02-.106-.059-.171-.166-.171-.287v-2.594c-1.051.01-1.917.055-2.639.141-3.468.412-4.396 2.494-4.434 2.582-.051.121-.168.195-.298.195l-.061-.004zM416.824 22.5h-12.649c-.648 0-1.175.527-1.175 1.177v12.647c0 .648.527 1.176 1.175 1.176h12.649c.648 0 1.176-.527 1.176-1.176v-12.647c0-.65-.527-1.177-1.176-1.177zm-.797 1.339c.278 0 .504.226.504.505 0 .278-.226.504-.504.504s-.504-.226-.504-.504c0-.28.226-.505.504-.505zm-1.804 0c.278 0 .504.226.504.505 0 .278-.226.504-.504.504s-.504-.226-.504-.504c0-.28.225-.505.504-.505zm2.433 12.317h-12.313v-10.056h12.313v10.056zM156.075 28.66c.021-.163.05-.324.05-.493 0-2.071-1.678-3.75-3.75-3.75-1.225 0-2.303.596-2.986 1.505-.247-.06-.5-.099-.764-.099-1.813 0-3.281 1.469-3.281 3.281l.015.148c-1.359.4-2.358 1.644-2.358 3.133 0 1.813 1.469 3.281 3.281 3.193h7.969c2.072.088 3.75-1.591 3.75-3.662-.001-1.403-.782-2.614-1.926-3.256zm-4.579 5.481h-2v-3.249h-1.809l2.813-2.813 2.813 2.813h-1.816v3.249zM376.905 31.439c-.816-1.363-.326-3.11 1.095-3.904l-1.527-2.553c-.437.247-.945.389-1.486.389-1.633 0-2.956-1.286-2.956-2.871h-3.056c.004.489-.123.985-.395 1.439-.815 1.363-2.629 1.827-4.052 1.036l-1.528 2.554c.44.241.82.595 1.091 1.047.815 1.361.327 3.104-1.089 3.9l1.528 2.553c.435-.244.94-.385 1.479-.385 1.627 0 2.948 1.277 2.956 2.856h3.056c-.001-.484.126-.976.394-1.425.814-1.36 2.624-1.824 4.046-1.04l1.528-2.553c-.437-.241-.815-.593-1.084-1.043zm-6.405 1.598c-1.739 0-3.148-1.36-3.148-3.037 0-1.677 1.41-3.037 3.148-3.037s3.148 1.36 3.148 3.037c0 1.677-1.409 3.037-3.148 3.037zM477.303 27.75h-13.605c-.69 0-.725.336-.688.747l.619 6.756c.038.411.135.747.824.747h12.093c.703 0 .787-.336.824-.747l.619-6.756c.038-.411.004-.747-.686-.747zm-.5-1.65c-.083-.33-.491-.6-.907-.6h-5.111c-.416 0-.997-.238-1.291-.529l-.447-.441c-.294-.291-.875-.529-1.291-.529h-2.442c-.416 0-.793.335-.839.746l-.219 1.955h12.698l-.151-.602zM1094 25.874l-1.4-1.374-5.6 5.496.004.004-.004.003 5.6 5.497 1.398-1.373-4.203-4.127zM1107 33.96l1.4 1.373 5.6-5.495-.004-.004.004-.004-5.6-5.497-1.398 1.374 4.203 4.126zM1054.626 26.5l1.374 1.4-5.496 5.6-.004-.004-.004.004-5.496-5.6 1.373-1.398 4.127 4.203z"/><g fill="#C8DEEE"><path d="M314.25 28.125c0-3.106-2.519-5.625-5.625-5.625s-5.625 2.519-5.625 5.625 2.519 5.625 5.625 5.625 5.625-2.519 5.625-5.625zm-5.625 4.219c-2.326 0-4.219-1.893-4.219-4.219s1.893-4.219 4.219-4.219 4.219 1.893 4.219 4.219-1.893 4.219-4.219 4.219zM317.588 35.1l-3.441-3.441c-.513.797-1.191 1.476-1.988 1.988l3.441 3.441c.549.549 1.439.549 1.988 0 .55-.549.55-1.44 0-1.988z"/></g><path fill="#C8DEEE" d="M764 35.629l6.5-11.258 6.5 11.258zM678 33.75c0 .329-.093.634-.24.902l-4.736-5.299 4.684-4.099c.182.29.292.628.292.996v7.5zm-7.5-3.434l6.518-5.705c-.267-.146-.568-.236-.893-.236h-11.249c-.325 0-.627.09-.894.236l6.518 5.705zm1.817-.345l-1.509 1.32c-.088.077-.198.115-.309.115s-.22-.038-.309-.115l-1.509-1.32-4.796 5.366c.287.18.624.287.989.287h11.249c.364 0 .701-.107.989-.287l-4.795-5.366zm-9.025-4.716c-.183.289-.292.627-.292.995v7.5c0 .329.092.634.24.902l4.736-5.3-4.684-4.097zM74.11 33.577c0 .234-.19.424-.425.424h-6.317c-.235 0-.425-.189-.425-.424s.19-.426.425-.426h6.317c.234 0 .425.192.425.426zm2.89-9.421v12.318c0 .565-.46 1.025-1.026 1.025h-10.948c-.566 0-1.026-.46-1.026-1.025v-12.318c0-.566.46-1.026 1.026-1.026h1.103c.08-.249.209-.457.416-.562.518-.259 1.137.284 1.421.562h.671c.08-.249.209-.457.417-.562.517-.259 1.136.284 1.421.562h.831c.08-.249.209-.457.417-.562.517-.259 1.136.284 1.421.562h.775c.08-.249.209-.457.416-.562.518-.259 1.136.284 1.421.562h.217c.567-.001 1.027.459 1.027 1.026zm-2.492-1.027h.367c-.197-.108-.28-.078-.293-.071l-.074.071zm-.687 1.262c-.085.083-.138.198-.138.326 0 .251.205.456.456.456.252 0 .457-.205.457-.456 0-.169-.093-.313-.229-.393l.043.431c.022.15-.082.289-.232.311l-.039.002c-.134 0-.251-.098-.271-.234l-.047-.443zm-1.926-1.262h.367c-.197-.108-.28-.078-.293-.071l-.074.071zm-.687 1.262c-.085.083-.138.198-.138.326 0 .251.205.456.456.456.252 0 .457-.205.457-.456 0-.169-.092-.313-.229-.393l.043.431c.022.15-.082.289-.231.311l-.04.002c-.134 0-.251-.098-.271-.234l-.047-.443zm-1.981-1.262h.366c-.197-.108-.28-.078-.293-.071l-.073.071zm-.687 1.262c-.085.083-.138.198-.138.326 0 .251.205.456.456.456.252 0 .456-.205.456-.456 0-.169-.092-.313-.228-.393l.043.431c.021.15-.082.289-.231.311l-.04.002c-.133 0-.25-.098-.27-.234l-.048-.443zm-1.822-1.262h.367c-.197-.108-.28-.078-.294-.071l-.073.071zm-.687 1.262c-.085.083-.138.198-.138.326 0 .251.204.456.456.456s.456-.205.456-.456c0-.169-.092-.313-.228-.393l.043.431c.022.15-.082.289-.232.311l-.04.002c-.134 0-.25-.098-.271-.234l-.046-.443zm10.284-.235c0-.188-.153-.342-.342-.342h-1.4c.336.162.569.506.569.903 0 .554-.45 1.004-1.004 1.004-.553 0-1.003-.45-1.003-1.004 0-.397.233-.741.569-.903h-1.744c.336.162.569.506.569.903 0 .554-.45 1.004-1.003 1.004-.553 0-1.003-.45-1.003-1.004 0-.397.233-.741.57-.903h-1.801c.336.162.569.506.569.903 0 .554-.45 1.004-1.004 1.004-.553 0-1.003-.45-1.003-1.004 0-.397.233-.741.569-.903h-1.641c.336.162.569.506.569.903 0 .554-.45 1.004-1.003 1.004s-1.003-.45-1.003-1.004c0-.397.233-.741.569-.903h-.889c-.189 0-.342.153-.342.342v12.318c0 .188.153.342.342.342h10.947c.188 0 .342-.153.342-.342v-12.318h.001zm-2.63 6.076h-6.317c-.235 0-.425.19-.425.426 0 .234.19.423.425.423h6.317c.234 0 .425-.189.425-.423 0-.236-.191-.426-.425-.426zm1.009-2.92h-8.388c-.234 0-.424.19-.424.425s.19.425.424.425h8.388c.235 0 .425-.189.425-.425 0-.235-.19-.425-.425-.425zM953.286 24.562v2.171c1.127.852 1.857 2.206 1.857 3.733 0 2.577-2.079 4.666-4.643 4.666-2.565 0-4.643-2.089-4.643-4.666 0-1.527.729-2.882 1.857-3.733v-2.171c-2.196 1.048-3.714 3.299-3.714 5.905 0 3.607 2.91 6.533 6.5 6.533s6.5-2.926 6.5-6.533c0-2.606-1.518-4.857-3.714-5.905zM951.429 29.536v-5.605c0-.515-.412-.931-.929-.931-.514 0-.929.423-.929.931v5.605c0 .515.413.931.929.931.513 0 .929-.424.929-.931zM175.995 32.408c-.662-.664-1.505-1.007-2.292-1.007h-.422l-.927-.934 3.709-3.734c.927-.934.927-2.8 0-3.734l-5.563 5.601-5.563-5.6c-.927.934-.927 2.8 0 3.734l3.708 3.734-.927.934h-.422c-.787 0-1.63.343-2.292 1.007-1.184 1.188-1.344 2.953-.357 3.942.435.437 1.02.649 1.64.649.787 0 1.629-.343 2.292-1.008.777-.779 1.113-1.808.973-2.703l.949-.955.949.955c-.14.896.196 1.924.973 2.703.663.665 1.505 1.008 2.292 1.008.62 0 1.205-.213 1.64-.649.985-.99.825-2.755-.36-3.943zm-7.802 1.989c-.111.261-.275.5-.488.713-.212.214-.452.378-.713.49-.234.101-.478.154-.706.154-.22 0-.531-.049-.767-.286-.234-.234-.283-.544-.283-.763 0-.226.053-.469.153-.702.112-.262.276-.501.488-.714.212-.213.452-.378.713-.49.234-.101.478-.154.706-.154.22 0 .531.05.767.286.234.234.283.544.283.763 0 .227-.053.469-.153.703zm2.307-2.609c-.724 0-1.311-.592-1.311-1.32 0-.729.587-1.32 1.311-1.32.725 0 1.311.591 1.311 1.32 0 .728-.587 1.32-1.311 1.32zm4.98 3.681c-.236.237-.547.286-.768.286-.228 0-.471-.054-.706-.154-.26-.112-.5-.276-.712-.49-.212-.213-.376-.452-.488-.713-.101-.234-.153-.477-.153-.703 0-.219.049-.528.283-.763.236-.236.547-.286.767-.286.228 0 .472.053.706.154.261.112.501.277.713.49.211.213.376.452.488.714.1.232.153.477.153.702.001.219-.049.528-.283.763z"/><g fill="#C8DEEE"><path d="M492 22.5h-.006v4.008h4.006v-.008zM491.619 27.008h-.125v-4.508h-6.494v15h11v-10.492h-4.006z"/></g><path fill="#C8DEEE" d="M350.5 22.5c4.14 0 7.5 3.36 7.5 7.5 0 4.14-3.36 7.499-7.5 7.499-4.139 0-7.5-3.359-7.5-7.499 0-4.139 3.36-7.5 7.5-7.5zm-4.381 6.123v2.839h2.918v2.92h2.839v-2.92h2.92v-2.839h-2.92v-2.919h-2.84v2.919h-2.917zM525.195 24.695c2.927-2.927 7.681-2.927 10.608 0 2.928 2.928 2.928 7.681 0 10.609-2.928 2.926-7.681 2.928-10.608 0-2.927-2.929-2.927-7.681 0-10.609zm1.231 7.428l2.008 2.009 2.064-2.064 2.065 2.065 2.008-2.009-2.064-2.064 2.065-2.064-2.008-2.009-2.065 2.064-2.065-2.064-2.008 2.009 2.064 2.065-2.064 2.062zM573.313 22.5c-2.589 0-4.688 2.099-4.688 4.688 0 .293.027.58.079.859l-5.704 5.703v2.813c0 .518.42.938.938.938h.938v-.938h1.875v-1.875h1.875v-1.875h1.875l1.217-1.217c.498.181 1.035.279 1.596.279 2.589 0 4.688-2.099 4.688-4.688s-2.101-4.687-4.689-4.687zm1.404 4.689c-.776 0-1.406-.63-1.406-1.406 0-.777.63-1.406 1.406-1.406s1.406.629 1.406 1.406c0 .777-.63 1.406-1.406 1.406zM453.924 31.96l1.211 5.539-4.635-2.924-4.635 2.925 1.211-5.539-4.076-3.732 5.384-.499 2.116-5.23 2.116 5.23 5.384.499-4.076 3.731z"/><g fill="#C8DEEE"><path d="M695.857 32.154v3.206h-10.714v-3.206h-2.143v5.345h15v-5.345zM688.749 32.979h3.502v-6.111h1.749l-3.5-4.368-3.5 4.368h1.749z"/></g><path fill="#C8DEEE" d="M430.5 23l-4.5 5.836h2.249v8.164h4.502v-8.164h2.249zM555.188 32.813h-.938c-1.035 0-1.875-.839-1.875-1.874v-.603c.415-.493.712-1.076.897-1.692.019-.104.119-.155.186-.227.359-.359.43-.964.16-1.396-.036-.065-.103-.123-.099-.204l-.001-1.649c-.015-.664-.204-1.354-.669-1.845-.376-.396-.892-.633-1.423-.734-.672-.128-1.375-.122-2.041.047-.577.146-1.119.483-1.454.984-.297.435-.427.964-.449 1.485-.008.56-.002 1.12-.004 1.681.013.112-.082.188-.125.281-.254.46-.142 1.087.265 1.421.104.071.123.202.16.313.178.554.473 1.066.845 1.513v.622c0 1.036-.839 1.875-1.875 1.875h-.938s-1.699.469-2.813 2.813v.938c0 .519.419.938.938.938h13.125c.519 0 .938-.419.938-.938v-.938c-1.111-2.343-2.81-2.811-2.81-2.811zM711.311 35.644v-2.088h.522c1.959 0 3.554-1.596 3.554-3.556 0-1.959-1.595-3.554-3.554-3.554-1.959 0-3.554 1.595-3.554 3.554 0 .148.009.297.028.443h2.8419999999999996l-.894.892-2.813 2.806-.37.367-.369-.367-2.809-2.806-.894-.892h2.683l-.016-.443c0-3.399 2.766-6.166 6.166-6.166 3.4 0 6.167 2.767 6.167 6.166 0 3.401-2.766 6.166-6.167 6.166h-.522v-.522z"/><g fill="#C8DEEE"><path d="M1135.779 27.71h-1.052l-.092.124-.664.793h.891c.121 0 .222.099.222.22v4.909c0 .122-.101.222-.222.222h-8.725c-.121 0-.221-.1-.221-.222v-4.909c0-.121.1-.22.221-.22h.609l-.666-.794-.091-.123h-.769c-.123 0-.222.1-.222.221v7.814c0 .121.099.22.222.22h4.311v.637l-.965.61c-.103.066-.087.118.034.118h3.833c.12 0 .137-.052.033-.116l-.993-.622v-.627h4.305c.122 0 .221-.099.221-.22v-7.814c.001-.121-.098-.221-.22-.221zM1129.968 30.572c.107.129.251.193.391.193.143 0 .284-.064.392-.193l2.948-3.522c.216-.256.119-.466-.217-.466h-2.16v-3.304c0-.335-.274-.61-.61-.61h-.705c-.334 0-.609.275-.609.61v3.304h-2.16c-.335 0-.433.209-.218.466l2.948 3.522z"/></g><g fill="#C8DEEE"><path d="M1206.83 37h7.318l1.828-11.292h-10.976l1.83 11.292zm6.287-1.26h-5.257l-1.421-8.771h8.098l-1.42 8.771zM1212.342 23.791v-.791h-3.682v.791h-3.66v.91h11v-.91zM1210.123 34.735l-1.14-6.751-1.108.002 1.108 6.749zM1213.104 27.986l-1.108-.002-1.139 6.751h1.139z"/></g><g fill="#C8DEEE"><path d="M227.503 24.506h9.497v2.088h-9.497zM227.503 28.944h9.497v2.087h-9.497zM227.503 33.406h9.497v2.088h-9.497z"/><circle cx="225.042" cy="25.548" r="1.042"/><circle cx="225.042" cy="29.98" r="1.042"/><circle cx="225.042" cy="34.433" r="1.042"/></g><g fill="#C8DEEE"><path d="M1155.779 27.793h-2.725l-.092.124.336.793h1.563c.121 0 .222.1.222.22v4.909c0 .122-.101.222-.222.222h-8.725c-.121 0-.221-.1-.221-.222v-4.909c0-.12.1-.22.221-.22h1.609l.334-.794-.091-.123h-2.769c-.123 0-.222.1-.222.221v7.813c0 .122.099.221.222.221h4.311v.637l-.965.61c-.103.065-.087.118.034.118h3.833c.12 0 .137-.053.033-.116l-.993-.622v-.627h4.305c.122 0 .221-.099.221-.221v-7.813c.002-.121-.097-.221-.219-.221zM1147.378 26.767h2.16v3.305c0 .334.274.609.61.609h.705c.334 0 .609-.275.609-.609v-3.305h2.16c.335 0 .433-.209.218-.466l-2.949-3.522c-.107-.129-.251-.192-.391-.192-.143 0-.284.063-.392.192l-2.948 3.522c-.215.257-.118.466.218.466z"/></g><path fill="#C8DEEE" d="M1237 26.379c-1.228-2.025-3.453-3.379-5.995-3.379-3.869 0-7.005 3.134-7.005 7s3.136 7 7.005 7c2.522 0 4.732-1.333 5.966-3.333l-6.063-3.635 6.092-3.653zm-4.812-1.754c.771 0 1.396.625 1.396 1.396s-.625 1.396-1.396 1.396-1.396-.625-1.396-1.396.625-1.396 1.396-1.396z"/><g fill="#C8DEEE"><path d="M44 26.417h13v1.465h-13zM44 29.211h13v1.464h-13zM44 32.005h13v1.464h-13zM44 34.8h8.667v1.463h-8.667zM44 23.737h13v1.464h-13z"/></g><path fill="#C8DEEE" d="M336 28.818h-4.318v-4.318h-2.364v4.318h-4.318v2.364h4.318v4.318h2.364v-4.318h4.318zM243.939 25.908l4.153 4.155-4.153 4.153 1.846 1.847 4.153-4.156 4.151 4.156 1.849-1.847-4.156-4.153 4.156-4.155-1.849-1.845-4.151 4.154-4.153-4.154z"/><g fill="#C8DEEE"><path d="M271.966 24.5h3.034v11h-3.034zM266 24.5h3.034v11h-3.034z"/></g><path fill="#C8DEEE" d="M517.176 27.783h-13.26c-.732 0-.924.354-.884.789l.176 7.139c.04.435.143.789.874.789h12.824c.746 0 .833-.354.874-.789l.213-7.136c.04-.434-.085-.792-.817-.792zM517.809 25.97c-.097-.388-.578-.706-1.07-.706h-6.033c-.491 0-1.176-.281-1.524-.623l-.527-.518c-.347-.343-1.034-.623-1.524-.623h-2.882c-.49 0-.937.394-.99.877l-.259 2.299h14.988l-.179-.706z"/><g fill="#C8DEEE"><circle cx="645" cy="30" r="2"/><circle cx="656" cy="30" r="2"/><circle cx="650.5" cy="30" r="2"/></g><g fill="#C8DEEE"><circle cx="832.75" cy="30" r="2"/><circle cx="827.25" cy="30" r="2"/></g><path fill="#C8DEEE" d="M846 33.897l4.5-7.794 4.5 7.794zM866.103 25.5l7.794 4.5-7.794 4.5zM885.5 26.103l4.5 7.794 4.5-7.794zM913.897 25.5l-7.794 4.5 7.794 4.5z"/><g fill="#C8DEEE"><path d="M925.139 24.643h3.206v-2.143h-5.345v15h5.345v-2.143h-3.206zM938 30l-4.367-3.5v1.749h-6.112v3.502h6.112v1.749z"/></g><path fill="#C8DEEE" d="M976 28.818h-4.318v-4.318h-2.364v4.318h-4.318v2.364h4.318v4.318h2.364v-4.318h4.318zM985 28.75h11v2.5h-11zM1074.126 33.5l1.374-1.4-5.496-5.6-.004.004-.004-.004-5.496 5.6 1.373 1.398 4.127-4.203zM1025 26.538l3.461 3.462-3.461 3.461 1.539 1.54 3.46-3.464 3.461 3.464 1.54-1.54-3.463-3.461 3.463-3.462-1.54-1.539-3.461 3.462-3.46-3.462zM750.5 22.5c-4.142 0-7.5 3.357-7.5 7.5s3.358 7.5 7.5 7.5 7.5-3.357 7.5-7.5-3.358-7.5-7.5-7.5zm-.769 11.39l-.58-.58-.003.003-3.536-3.535 2.122-2.121 1.994 1.993 3.539-3.539 2.121 2.121-5.657 5.658zM1015.66 27.173l-1.414-1.415-5.662 5.66-2.83-2.83-1.414 1.412 4.242 4.243.004-.004.004.004zM34.833 23.5h-10.833v4h2.167v-1.833h3.25v8.667h-1.417v2.166h5v-2.166h-1.416v-8.667h3.249v1.833h2.167v-4z"/><g fill="#C8DEEE"><path d="M1195.188 22.5h-.938v6.094h-7.5v-6.094h-3.75v15h15v-12.187l-2.812-2.813zm.937 14.063h-11.25v-6.563h11.25v6.563zM1185.813 30.938h9.375v.938h-9.375zM1185.813 32.813h9.375v.938h-9.375zM1185.813 34.688h9.375v.938h-9.375zM1191.438 23.438h1.875v4.219h-1.875z"/></g><g fill="#C8DEEE"><path d="M192 22.5h-.006v4.008h4.006v-.008zM191.619 27.008h-.125v-4.508h-6.494v15h11v-10.492h-4.381zm-1.119 8.627l-3.494-3.494 2.039-.001-.001-3.362h2.913l.001 3.362 2.037.001-3.495 3.494z"/></g><g fill="#C8DEEE"><path d="M212 22.5h-.006v4.008h4.006v-.008zM211.619 27.008h-.125v-4.508h-6.494v15h11v-10.492h-4.381zm.338 5.264l-.001 3.362h-2.913l.001-3.362-2.039-.001 3.494-3.494 3.495 3.494-2.037.001z"/></g><path fill="#C8DEEE" d="M796 24.5h-13v11h15v-11h-2zm-11 9v-7h11v7h-11zM816 24.5h-13v11h15v-11h-2zm-4.5 9v-5h-2v5h-4.5v-7h11v7h-4.5z"/><g fill="#C8DEEE"><path d="M96.779 29.359l-1.014-1.014c-.142-.142-.333-.222-.533-.222-.201 0-.393.08-.533.222l-.281.28v-5.288h-10.418v13.324h10.418v-3.838l2.361-2.398c.295-.294.295-.771 0-1.066zm-6.281 3.212c-.089.089-.153.199-.189.318l-.432 1.45c-.079.266-.006.553.189.748.144.145.336.222.534.222l.214-.031 1.452-.432c.12-.036.229-.102.318-.189l.703-.702v1.575h-8.155v-11.061h8.155v5.313l-.99.991m-.279 3.374l-1.451.432.432-1.452 3.256-3.256 1.021 1.021-3.258 3.255zm3.589-3.626l-1.013-1.014.605-.605 1.014 1.014-.606.605zM86.216 25.84h6.081v.778h-6.081zM86.216 27.891h6.081v.778h-6.081z"/></g><g fill="#C8DEEE"><path d="M604 22.5v15h13v-15h-13zm11.588 13.596h-4.438v-2.729h-1.301v2.729h-4.438v-11.095h10.177v11.094999999999999zM606.732 26.153h7.588v.971h-7.588zM606.732 28.713h7.588v.97h-7.588zM606.733 31.259h7.587v.969h-7.587z"/></g><g fill="#C8DEEE"><path d="M624 22.5v15h13v-15h-13zm11.588 13.596h-10.177v-11.095h10.177v11.094999999999999zM626.732 26.153h7.588v.971h-7.588zM626.732 28.713h7.588v.97h-7.588zM626.733 31.259h7.587v.969h-7.587zM626.733 33.696h7.587v.969h-7.587z"/></g><g fill="#C8DEEE"><path d="M11.286 31.449l-3.145-4.773-2.36 7.637h9.438l-2.36-4.295z"/><circle cx="13.344" cy="27.152" r="1.465"/><path d="M16 22.5h-13v15h15v-15h-2zm.5 3.101v10.399h-12v-11.999999999999998h12v1.601z"/></g><path fill="#C8DEEE" d="M596.394 28.935h-1.596v-3.207h-3.229v-3.2279999999999998h-8.569v8.564h3.229v3.2279999999999998h3.202v3.208h8.569v-8.565h-1.606zm-10.165-3.206v3.731h-1.623v-5.353h5.355v1.623h-3.732zm3.203 3.206v3.752h-1.595v-5.353h5.355v1.601h-3.76zm6.962 6.959h-5.355v-5.353h5.355v5.353z"/><g fill="#C8DEEE"><path d="M1244.359 35.189l11.314-11.314.951.951-11.314 11.314zM1255.832 27.494l-2.047 2.047c.022.15.048.301.048.459 0 1.783-1.493 3.23-3.333 3.23l-.367-.037-.911.912c.409.055.831.094 1.278.094 4.92 0 7.5-3.623 7.5-4.199 0-.307-.74-1.477-2.168-2.506zM1247.214 30.457c-.022-.15-.048-.301-.048-.457 0-1.785 1.493-3.232 3.334-3.232l.367.037.91-.91c-.408-.055-.83-.094-1.277-.094-4.922 0-7.5 3.625-7.5 4.199 0 .307.738 1.477 2.166 2.504l2.048-2.047z"/></g><g fill="#96A0B4"><path d="M1168.616 49.613l2.06 2.059 2.377-2.377 1.441 1.441.001-4.941h-4.942l1.44 1.439zM1175.833 42.5h-13v15h15v-15h-2zm.5 13.5h-12v-12h12v12z"/></g></g><g><path fill="#283246" d="M731.655 50.395c-.436 0-.79.354-.79.789s.354.79.79.79c.436 0 .79-.354.79-.79s-.353-.789-.79-.789zm-2.368-.79c.435 0 .79-.354.79-.79s-.354-.789-.79-.789c-.436 0-.79.354-.79.789s.354.79.79.79zm2.368-1.579c-.436 0-.79.354-.79.789s.354.79.79.79c.436 0 .79-.354.79-.79s-.353-.789-.79-.789zm.79-3.947h-3.948v1.58h3.948v-1.58zm1.578 5.526c.436 0 .79-.354.79-.79s-.354-.789-.79-.789c-.436 0-.789.354-.789.789s.355.79.789.79zm0 2.369c.436 0 .79-.354.79-.79s-.354-.789-.79-.789c-.436 0-.789.354-.789.789s.355.79.789.79zm-4.736 0c.435 0 .79-.354.79-.79s-.354-.789-.79-.789c-.437 0-.79.354-.79.789s.354.79.79.79zm-2.369 2.368c.436 0 .79-.354.79-.79 0-.436-.354-.789-.79-.789s-.789.354-.789.789c0 .436.354.79.789.79zm9.474-10.263h-.79v1.58h.79v10.262h-11.842v-10.262h.79v-1.58h-.79c-.872 0-1.579.707-1.579 1.58v10.262c0 .872.707 1.579 1.579 1.579h11.842c.873 0 1.579-.707 1.579-1.579v-10.262c0-.873-.706-1.58-1.579-1.58zm-9.474 7.895c.436 0 .79-.354.79-.79s-.354-.789-.79-.789-.789.354-.789.789.354.79.789.79zm0-2.369c.436 0 .79-.354.79-.79s-.354-.789-.79-.789-.789.354-.789.789.354.79.789.79zm2.369 4.737c.435 0 .79-.354.79-.79 0-.436-.354-.789-.79-.789-.436 0-.79.354-.79.789 0 .436.354.79.79.79zm-2.369-8.683c.436 0 .79-.354.79-.79v-1.579c0-.437-.354-.79-.79-.79-.436 0-.789.354-.789.79v1.579c0 .436.354.79.789.79zm7.105 0c.436 0 .79-.354.79-.79v-1.579c0-.437-.354-.79-.79-.79s-.789.354-.789.79v1.579c0 .436.355.79.789.79z"/><g fill="#283246"><path d="M295.999 46.367l-1.874-1.873-5.804 5.812 1.895 1.85zM295.738 42.889l-.96.96 1.874 1.874.96-.96c.517-.519.518-1.356 0-1.874-.517-.518-1.357-.518-1.874 0zM286.419 54.081l3.197-1.348-1.862-1.819zM296.104 48.002l-1.807 1.782v5.885h-9.547v-9.507h6.006l1.672-1.766h-9.428v13.104h13.104z"/></g><path fill="#283246" d="M390.5 45.8c-4.922 0-7.5 3.625-7.5 4.2s2.578 4.2 7.5 4.2c4.92 0 7.5-3.625 7.5-4.2s-2.58-4.2-7.5-4.2zm0 7.429c-1.842 0-3.334-1.446-3.334-3.229 0-1.785 1.493-3.231 3.334-3.231 1.84 0 3.333 1.446 3.333 3.231 0 1.783-1.493 3.229-3.333 3.229zm1.666-3.229c0 .892-.747 1.615-1.666 1.615-.921 0-1.668-.724-1.668-1.615 0-.894.747-1.616 1.668-1.616.496 0-.306 1.281 0 1.616.258.284 1.666-.41 1.666 0zM117.68 54.81c-.13 0-.247-.074-.298-.195-.037-.088-.966-2.17-4.434-2.582-.723-.086-1.588-.131-2.639-.141v2.594c0 .121-.065.229-.171.287-.105.055-.232.047-.331-.02l-6.665-4.484c-.089-.061-.143-.161-.143-.268 0-.108.053-.206.143-.269l6.667-4.486c.099-.068.224-.073.331-.017.107.058.17.166.17.282v2.414c1.45.189 7.689 1.311 7.689 6.563 0 .152-.107.285-.258.316l-.061.006zM123.258 54.806c-.15-.031-.258-.164-.258-.316 0-5.253 6.239-6.374 7.689-6.563v-2.414c0-.116.063-.225.17-.282.107-.057.232-.052.331.017l6.667 4.486c.089.063.143.16.143.269 0 .106-.053.207-.143.268l-6.665 4.484c-.099.066-.225.074-.331.02-.106-.059-.171-.166-.171-.287v-2.594c-1.051.01-1.917.055-2.639.141-3.468.412-4.396 2.494-4.434 2.582-.051.121-.168.195-.298.195l-.061-.006zM416.824 42.5h-12.649c-.648 0-1.175.527-1.175 1.177v12.647c0 .648.527 1.176 1.175 1.176h12.649c.648 0 1.176-.527 1.176-1.176v-12.647c0-.65-.527-1.177-1.176-1.177zm-.797 1.339c.278 0 .504.226.504.505 0 .278-.226.504-.504.504s-.504-.226-.504-.504c0-.28.226-.505.504-.505zm-1.804 0c.278 0 .504.226.504.505 0 .278-.226.504-.504.504s-.504-.226-.504-.504c0-.28.225-.505.504-.505zm2.433 12.317h-12.313v-10.056h12.313v10.056zM156.075 48.66c.021-.163.05-.324.05-.493 0-2.07-1.678-3.75-3.75-3.75-1.225 0-2.303.597-2.986 1.506-.247-.06-.5-.1-.764-.1-1.813 0-3.281 1.469-3.281 3.281l.015.148c-1.359.4-2.358 1.644-2.358 3.133 0 1.813 1.469 3.281 3.281 3.193h7.969c2.072.088 3.75-1.591 3.75-3.662-.001-1.403-.782-2.613-1.926-3.256zm-4.579 5.481h-2v-3.249h-1.809l2.813-2.813 2.813 2.813h-1.816v3.249zM376.905 51.439c-.816-1.363-.326-3.11 1.095-3.903l-1.527-2.554c-.437.247-.945.389-1.486.389-1.633 0-2.956-1.285-2.956-2.871h-3.056c.004.489-.123.985-.395 1.439-.815 1.363-2.629 1.827-4.052 1.036l-1.528 2.554c.44.241.82.595 1.091 1.047.815 1.361.327 3.104-1.089 3.899l1.528 2.553c.435-.244.94-.385 1.479-.385 1.627 0 2.948 1.277 2.956 2.856h3.056c-.001-.484.126-.976.394-1.425.814-1.36 2.624-1.824 4.046-1.04l1.528-2.553c-.437-.24-.815-.592-1.084-1.042zm-6.405 1.598c-1.739 0-3.148-1.36-3.148-3.037s1.41-3.037 3.148-3.037 3.148 1.36 3.148 3.037-1.409 3.037-3.148 3.037zM477.303 47.75h-13.605c-.69 0-.725.336-.688.747l.619 6.756c.038.411.135.747.824.747h12.093c.703 0 .787-.336.824-.747l.619-6.756c.038-.411.004-.747-.686-.747zm-.5-1.65c-.083-.329-.491-.6-.907-.6h-5.111c-.416 0-.997-.238-1.291-.529l-.447-.441c-.294-.291-.875-.529-1.291-.529h-2.442c-.416 0-.793.336-.839.746l-.219 1.954h12.698l-.151-.601zM1094 45.874l-1.4-1.374-5.6 5.496.004.004-.004.004 5.6 5.496 1.398-1.373-4.203-4.127zM1107 53.96l1.4 1.373 5.6-5.495-.004-.004.004-.004-5.6-5.496-1.398 1.373 4.203 4.127zM1054.626 46.5l1.374 1.4-5.496 5.6-.004-.004-.004.004-5.496-5.6 1.373-1.398 4.127 4.203z"/><g fill="#283246"><path d="M314.25 48.125c0-3.106-2.519-5.625-5.625-5.625s-5.625 2.519-5.625 5.625 2.519 5.625 5.625 5.625 5.625-2.519 5.625-5.625zm-5.625 4.219c-2.326 0-4.219-1.893-4.219-4.219s1.893-4.219 4.219-4.219 4.219 1.893 4.219 4.219-1.893 4.219-4.219 4.219zM317.588 55.1l-3.441-3.441c-.513.797-1.191 1.476-1.988 1.988l3.441 3.441c.549.549 1.439.549 1.988 0 .55-.549.55-1.44 0-1.988z"/></g><path fill="#283246" d="M764 55.629l6.5-11.258 6.5 11.258zM678 53.75c0 .329-.093.634-.24.902l-4.736-5.299 4.684-4.099c.182.289.292.628.292.996v7.5zm-7.5-3.434l6.518-5.704c-.267-.146-.568-.236-.893-.236h-11.249c-.325 0-.627.09-.894.236l6.518 5.704zm1.817-.345l-1.509 1.32c-.088.077-.198.115-.309.115s-.22-.038-.309-.115l-1.509-1.32-4.796 5.366c.287.18.624.287.989.287h11.249c.364 0 .701-.107.989-.287l-4.795-5.366zm-9.025-4.716c-.183.289-.292.628-.292.996v7.499c0 .329.092.634.24.902l4.736-5.3-4.684-4.097zM74.11 53.577c0 .234-.19.424-.425.424h-6.317c-.235 0-.425-.189-.425-.424s.19-.426.425-.426h6.317c.234 0 .425.192.425.426zm2.89-9.421v12.317c0 .565-.46 1.025-1.026 1.025h-10.948c-.566 0-1.026-.46-1.026-1.025v-12.317c0-.566.46-1.026 1.026-1.026h1.103c.08-.249.209-.457.416-.562.518-.259 1.137.284 1.421.562h.671c.08-.249.209-.457.417-.562.517-.259 1.136.284 1.421.562h.831c.08-.249.209-.457.417-.562.517-.259 1.136.284 1.421.562h.775c.08-.249.209-.457.416-.562.518-.259 1.136.284 1.421.562h.217c.567 0 1.027.46 1.027 1.026zm-2.492-1.026h.367c-.197-.108-.28-.078-.293-.071l-.074.071zm-.687 1.262c-.085.083-.138.198-.138.326 0 .251.205.456.456.456.252 0 .457-.205.457-.456 0-.169-.093-.313-.229-.393l.043.431c.022.15-.082.289-.232.311l-.039.002c-.134 0-.251-.098-.271-.234l-.047-.443zm-1.926-1.262h.367c-.197-.108-.28-.078-.293-.071l-.074.071zm-.687 1.262c-.085.083-.138.198-.138.326 0 .251.205.456.456.456.252 0 .457-.205.457-.456 0-.169-.092-.313-.229-.393l.043.431c.022.15-.082.289-.231.311l-.04.002c-.134 0-.251-.098-.271-.234l-.047-.443zm-1.981-1.262h.366c-.197-.108-.28-.078-.293-.071l-.073.071zm-.687 1.262c-.085.083-.138.198-.138.326 0 .251.205.456.456.456.252 0 .456-.205.456-.456 0-.169-.092-.313-.228-.393l.043.431c.021.15-.082.289-.231.311l-.04.002c-.133 0-.25-.098-.27-.234l-.048-.443zm-1.822-1.262h.367c-.197-.108-.28-.078-.294-.071l-.073.071zm-.687 1.262c-.085.083-.138.198-.138.326 0 .251.204.456.456.456s.456-.205.456-.456c0-.169-.092-.313-.228-.393l.043.431c.022.15-.082.289-.232.311l-.04.002c-.134 0-.25-.098-.271-.234l-.046-.443zm10.284-.236c0-.188-.153-.342-.342-.342h-1.4c.336.162.569.506.569.903 0 .554-.45 1.004-1.004 1.004-.553 0-1.003-.45-1.003-1.004 0-.397.233-.741.569-.903h-1.744c.336.162.569.506.569.903 0 .554-.45 1.004-1.003 1.004-.553 0-1.003-.45-1.003-1.004 0-.397.233-.741.57-.903h-1.801c.336.162.569.506.569.903 0 .554-.45 1.004-1.004 1.004-.553 0-1.003-.45-1.003-1.004 0-.397.233-.741.569-.903h-1.641c.336.162.569.506.569.903 0 .554-.45 1.004-1.003 1.004s-1.003-.45-1.003-1.004c0-.397.233-.741.569-.903h-.889c-.189 0-.342.153-.342.342v12.317c0 .188.153.342.342.342h10.947c.188 0 .342-.153.342-.342v-12.317h.001zm-2.63 6.076h-6.317c-.235 0-.425.19-.425.426 0 .234.19.423.425.423h6.317c.234 0 .425-.188.425-.423s-.191-.426-.425-.426zm1.009-2.919h-8.388c-.234 0-.424.19-.424.425s.19.425.424.425h8.388c.235 0 .425-.189.425-.425 0-.235-.19-.425-.425-.425zM953.286 44.563v2.171c1.127.852 1.857 2.206 1.857 3.733 0 2.577-2.079 4.666-4.643 4.666-2.565 0-4.643-2.089-4.643-4.666 0-1.527.729-2.882 1.857-3.733v-2.171c-2.196 1.047-3.714 3.298-3.714 5.904 0 3.607 2.91 6.533 6.5 6.533s6.5-2.926 6.5-6.533c0-2.606-1.518-4.857-3.714-5.904zM951.429 49.536v-5.605c0-.515-.412-.931-.929-.931-.514 0-.929.423-.929.931v5.605c0 .515.413.931.929.931.513 0 .929-.423.929-.931zM175.995 52.408c-.662-.664-1.505-1.007-2.292-1.007h-.422l-.927-.934 3.709-3.733c.927-.934.927-2.801 0-3.734l-5.563 5.601-5.563-5.601c-.927.934-.927 2.801 0 3.734l3.708 3.733-.927.934h-.422c-.787 0-1.63.343-2.292 1.007-1.184 1.188-1.344 2.953-.357 3.942.435.437 1.02.649 1.64.649.787 0 1.629-.343 2.292-1.008.777-.779 1.113-1.808.973-2.703l.949-.955.949.955c-.14.896.196 1.924.973 2.703.663.665 1.505 1.008 2.292 1.008.62 0 1.205-.213 1.64-.649.985-.989.825-2.754-.36-3.942zm-7.802 1.989c-.111.261-.275.5-.488.713-.212.214-.452.378-.713.49-.234.101-.478.154-.706.154-.22 0-.531-.049-.767-.286-.234-.234-.283-.544-.283-.763 0-.226.053-.469.153-.702.112-.262.276-.501.488-.714.212-.213.452-.378.713-.49.234-.101.478-.154.706-.154.22 0 .531.05.767.286.234.234.283.544.283.763 0 .227-.053.469-.153.703zm2.307-2.609c-.724 0-1.311-.592-1.311-1.32s.587-1.319 1.311-1.319c.725 0 1.311.591 1.311 1.319s-.587 1.32-1.311 1.32zm4.98 3.681c-.236.237-.547.286-.768.286-.228 0-.471-.054-.706-.154-.26-.112-.5-.276-.712-.49-.212-.213-.376-.452-.488-.713-.101-.234-.153-.477-.153-.703 0-.219.049-.528.283-.763.236-.236.547-.286.767-.286.228 0 .472.053.706.154.261.112.501.277.713.49.211.213.376.452.488.714.1.232.153.477.153.702.001.219-.049.528-.283.763z"/><g fill="#283246"><path d="M492 42.5h-.006v4.008h4.006v-.008zM491.619 47.008h-.125v-4.508h-6.494v15h11v-10.492h-4.006z"/></g><path fill="#283246" d="M350.5 42.501c4.14 0 7.5 3.36 7.5 7.499 0 4.14-3.36 7.499-7.5 7.499-4.139 0-7.5-3.359-7.5-7.499 0-4.139 3.36-7.499 7.5-7.499zm-4.381 6.122v2.839h2.918v2.92h2.839v-2.92h2.92v-2.839h-2.92v-2.92h-2.84v2.92h-2.917zM525.195 44.695c2.927-2.927 7.681-2.927 10.608 0 2.928 2.929 2.928 7.681 0 10.609-2.928 2.926-7.681 2.928-10.608 0-2.927-2.929-2.927-7.681 0-10.609zm1.231 7.428l2.008 2.009 2.064-2.064 2.065 2.065 2.008-2.009-2.064-2.064 2.065-2.063-2.008-2.009-2.065 2.064-2.065-2.064-2.008 2.009 2.064 2.064-2.064 2.062zM573.313 42.5c-2.589 0-4.688 2.099-4.688 4.688 0 .294.027.58.079.859l-5.704 5.703v2.813c0 .518.42.938.938.938h.938v-.938h1.875v-1.875h1.875v-1.875h1.875l1.217-1.217c.498.181 1.035.279 1.596.279 2.589 0 4.688-2.099 4.688-4.688s-2.101-4.687-4.689-4.687zm1.404 4.689c-.776 0-1.406-.63-1.406-1.406s.63-1.406 1.406-1.406 1.406.63 1.406 1.406-.63 1.406-1.406 1.406zM453.924 51.96l1.211 5.539-4.635-2.924-4.635 2.925 1.211-5.539-4.076-3.732 5.384-.499 2.116-5.23 2.116 5.23 5.384.499-4.076 3.731z"/><g fill="#283246"><path d="M695.857 52.154v3.206h-10.714v-3.206h-2.143v5.345h15v-5.345zM688.749 52.979h3.502v-6.111h1.749l-3.5-4.367-3.5 4.367h1.749z"/></g><path fill="#283246" d="M430.5 43l-4.5 5.836h2.249v8.164h4.502v-8.164h2.249zM555.188 52.813h-.938c-1.035 0-1.875-.839-1.875-1.874v-.603c.415-.493.712-1.076.897-1.692.019-.104.119-.155.186-.227.359-.359.43-.965.16-1.396-.036-.065-.103-.123-.099-.204l-.001-1.649c-.015-.663-.204-1.354-.669-1.845-.376-.396-.892-.633-1.423-.733-.672-.129-1.375-.122-2.041.047-.577.146-1.119.483-1.454.984-.297.436-.427.964-.449 1.485-.008.56-.002 1.12-.004 1.681.013.112-.082.188-.125.281-.254.46-.142 1.087.265 1.421.104.071.123.202.16.313.178.555.473 1.066.845 1.513v.622c0 1.036-.839 1.875-1.875 1.875h-.938s-1.699.469-2.813 2.813v.938c0 .519.419.938.938.938h13.125c.519 0 .938-.419.938-.938v-.938c-1.111-2.344-2.81-2.812-2.81-2.812zM711.311 55.644v-2.088h.522c1.959 0 3.554-1.596 3.554-3.556 0-1.959-1.595-3.554-3.554-3.554-1.959 0-3.554 1.595-3.554 3.554 0 .148.009.297.028.443h2.8419999999999996l-.894.892-2.813 2.806-.37.367-.369-.367-2.809-2.806-.894-.892h2.683l-.016-.443c0-3.399 2.766-6.166 6.166-6.166 3.4 0 6.167 2.767 6.167 6.166 0 3.401-2.766 6.166-6.167 6.166h-.522v-.522z"/><g fill="#283246"><path d="M1135.779 47.71h-1.052l-.092.124-.664.794h.891c.121 0 .222.099.222.22v4.908c0 .122-.101.222-.222.222h-8.725c-.121 0-.221-.1-.221-.222v-4.908c0-.121.1-.22.221-.22h.609l-.666-.795-.091-.123h-.769c-.123 0-.222.1-.222.221v7.814c0 .121.099.22.222.22h4.311v.637l-.965.61c-.103.066-.087.118.034.118h3.833c.12 0 .137-.052.033-.116l-.993-.622v-.627h4.305c.122 0 .221-.099.221-.22v-7.814c.001-.121-.098-.221-.22-.221zM1129.968 50.572c.107.129.251.192.391.192.143 0 .284-.063.392-.192l2.948-3.522c.216-.257.119-.466-.217-.466h-2.16v-3.305c0-.335-.274-.609-.61-.609h-.705c-.334 0-.609.274-.609.609v3.305h-2.16c-.335 0-.433.209-.218.466l2.948 3.522z"/></g><g fill="#283246"><path d="M1206.83 57h7.318l1.828-11.292h-10.976l1.83 11.292zm6.287-1.26h-5.257l-1.421-8.771h8.098l-1.42 8.771zM1212.342 43.791v-.791h-3.682v.791h-3.66v.91h11v-.91zM1210.123 54.735l-1.14-6.751-1.108.002 1.108 6.749zM1213.104 47.986l-1.108-.002-1.139 6.751h1.139z"/></g><g fill="#283246"><path d="M227.503 44.506h9.497v2.088h-9.497zM227.503 48.944h9.497v2.087h-9.497zM227.503 53.406h9.497v2.088h-9.497z"/><circle cx="225.042" cy="45.548" r="1.042"/><circle cx="225.042" cy="49.98" r="1.042"/><circle cx="225.042" cy="54.433" r="1.042"/></g><g fill="#283246"><path d="M1155.779 47.793h-2.725l-.092.124.336.794h1.563c.121 0 .222.1.222.22v4.908c0 .122-.101.222-.222.222h-8.725c-.121 0-.221-.1-.221-.222v-4.908c0-.12.1-.22.221-.22h1.609l.334-.795-.091-.123h-2.769c-.123 0-.222.1-.222.221v7.813c0 .122.099.221.222.221h4.311v.637l-.965.61c-.103.065-.087.118.034.118h3.833c.12 0 .137-.053.033-.116l-.993-.622v-.627h4.305c.122 0 .221-.099.221-.221v-7.813c.002-.121-.097-.221-.219-.221zM1147.378 46.768h2.16v3.305c0 .334.274.609.61.609h.705c.334 0 .609-.275.609-.609v-3.305h2.16c.335 0 .433-.21.218-.466l-2.949-3.522c-.107-.129-.251-.192-.391-.192-.143 0-.284.063-.392.192l-2.948 3.522c-.215.256-.118.466.218.466z"/></g><path fill="#283246" d="M1237 46.379c-1.228-2.025-3.453-3.379-5.995-3.379-3.869 0-7.005 3.134-7.005 7s3.136 7 7.005 7c2.522 0 4.732-1.333 5.966-3.333l-6.063-3.635 6.092-3.653zm-4.812-1.754c.771 0 1.396.625 1.396 1.396 0 .771-.625 1.396-1.396 1.396s-1.396-.624-1.396-1.396c0-.771.625-1.396 1.396-1.396z"/><g fill="#283246"><path d="M44 46.418h13v1.465h-13zM44 49.212h13v1.464h-13zM44 52.005h13v1.464h-13zM44 54.8h8.667v1.463h-8.667zM44 43.737h13v1.464h-13z"/></g><path fill="#283246" d="M336 48.818h-4.318v-4.318h-2.364v4.318h-4.318v2.364h4.318v4.318h2.364v-4.318h4.318zM243.939 45.908l4.153 4.155-4.153 4.153 1.846 1.847 4.153-4.156 4.151 4.156 1.849-1.847-4.156-4.153 4.156-4.155-1.849-1.845-4.151 4.154-4.153-4.154z"/><g fill="#283246"><path d="M271.966 44.5h3.034v11h-3.034zM266 44.5h3.034v11h-3.034z"/></g><path fill="#283246" d="M517.176 47.783h-13.26c-.732 0-.924.354-.884.789l.176 7.139c.04.435.143.789.874.789h12.824c.746 0 .833-.354.874-.789l.213-7.136c.04-.433-.085-.792-.817-.792zM517.809 45.971c-.097-.389-.578-.706-1.07-.706h-6.033c-.491 0-1.176-.281-1.524-.623l-.527-.519c-.347-.343-1.034-.623-1.524-.623h-2.882c-.49 0-.937.395-.99.877l-.259 2.299h14.988l-.179-.705z"/><g fill="#283246"><circle cx="645" cy="50" r="2"/><circle cx="656" cy="50" r="2"/><circle cx="650.5" cy="50" r="2"/></g><g fill="#283246"><circle cx="832.75" cy="50" r="2"/><circle cx="827.25" cy="50" r="2"/></g><path fill="#283246" d="M846 53.897l4.5-7.794 4.5 7.794zM866.103 45.5l7.794 4.5-7.794 4.5zM885.5 46.103l4.5 7.794 4.5-7.794zM913.897 45.5l-7.794 4.5 7.794 4.5z"/><g fill="#283246"><path d="M925.139 44.643h3.206v-2.143h-5.345v15h5.345v-2.143h-3.206zM938 50l-4.367-3.5v1.749h-6.112v3.502h6.112v1.749z"/></g><path fill="#283246" d="M976 48.818h-4.318v-4.318h-2.364v4.318h-4.318v2.364h4.318v4.318h2.364v-4.318h4.318zM985 48.75h11v2.5h-11zM1074.126 53.5l1.374-1.4-5.496-5.6-.004.004-.004-.004-5.496 5.6 1.373 1.398 4.127-4.203zM1025 46.538l3.461 3.462-3.461 3.461 1.539 1.54 3.46-3.464 3.461 3.464 1.54-1.54-3.463-3.461 3.463-3.462-1.54-1.539-3.461 3.463-3.46-3.463zM750.5 42.5c-4.142 0-7.5 3.357-7.5 7.5s3.358 7.5 7.5 7.5 7.5-3.357 7.5-7.5-3.358-7.5-7.5-7.5zm-.769 11.39l-.58-.58-.003.003-3.536-3.535 2.122-2.121 1.994 1.993 3.539-3.539 2.121 2.121-5.657 5.658zM1015.66 47.173l-1.414-1.415-5.662 5.66-2.83-2.83-1.414 1.412 4.242 4.243.004-.004.004.004zM34.833 43.5h-10.833v4h2.167v-1.833h3.25v8.667h-1.417v2.166h5v-2.166h-1.416v-8.667h3.249v1.833h2.167v-4z"/><g fill="#283246"><path d="M1195.188 42.5h-.938v6.094h-7.5v-6.094h-3.75v15h15v-12.187l-2.812-2.813zm.937 14.063h-11.25v-6.563h11.25v6.563zM1185.813 50.938h9.375v.938h-9.375zM1185.813 52.813h9.375v.938h-9.375zM1185.813 54.688h9.375v.938h-9.375zM1191.438 43.438h1.875v4.219h-1.875z"/></g><g fill="#283246"><path d="M192 42.5h-.006v4.008h4.006v-.008zM191.619 47.008h-.125v-4.508h-6.494v15h11v-10.492h-4.381zm-1.119 8.627l-3.494-3.494 2.039-.001-.001-3.362h2.913l.001 3.362 2.037.001-3.495 3.494z"/></g><g fill="#283246"><path d="M212 42.5h-.006v4.008h4.006v-.008zM211.619 47.008h-.125v-4.508h-6.494v15h11v-10.492h-4.381zm.338 5.264l-.001 3.362h-2.913l.001-3.362-2.039-.001 3.494-3.494 3.495 3.494-2.037.001z"/></g><path fill="#283246" d="M796 44.5h-13v11h15v-11h-2zm-11 9v-7h11v7h-11zM816 44.5h-13v11h15v-11h-2zm-4.5 9v-5h-2v5h-4.5v-7h11v7h-4.5z"/><g fill="#283246"><path d="M96.779 49.359l-1.014-1.014c-.142-.142-.333-.222-.533-.222-.201 0-.393.08-.533.222l-.281.28v-5.288h-10.418v13.324h10.418v-3.838l2.361-2.398c.295-.293.295-.771 0-1.066zm-6.281 3.212c-.089.089-.153.199-.189.318l-.432 1.45c-.079.266-.006.553.189.748.144.145.336.222.534.222l.214-.031 1.452-.432c.12-.036.229-.102.318-.189l.703-.702v1.575h-8.155v-11.06h8.155v5.313l-.99.991m-.279 3.373l-1.451.432.432-1.452 3.256-3.256 1.021 1.021-3.258 3.255zm3.589-3.626l-1.013-1.014.605-.605 1.014 1.014-.606.605zM86.216 45.84h6.081v.778h-6.081zM86.216 47.891h6.081v.778h-6.081z"/></g><g fill="#283246"><path d="M604 42.5v15h13v-15h-13zm11.588 13.596h-4.438v-2.729h-1.301v2.729h-4.438v-11.095h10.177v11.094999999999999zM606.732 46.153h7.588v.971h-7.588zM606.732 48.713h7.588v.97h-7.588zM606.733 51.259h7.587v.969h-7.587z"/></g><g fill="#283246"><path d="M624 42.5v15h13v-15h-13zm11.588 13.596h-10.177v-11.095h10.177v11.094999999999999zM626.732 46.153h7.588v.971h-7.588zM626.732 48.713h7.588v.97h-7.588zM626.733 51.259h7.587v.969h-7.587zM626.733 53.696h7.587v.969h-7.587z"/></g><g fill="#283246"><path d="M11.286 51.449l-3.145-4.773-2.36 7.637h9.438l-2.36-4.295z"/><circle cx="13.344" cy="47.152" r="1.465"/><path d="M16 42.5h-13v15h15v-15h-2zm.5 3.101v10.399h-12v-11.999999999999998h12v1.601z"/></g><path fill="#283246" d="M596.394 48.936h-1.596v-3.207h-3.229v-3.229h-8.569v8.564h3.229v3.2279999999999998h3.202v3.208h8.569v-8.564h-1.606zm-10.165-3.207v3.7300000000000004h-1.623v-5.353h5.355v1.622h-3.732zm3.203 3.207v3.751h-1.595v-5.353h5.355v1.601h-3.76zm6.962 6.958h-5.355v-5.353h5.355v5.353z"/><g fill="#575E6C"><path d="M1244.34 15.171l11.314-11.314.951.951-11.314 11.314zM1255.832 7.495l-2.047 2.047c.022.15.048.301.048.458 0 1.784-1.493 3.231-3.333 3.231l-.367-.037-.911.912c.409.055.831.094 1.278.094 4.92 0 7.5-3.624 7.5-4.2 0-.306-.74-1.477-2.168-2.505zM1247.214 10.458c-.022-.151-.048-.301-.048-.458 0-1.785 1.493-3.231 3.334-3.231l.367.036.91-.91c-.408-.055-.83-.094-1.277-.094-4.922 0-7.5 3.625-7.5 4.199 0 .307.738 1.477 2.166 2.504l2.048-2.046z"/></g><path fill="#575E6C" d="M1276.172 10.101c.696 0 1.265.563 1.275 1.256v3.644h2.553v-3.639c-.008-2.103-1.723-3.81-3.828-3.81h-10.066v-2.552l-5.106 3.829 5.105 3.827v-2.556h10.067v.001zm0 0"/><path fill="#C8DEEE" d="M1276.214 30.101c.696 0 1.265.563 1.275 1.256v3.644h2.553v-3.639c-.008-2.103-1.723-3.81-3.828-3.81h-10.066v-2.552l-5.105 3.829 5.105 3.827v-2.556h10.066v.001zm0 0"/><path fill="#283246" d="M1276.13 50.101c.696 0 1.265.563 1.275 1.256v3.644h2.553v-3.639c-.008-2.103-1.723-3.81-3.828-3.81h-10.066v-2.552l-5.105 3.829 5.105 3.827v-2.556h10.066v.001zm0 0"/></g></svg>