<svg xmlns="http://www.w3.org/2000/svg" xmlns:xlink="http://www.w3.org/1999/xlink" width="66" height="66" viewBox="0 0 66 66"><image overflow="visible" opacity=".75" width="272" height="284" xlink:href="FCFE2902.png" transform="matrix(.24 0 0 .24 .517 .018)"/><path fill="#1A1A1A" d="M59.942 2.018c-.232 0-.454.337-.669.969l.054.108-.037.016-.061-.124c.149-.446.305-.736.465-.874-.065-.056-.132-.096-.201-.096-.229 0-.454.337-.669.969l.135.265c-2.061.876-4.04 1.718-5.92 2.519-2.146.912-4.188 1.78-6.156 2.619l-5.714 2.431-5.449 2.318c-1.792.764-3.573 1.522-5.366 2.284l-5.449 2.318-5.714 2.434-6.157 2.62c-1.688.719-3.461 1.473-5.29 2.25v-.481l-4.227-1.409v19.728l4.227-1.409v-.48l5.29 2.25 1.592.677c-.232.302-.392.661-.392 1.07 0 .988.801 1.79 1.79 1.79l.276-.057c-.074 5.627 3.235 10.988 8.759 13.24 5.587 2.277 11.773.698 15.646-3.479.327.346.785.571 1.299.571.637 0 1.168-.353 1.487-.854l3.392 1.445 6.156 2.616c1.88.802 3.859 1.644 5.92 2.521l-.135.266c.215.632.44.968.669.968.069 0 .136-.038.201-.096-.16-.135-.315-.427-.465-.872l.061-.124.037.016-.054.108c.215.632.437.968.669.968 1.48 0 2.683-13.879 2.683-30.999 0-17.121-1.202-31-2.683-31zm-29.569 57.584c-1.64 0-3.249-.319-4.785-.944-5.44-2.222-8.496-7.811-7.771-13.381l1.375.583 5.714 2.435 5.451 2.319c1.792.764 3.571 1.52 5.364 2.282 1.5.638 3.021 1.286 4.559 1.938-2.367 2.967-5.967 4.768-9.907 4.768z"/><path fill="#C4C4C4" d="M42.75 53.648c.248-.454.477-.925.677-1.414 2.938-7.204-.522-15.428-7.728-18.366-7.207-2.939-15.429.521-18.368 7.727-.237.583-.419 1.175-.574 1.768-.225-.101-.471-.165-.734-.165-.988 0-1.79.802-1.79 1.791 0 .988.801 1.79 1.79 1.79l.276-.055c-.074 5.625 3.235 10.984 8.759 13.238 5.586 2.277 11.773.698 15.647-3.479.326.348.784.571 1.298.571.988 0 1.791-.803 1.791-1.793.001-.717-.43-1.328-1.044-1.613zm-12.377 5.954c-1.64 0-3.249-.319-4.785-.944-6.473-2.643-9.593-10.055-6.954-16.529 1.958-4.797 6.572-7.897 11.75-7.897 1.637 0 3.247.317 4.782.942 3.139 1.279 5.588 3.702 6.901 6.825 1.313 3.121 1.332 6.566.055 9.705-.313.763-.712 1.465-1.147 2.137-.322.232-.555.557-.664.95-2.367 2.991-5.98 4.811-9.938 4.811z"/><linearGradient id="a" gradientUnits="userSpaceOnUse" x1="49.877" y1="-.196" x2="18.442" y2="83.785"><stop offset="0" stop-color="#D4D4D4"/><stop offset=".018" stop-color="#DEDEDE"/><stop offset=".06" stop-color="#F1F1F1"/><stop offset=".104" stop-color="#FBFBFB"/><stop offset=".153" stop-color="#fff"/><stop offset=".279" stop-color="#EDEDED"/><stop offset=".388" stop-color="#CFCFCF"/><stop offset=".517" stop-color="#A6A6A6"/><stop offset=".56" stop-color="#B5B5B5"/><stop offset=".64" stop-color="#DADADA"/><stop offset=".662" stop-color="#E6E6E6"/><stop offset=".73" stop-color="#DFDFDF"/><stop offset=".829" stop-color="#CBCBCB"/><stop offset=".949" stop-color="#aaa"/><stop offset=".96" stop-color="#A6A6A6"/></linearGradient><path fill="url(#a)" d="M59.045 62.672l-51.322-21.225.044-16.821 51.85-21.576.969 6.738 1.189 12.945-.088 9.38.088 14.091-1.41 13.254z"/><linearGradient id="b" gradientUnits="userSpaceOnUse" x1="39.741" y1="27.699" x2="20.125" y2="77.269"><stop offset="0" stop-opacity="0"/><stop offset=".423" stop-opacity=".184"/><stop offset=".5" stop-opacity=".651"/><stop offset="1" stop-opacity="0"/></linearGradient><path fill="url(#b)" d="M59.045 62.672l-51.322-21.225.044-16.821 51.85-21.576.969 6.738 1.189 12.945-.088 9.38.088 14.091-1.41 13.254z"/><linearGradient id="c" gradientUnits="userSpaceOnUse" x1="-37.71" y1="34.456" x2="15.592" y2="33.58"><stop offset="0" stop-opacity="0"/><stop offset=".423" stop-opacity=".184"/><stop offset=".5" stop-opacity=".651"/><stop offset="1" stop-opacity="0"/></linearGradient><path fill="url(#c)" d="M59.045 62.672l-51.322-21.225.044-16.821 51.85-21.576.969 6.738 1.189 12.945-.088 9.38.088 14.091-1.41 13.254z"/><linearGradient id="d" gradientUnits="userSpaceOnUse" x1="60.949" y1="1.793" x2="60.949" y2="64.291"><stop offset="0" stop-color="#fff"/><stop offset=".214" stop-color="#78BEE8"/><stop offset=".5" stop-color="#F6F6F6"/><stop offset=".791" stop-color="#557EBE"/><stop offset="1" stop-color="#fff"/></linearGradient><path fill="url(#d)" d="M59.942 2.018c-.232 0-.454.337-.669.969 1.129 1.531 2.011 14.391 2.011 30.032 0 15.64-.882 28.501-2.011 30.031.215.632.437.968.669.968 1.48 0 2.683-13.879 2.683-30.999 0-17.122-1.202-31.001-2.683-31.001z"/><path fill="#fff" d="M59.229 63.05c1.129-1.53 2.009-14.392 2.009-30.031 0-15.641-.88-28.5-2.009-30.032.149-.446.305-.736.465-.874-.065-.056-.132-.096-.201-.096-.229 0-.454.337-.669.969 1.132 1.531 2.013 14.391 2.013 30.032 0 15.64-.881 28.501-2.013 30.031.215.632.44.968.669.968.069 0 .136-.038.201-.096-.16-.134-.315-.426-.465-.871z"/><linearGradient id="e" gradientUnits="userSpaceOnUse" x1="5.63" y1="23.941" x2="5.63" y2="45.665"><stop offset="0" stop-color="#B7DAEF"/><stop offset=".245" stop-color="#4D7CBD"/><stop offset=".398" stop-color="#D4E4F4"/><stop offset=".611" stop-color="#4975B8"/><stop offset=".662" stop-color="#4B78BA"/><stop offset=".718" stop-color="#4F80C0"/><stop offset=".776" stop-color="#568DC9"/><stop offset=".836" stop-color="#62A0D5"/><stop offset=".896" stop-color="#73B7E4"/><stop offset=".912" stop-color="#78BEE8"/></linearGradient><path fill="url(#e)" d="M7.744 41.473l-4.227 1.409v-19.728l4.227 1.409z"/><path fill="#777" d="M14.13 43.596l3.992 1.438.587-.558-4.315-1.411zm26.068 10.832l3.994 1.438.584-.557-4.313-1.412z"/><path fill="#9EAFB2" d="M10.872 42.637l-1.807-.73v-17.844l1.762-.669.029 12.938z"/></svg>