<svg xmlns="http://www.w3.org/2000/svg" xmlns:xlink="http://www.w3.org/1999/xlink" width="80" height="80" viewBox="0 0 80 80"><image overflow="visible" opacity=".7" width="196" height="100" xlink:href="83E1BAF4.png" transform="matrix(.24 0 0 .24 19.045 18.359)"/><linearGradient id="a" gradientUnits="userSpaceOnUse" x1="42.52" y1="23.424" x2="42.52" y2="38.079"><stop offset="0" stop-color="#8CC7F1"/><stop offset=".571" stop-color="#4B75B8"/><stop offset=".653" stop-color="#4E78BA"/><stop offset=".731" stop-color="#5680C0"/><stop offset=".807" stop-color="#648FC9"/><stop offset=".882" stop-color="#78A3D6"/><stop offset=".955" stop-color="#94BFE6"/><stop offset="1" stop-color="#A9D4F1"/></linearGradient><path fill-rule="evenodd" clip-rule="evenodd" fill="url(#a)" d="M61.57 27.285l-2.045 2.077c-3.711-5.436-9.887-9.003-17.006-9.003-10.528 0-19.012 7.784-20.475 17.906h6.913c1.376-6.227 6.92-10.886 13.562-10.886 5.168 0 9.662 2.829 12.055 7.015l-2.38 2.417.099 1.464h10.701v-10.942l-1.424-.048z"/><image overflow="visible" opacity=".7" width="196" height="100" xlink:href="83E1BAFC.png" transform="matrix(.24 0 0 .24 19.045 42.359)"/><linearGradient id="b" gradientUnits="userSpaceOnUse" x1="22.045" y1="53.317" x2="62.994" y2="53.317"><stop offset=".011" stop-color="#EAEAEA"/><stop offset=".571" stop-color="#CDCDCD"/><stop offset=".709" stop-color="#D0D0D0"/><stop offset=".839" stop-color="#D9D9D9"/><stop offset=".966" stop-color="#E7E7E7"/><stop offset="1" stop-color="#ECECEC"/></linearGradient><path fill-rule="evenodd" clip-rule="evenodd" fill="url(#b)" d="M23.469 55.35l2.045-2.077c3.711 5.437 9.887 9.003 17.006 9.003 10.528 0 19.012-7.783 20.475-17.906h-6.913c-1.376 6.227-6.92 10.887-13.562 10.887-5.168 0-9.662-2.829-12.055-7.016l2.38-2.418-.099-1.463h-10.701v10.941l1.424.049z"/><linearGradient gradientUnits="userSpaceOnUse" x1="42.52" y1="59.82" x2="42.52" y2="44.023"><stop offset="0" stop-color="#F7F7F7"/><stop offset="1" stop-color="#808080"/></linearGradient><linearGradient gradientUnits="userSpaceOnUse" x1="42.52" y1="44.023" x2="42.52" y2="54.554"><stop offset="0" stop-color="#fff"/><stop offset=".076" stop-color="#DAD9DC"/><stop offset=".336" stop-color="#78767B"/><stop offset=".568" stop-color="#3F3E43"/><stop offset=".763" stop-color="#202024"/><stop offset=".913" stop-color="#0D0F11"/><stop offset="1" stop-color="#040506"/></linearGradient><path opacity=".5" fill-rule="evenodd" clip-rule="evenodd" fill="#fff" d="M52.194 36.812l.05.749 2.33-2.367-.303-.492-2.077 2.11zm9.376-9.527l-2.045 2.077c-3.711-5.436-9.887-9.003-17.006-9.003-10.528 0-19.012 7.784-20.475 17.906h.152c1.786-9.726 10.076-17.106 20.323-17.106 7.119 0 13.295 3.567 17.006 9.003l2.045-2.077 1.424.049v-.8l-1.424-.049z"/><path fill-rule="evenodd" clip-rule="evenodd" fill="#fff" d="M56.081 44.285c-1.376 6.228-6.92 10.889-13.562 10.889-4.971 0-9.312-2.621-11.765-6.546l-.304.303c2.388 4.202 6.89 7.043 12.069 7.043 6.642 0 12.186-4.661 13.562-10.888h6.761c.049-.268.113-.529.152-.801h-6.913zm-23.287 1.514l.05-.051-.098-1.463h-10.701v.799h10.702l.047.715z"/><path opacity=".2" fill-rule="evenodd" clip-rule="evenodd" fill="#78BEE8" d="M54.574 33.594c-2.393-4.187-6.887-7.015-12.055-7.015-6.642 0-12.185 4.66-13.562 10.886h-6.761c-.049.267-.113.529-.152.8h6.913c1.376-6.227 6.92-10.886 13.562-10.886 4.961 0 9.296 2.61 11.752 6.523l.303-.308zm-2.281 3.882l-.049-.715-.05.051.099 1.464h10.701v-.8h-10.701z"/><linearGradient id="c" gradientUnits="userSpaceOnUse" x1="22.045" y1="53.238" x2="62.994" y2="53.238"><stop offset=".238" stop-color="#D4D4D4"/><stop offset=".47" stop-color="#A8A8A8"/><stop offset=".697" stop-color="#848484"/><stop offset=".881" stop-color="#6E6E6E"/><stop offset="1" stop-color="#666"/></linearGradient><path opacity=".3" fill-rule="evenodd" clip-rule="evenodd" fill="url(#c)" d="M32.845 45.748l-.05-.749-2.344 2.332.304.497 2.09-2.08zm29.997-1.463c-1.785 9.727-10.076 17.107-20.322 17.107-7.158 0-13.364-3.604-17.068-9.088l-2.183 2.171-1.224-.05v.801l1.224.049 2.183-2.172c3.704 5.485 9.91 9.088 17.068 9.088 10.527 0 19.012-7.783 20.475-17.906h-.153z"/></svg>