<?xml version="1.0" encoding="utf-8"?>
<!-- Generator: Adobe Illustrator 17.1.0, SVG Export Plug-In . SVG Version: 6.00 Build 0)  -->
<!DOCTYPE svg PUBLIC "-//W3C//DTD SVG 1.1//EN" "http://www.w3.org/Graphics/SVG/1.1/DTD/svg11.dtd">
<svg version="1.1" id="Слой_1" xmlns="http://www.w3.org/2000/svg" xmlns:xlink="http://www.w3.org/1999/xlink" x="0px" y="0px"
	 viewBox="0 0 49 49" enable-background="new 0 0 49 49" xml:space="preserve">
<path fill="#FFFFFF" d="M38.8,9.9H10.2C8.4,9.9,7,11.3,7,13.1v19.5c0,1.8,1.4,3.2,3.2,3.2h28.7c1.8,0,3.2-1.4,3.2-3.2V13.1
	C42,11.3,40.6,9.9,38.8,9.9z M38.5,12.1C33.7,15.5,29,19,24.2,22.4c-4.8-3.4-9.5-6.8-14.3-10.3c0.1,0,0.2,0,0.2,0
	C10.2,12.1,38.5,12.1,38.5,12.1z M38.8,33.6H10.2c-0.5,0-1-0.4-1-1V14.3c4.8,3.4,9.6,6.9,14.4,10.3l0,0c0.1,0.1,0.3,0.2,0.4,0.2
	c0,0,0,0,0.1,0c0,0,0.1,0,0.1,0c0,0,0.1,0,0.1,0c0,0,0,0,0.1,0c0.2,0,0.3-0.1,0.4-0.2l0,0c5-3.6,10-7.2,15-10.8v18.7
	C39.8,33.1,39.4,33.6,38.8,33.6z"/>
</svg>
